<?xml version="1.0" standalone="no"?>
<!DOCTYPE svg PUBLIC "-//W3C//DTD SVG 1.1//EN" "http://www.w3.org/Graphics/SVG/1.1/DTD/svg11.dtd" >
<svg xmlns="http://www.w3.org/2000/svg" xmlns:xlink="http://www.w3.org/1999/xlink" version="1.1">
<metadata>
Created by FontForge 20170731 at Tue Sep 16 19:12:42 2014
 By Aleksey,,,
Copyright 2014 Adobe Systems Incorporated. All Rights Reserved.
</metadata>
<defs>
<font id="SourceSerifPro-Regular" horiz-adv-x="370" >
  <font-face 
    font-family="Source Serif Pro"
    font-weight="400"
    font-stretch="normal"
    units-per-em="1000"
    panose-1="2 4 6 3 5 4 5 2 2 4"
    ascent="730"
    descent="-270"
    x-height="473"
    cap-height="669"
    bbox="-178 -334 1138 918"
    underline-thickness="50"
    underline-position="-150"
    unicode-range="U+000D-FB02"
  />
<missing-glyph horiz-adv-x="640" 
d="M500 96v477l-149 -238zM468 50l-148 236l-148 -236h296zM140 96l150 239l-150 238v-477zM172 619l148 -236l148 236h-296zM560 0h-480v669h480v-669z" />
    <glyph glyph-name="f_i" unicode="fi" horiz-adv-x="617" 
d="M585 36v-36h-232v36l75 14q1 38 1.5 82.5t0.5 77.5v51q0 52 -1 86.5t-2 72.5h-225v-210q0 -40 0.5 -79.5t1.5 -79.5l89 -15v-36h-257v36l79 14q1 40 1.5 80t0.5 80v210h-83v44l84 11q7 81 24.5 131t56.5 86q36 32 77.5 44.5t84.5 12.5q33 0 61 -7t49 -20t33 -31.5
t12 -41.5q-4 -17 -17 -28t-33 -11q-19 0 -34.5 10.5t-29.5 30.5l-42 58q-69 -5 -111 -48q-26 -27 -38.5 -71t-10.5 -117h199l103 18l16 -10l-3 -136v-135q0 -33 0.5 -77.5t1.5 -82.5z" />
    <glyph glyph-name="f_l" unicode="fl" horiz-adv-x="612" 
d="M587 36v-36h-247v36l79 14q1 41 1.5 80.5t0.5 79.5v439q-24 2 -51.5 14.5t-54.5 34.5l-6 5q-35 -15 -59 -40q-30 -32 -41 -77t-9 -113h138v-53h-136v-210q0 -40 0.5 -79.5t1.5 -79.5l89 -15v-36h-257v36l79 14q1 40 1.5 80t0.5 80v210h-83v44l84 11q4 41 9.5 73.5t15 59
t24 48t35.5 39.5q39 32 78.5 43t73.5 11t65 -8.5t48 -25.5l28 14l14 -8l-4 -142v-369q0 -40 0.5 -79.5t1.5 -80.5z" />
    <glyph glyph-name="f_t" unicode="ft" horiz-adv-x="644" 
d="M642 42q-19 -25 -49.5 -38.5t-68.5 -13.5q-53 0 -83.5 27.5t-30.5 86.5q0 19 0.5 37.5t0.5 47.5v231h-209v-210q0 -40 0.5 -79.5t1.5 -79.5l90 -15v-36h-258v36l79 14q1 40 1.5 80t0.5 80v210h-83v44l84 11q4 40 9.5 72t13.5 57.5t20 46t28 37.5q33 35 69.5 48t71.5 13
t61.5 -12.5t34.5 -41.5q-2 -20 -17.5 -32.5t-43.5 -12.5q-36 0 -72 30l-25 20q-21 -15 -35 -40q-15 -26 -25 -70.5t-8 -116.5h217l27 138h59l-5 -138h134v-53h-136v-305q0 -38 15 -55.5t40 -17.5q17 0 32.5 6.5t35.5 20.5z" />
    <glyph glyph-name=".notdef" horiz-adv-x="640" 
d="M500 96v477l-149 -238zM468 50l-148 236l-148 -236h296zM140 96l150 239l-150 238v-477zM172 619l148 -236l148 236h-296zM560 0h-480v669h480v-669z" />
    <glyph glyph-name=".null" horiz-adv-x="0" 
 />
    <glyph glyph-name="nonmarkingreturn" horiz-adv-x="333" 
 />
    <glyph glyph-name="NULL" horiz-adv-x="0" 
 />
    <glyph glyph-name="NULL" horiz-adv-x="0" 
 />
    <glyph glyph-name="CR" unicode="&#xd;" horiz-adv-x="233" 
 />
    <glyph glyph-name="space" unicode=" " horiz-adv-x="233" 
 />
    <glyph glyph-name="exclam" unicode="!" horiz-adv-x="289" 
d="M145 -15q-27 0 -46 19.5t-19 45.5t19 45.5t46 19.5t45.5 -19.5t18.5 -45.5t-18.5 -45.5t-45.5 -19.5zM145 684q26 0 41.5 -15t15.5 -48q0 -28 -7 -96t-18 -173l-14 -137h-37l-13 137q-11 105 -18.5 173t-7.5 96q0 33 15.5 48t42.5 15z" />
    <glyph glyph-name="quotedbl" unicode="&#x22;" horiz-adv-x="355" 
d="M92 737q24 0 37.5 -15t13.5 -48q0 -15 -2.5 -39t-6.5 -50t-7.5 -49.5t-5.5 -35.5l-11 -71h-37l-11 71q-2 12 -5.5 35.5t-7.5 49.5t-6.5 50t-2.5 39q0 33 14 48t38 15zM264 737q24 0 37.5 -15t13.5 -48q0 -15 -2.5 -39t-6.5 -50t-7.5 -49.5t-5.5 -35.5l-11 -71h-37l-11 71
q-2 12 -5.5 35.5t-7.5 49.5t-6.5 50t-2.5 39q0 33 14 48t38 15z" />
    <glyph glyph-name="numbersign" unicode="#" horiz-adv-x="526" 
d="M353 391h-158l-20 -130h158zM400 391l-20 -130h90v-81h-102l-28 -180h-47l28 180h-158l-28 -180h-47l28 180h-91v81h103l20 130h-91v82h104l27 177h47l-27 -177h158l27 177h47l-27 -177h89v-82h-102z" />
    <glyph glyph-name="dollar" unicode="$" horiz-adv-x="500" 
d="M278 35q48 8 76 37t28 78q0 44 -24.5 69.5t-79.5 46.5v-231zM242 608q-45 -6 -74 -33t-29 -76q0 -46 26 -74t77 -45v228zM329 603q-23 5 -46 7v-244l4 -1q51 -18 85 -39t54.5 -45t29 -52t8.5 -59q0 -37 -12.5 -69t-36.5 -56t-58.5 -39t-78.5 -19v-102h-42v100
q-39 1 -72.5 12t-58 30t-39 45.5t-15.5 58.5q14 31 46 31q19 0 34.5 -13t23.5 -53l12 -55q18 -4 35 -5.5t34 -2.5v248l-11 4q-79 29 -123 73t-44 119q0 36 13.5 68t38 56.5t58 39.5t74.5 17v91h41v-91q68 -7 113 -45.5t49 -98.5q-5 -17 -17.5 -24.5t-26.5 -7.5
q-17 0 -34 13.5t-26 53.5z" />
    <glyph glyph-name="percent" unicode="%" horiz-adv-x="861" 
d="M189 0l465 669l31 -25l-465 -669zM142 452q0 -54 5.5 -87t15 -52t22 -25.5t25.5 -6.5t25 6.5t21 25.5t14.5 52t5.5 87t-5.5 87t-14.5 52t-21 25.5t-25 6.5t-25.5 -6.5t-22 -25t-15 -52t-5.5 -87.5zM210 657q27 0 52 -11.5t44.5 -36.5t31 -63.5t11.5 -93.5
q0 -54 -11.5 -93t-31 -63.5t-44.5 -36t-52 -11.5t-52.5 11.5t-45 36t-31.5 63.5t-12 93q0 55 12 93.5t31.5 63.5t45 36.5t52.5 11.5zM585 199q0 -54 5.5 -87t15 -52t22 -25.5t25.5 -6.5t25 6.5t21 25.5t14.5 52t5.5 87t-5.5 87t-14.5 52t-21 25.5t-25 6.5t-25.5 -6.5
t-22 -25t-15 -52t-5.5 -87.5zM653 404q27 0 52 -11.5t44.5 -36.5t31 -63.5t11.5 -93.5q0 -54 -11.5 -93t-31 -63.5t-44.5 -36t-52 -11.5t-52.5 11.5t-45 36t-31.5 63.5t-12 93q0 55 12 93.5t31.5 63.5t45 36.5t52.5 11.5z" />
    <glyph glyph-name="ampersand" unicode="&#x26;" horiz-adv-x="720" 
d="M265 49q43 0 81.5 14.5t67.5 40.5q-28 31 -52.5 58.5t-50.5 56.5q-34 42 -59 71l-50 58q-52 -32 -70 -73t-18 -79q0 -27 10 -53.5t29 -47.5t47.5 -33.5t64.5 -12.5zM222 443q13 -18 27 -33q47 32 76.5 66.5t29.5 78.5t-25 69t-62 25q-19 0 -35.5 -7t-29 -19.5
t-19.5 -29.5t-7 -37q0 -27 8.5 -52.5t36.5 -60.5zM673 44l-4 -44q-23 -5 -39.5 -7.5t-36.5 -2.5q-40 0 -66 10t-51 36l-34 37q-32 -37 -81.5 -62.5t-122.5 -25.5q-47 0 -86 14.5t-66.5 39.5t-43 58.5t-15.5 71.5q0 68 38 118.5t113 88.5l-4 5q-38 43 -53.5 82t-15.5 79
q0 33 12.5 59.5t34.5 44.5t52 28t65 10q75 0 113.5 -35.5t38.5 -92.5q0 -52 -36 -92t-112 -81q16 -18 35 -39t45 -50q31 -33 58.5 -62.5t56.5 -60.5q29 46 49 95.5t34 109.5l-79 13v40h203v-40l-76 -14q-17 -69 -42.5 -125t-60.5 -108q18 -20 38 -41t43 -45z" />
    <glyph glyph-name="quotesingle" unicode="'" horiz-adv-x="183" 
d="M92 737q24 0 37.5 -15t13.5 -48q0 -15 -2.5 -39t-6.5 -50t-7.5 -49.5t-5.5 -35.5l-11 -71h-37l-11 71q-2 12 -5.5 35.5t-7.5 49.5t-6.5 50t-2.5 39q0 33 14 48t38 15z" />
    <glyph glyph-name="parenleft" unicode="(" horiz-adv-x="339" 
d="M160 278q0 -60 7.5 -113.5t25.5 -106.5t47.5 -108t73.5 -119l-26 -23q-106 100 -157 216t-51 254t51 254t157 216l26 -23q-44 -64 -73.5 -119t-47.5 -108t-25.5 -106.5t-7.5 -113.5z" />
    <glyph glyph-name="parenright" unicode=")" horiz-adv-x="339" 
d="M179 278q0 60 -7.5 113.5t-25.5 106.5t-47.5 108t-73.5 119l26 23q106 -100 157 -216t51 -254t-51 -254t-157 -216l-26 23q44 64 73.5 119t47.5 108t25.5 106.5t7.5 113.5z" />
    <glyph glyph-name="asterisk" unicode="*" horiz-adv-x="439" 
d="M220 747q15 0 25 -8t10 -28q0 -14 -4.5 -42t-9.5 -62l-7 -47l43 21q38 19 66.5 32.5t44.5 13.5q14 0 22.5 -10t8.5 -25q0 -14 -9 -22.5t-26 -13.5t-40.5 -8.5t-53.5 -7.5l-47 -8l34 -35q35 -35 58 -57.5t23 -43.5q0 -15 -10 -23.5t-23 -8.5q-24 0 -41 30t-42 79l-22 42
l-23 -42q-25 -49 -41.5 -79t-41.5 -30q-12 0 -22 8.5t-10 23.5q0 21 23 43.5t58 57.5l33 35l-47 8q-60 9 -94.5 17t-34.5 35q0 15 9.5 25t23.5 10q17 0 44.5 -14t64.5 -32l43 -21l-7 47q-5 34 -9 62t-4 42q0 20 9.5 28t25.5 8z" />
    <glyph glyph-name="plus" unicode="+" horiz-adv-x="531" 
d="M502 301h-206v-224h-61v224h-206v57h206v219h61v-219h206v-57z" />
    <glyph glyph-name="comma" unicode="," horiz-adv-x="300" 
d="M116 -7q-20 16 -29 34.5t-9 37.5q0 26 15.5 44.5t46.5 18.5q14 0 28.5 -6t33.5 -23q6 -19 8.5 -36.5t2.5 -35.5q0 -45 -16.5 -85.5t-44 -73t-62 -57t-70.5 -37.5l-14 34q51 26 90 62.5t57 93.5z" />
    <glyph glyph-name="hyphen" unicode="-" horiz-adv-x="312" 
d="M40 284h232v-66h-232v66z" />
    <glyph glyph-name="period" unicode="." horiz-adv-x="300" 
d="M150 -15q-30 0 -50.5 21t-20.5 50q0 30 20.5 51t50.5 21t50.5 -21t20.5 -51q0 -29 -20.5 -50t-50.5 -21z" />
    <glyph glyph-name="slash" unicode="/" horiz-adv-x="330" 
d="M269 710h59l-267 -870h-59z" />
    <glyph glyph-name="zero" unicode="0" horiz-adv-x="500" 
d="M133 322q0 -88 9.5 -144.5t26 -89.5t38 -45.5t44.5 -12.5q22 0 43 13t37.5 46t26 89.5t9.5 143.5t-9.5 143.5t-26 89.5t-37.5 46t-43 13q-23 0 -44.5 -12.5t-38 -45.5t-26 -89.5t-9.5 -144.5zM251 659q39 0 77 -18t67 -57.5t47 -104t18 -157.5t-18 -157.5t-47 -104
t-67 -57.5t-77 -18q-40 0 -78 18t-67 57.5t-47 104t-18 157.5t18 157.5t47 104t67 57.5t78 18z" />
    <glyph glyph-name="one" unicode="1" horiz-adv-x="500" 
d="M445 36v-36h-371v36l141 24q1 38 1.5 75.5t0.5 75.5v360l-132 -11v41l206 53l14 -10l-4 -143v-290q0 -38 0.5 -75.5t1.5 -75.5z" />
    <glyph glyph-name="two" unicode="2" horiz-adv-x="500" 
d="M461 82v-82h-411v65l155 159q70 72 103.5 134.5t33.5 121.5q0 62 -32.5 98t-87.5 36q-10 0 -22.5 -1t-26.5 -4l-19 -69q-10 -37 -23.5 -52.5t-34.5 -15.5q-33 0 -51 32q4 40 22 69t45.5 48t62 28.5t72.5 9.5q48 0 83 -12.5t57.5 -35t33.5 -54t11 -68.5q0 -33 -9 -64
t-30 -64.5t-56 -73t-88 -88.5l-124 -117h336z" />
    <glyph glyph-name="three" unicode="3" horiz-adv-x="500" 
d="M171 558q-8 -32 -20.5 -48t-38.5 -16q-17 0 -30 8t-20 29q7 32 24 56t41.5 40t55 24t65.5 8q44 0 79.5 -11.5t60.5 -32t38.5 -49.5t13.5 -64q0 -54 -34 -96.5t-96 -64.5q77 -15 113.5 -57.5t36.5 -105.5q0 -41 -16 -76t-45.5 -61t-70.5 -41t-92 -15q-74 0 -126 33.5
t-66 108.5q17 33 51 33q26 0 37.5 -17t21.5 -55l13 -52q17 -4 31 -5t25 -1q74 0 111 39t37 107q0 66 -38 102.5t-115 36.5h-48v50h40q68 0 105.5 35t37.5 99q0 55 -31.5 85t-90.5 30q-10 0 -21 -1t-25 -3z" />
    <glyph glyph-name="four" unicode="4" horiz-adv-x="500" 
d="M297 256v293l-211 -293h211zM485 193h-105v-193h-83v193h-272v53l297 408h58v-398h105v-63z" />
    <glyph glyph-name="five" unicode="5" horiz-adv-x="500" 
d="M146 394q45 12 94 12t89 -13.5t69 -39.5t45 -64t16 -88q0 -48 -16.5 -88t-47.5 -68.5t-74 -44t-95 -15.5q-77 0 -124 35t-63 106q7 17 20.5 25.5t30.5 8.5q23 0 35.5 -14t22.5 -54l14 -54q15 -5 29 -6.5t28 -1.5q74 0 112 44.5t38 116.5q0 75 -42 114.5t-114 39.5
q-43 0 -92 -11l-28 8l21 302h327v-82h-283z" />
    <glyph glyph-name="six" unicode="6" horiz-adv-x="500" 
d="M260 30q52 0 82.5 39.5t30.5 117.5q0 79 -32 114t-84 35q-31 0 -64 -10t-62 -36v-5q0 -130 34.5 -192.5t94.5 -62.5zM430 627q-145 -35 -216 -107.5t-81 -188.5q32 32 69.5 49t76.5 17q41 0 74.5 -13.5t57.5 -39t37.5 -61.5t13.5 -81q0 -54 -15.5 -94.5t-43 -67.5
t-65 -41t-80.5 -14q-102 0 -159.5 75t-57.5 211q0 73 25 139t73.5 118t120 86t164.5 45z" />
    <glyph glyph-name="seven" unicode="7" horiz-adv-x="500" 
d="M464 644v-51l-238 -593h-83l-10 10l263 552h-345v82h413z" />
    <glyph glyph-name="eight" unicode="8" horiz-adv-x="500" 
d="M254 29q27 0 48.5 9.5t37 25.5t24 38t8.5 47q0 22 -7.5 40.5t-24.5 36t-46 35t-71 37.5q-47 -30 -71 -62.5t-24 -82.5q0 -54 35 -89t91 -35zM146 514q0 -20 5.5 -38.5t19.5 -37t38 -36.5t61 -37q45 35 63 65.5t18 72.5q0 45 -25.5 78t-73.5 33q-43 0 -74.5 -27t-31.5 -73
zM308 347q74 -38 111 -81.5t37 -109.5q0 -38 -15.5 -69.5t-43 -54t-65 -35t-80.5 -12.5q-45 0 -83 10.5t-65.5 30.5t-43 50.5t-15.5 70.5q0 54 36 94.5t105 75.5q-63 35 -91 79t-28 96q0 39 14.5 70t40 52.5t59.5 33t73 11.5t71 -11.5t54.5 -32t34.5 -48.5t12 -62
q0 -18 -5.5 -37.5t-19 -39.5t-36.5 -40.5t-57 -40.5z" />
    <glyph glyph-name="nine" unicode="9" horiz-adv-x="500" 
d="M251 316q33 0 59.5 10t50.5 30v26q0 122 -33.5 177t-89.5 55q-24 0 -45.5 -9.5t-38 -29t-26 -48t-9.5 -66.5t10 -65.5t28 -45t42 -26t52 -8.5zM77 18q68 22 117.5 50.5t83 63.5t52.5 78.5t26 95.5q-26 -26 -59.5 -38t-72.5 -12q-40 0 -75.5 13.5t-61.5 39t-41.5 61.5
t-15.5 82q0 47 15.5 85t43.5 65t67.5 42t86.5 15q49 0 87.5 -18.5t65.5 -52t41 -81.5t14 -108q0 -72 -20.5 -138t-64 -121t-113 -96.5t-166.5 -63.5z" />
    <glyph glyph-name="colon" unicode=":" horiz-adv-x="300" 
d="M150 348q-30 0 -50.5 21t-20.5 50q0 30 20.5 51t50.5 21t50.5 -21t20.5 -51q0 -29 -20.5 -50t-50.5 -21zM150 -15q-30 0 -50.5 21t-20.5 50q0 30 20.5 51t50.5 21t50.5 -21t20.5 -51q0 -29 -20.5 -50t-50.5 -21z" />
    <glyph glyph-name="semicolon" unicode=";" horiz-adv-x="300" 
d="M150 348q-30 0 -50.5 21t-20.5 50q0 30 20.5 51t50.5 21t50.5 -21t20.5 -51q0 -29 -20.5 -50t-50.5 -21zM116 -7q-20 16 -29 34.5t-9 37.5q0 26 15.5 44.5t46.5 18.5q14 0 28.5 -6t33.5 -23q6 -19 8.5 -36.5t2.5 -35.5q0 -45 -16.5 -85.5t-44 -73t-62 -57t-70.5 -37.5
l-14 34q51 26 90 62.5t57 93.5z" />
    <glyph glyph-name="less" unicode="&#x3c;" horiz-adv-x="531" 
d="M127 330l347 -195l-30 -54l-387 225v47l387 225l30 -54z" />
    <glyph glyph-name="equal" unicode="=" horiz-adv-x="531" 
d="M29 202v57h473v-57h-473zM29 401v57h473v-57h-473z" />
    <glyph glyph-name="greater" unicode="&#x3e;" horiz-adv-x="531" 
d="M474 353v-47l-387 -225l-30 54l347 195l-347 194l30 54z" />
    <glyph glyph-name="question" unicode="?" horiz-adv-x="416" 
d="M149 115q27 0 46 -19.5t19 -45.5t-19 -45.5t-46 -19.5t-45.5 19.5t-18.5 45.5t18.5 45.5t45.5 19.5zM138 575q-44 8 -58 21.5t-14 32.5q0 23 14 35.5t42 19.5q31 -3 70.5 -20t74.5 -46t59 -69t24 -89q0 -94 -100 -126l-34 -11q-16 -5 -25 -9.5t-14 -10.5t-6.5 -14.5
t-1.5 -20.5v-55h-39l-12 42q-10 30 -13 45.5t-3 25.5q0 22 17.5 36.5t62.5 28.5l57 18q56 18 56 69q0 19 -7 37.5t-18 36.5z" />
    <glyph glyph-name="at" unicode="@" horiz-adv-x="835" 
d="M518 391q-15 18 -30 25.5t-31 7.5q-23 0 -50.5 -14t-50.5 -46q-23 -31 -39 -71.5t-16 -94.5q0 -96 69 -96q22 0 45 11t58 41zM587 -112q-44 -23 -94 -33t-95 -10q-75 0 -141.5 22.5t-115.5 67.5t-77.5 112.5t-28.5 157.5q0 92 33.5 172.5t92.5 140.5t139.5 94.5
t174.5 34.5q76 0 136.5 -24t102.5 -67t64 -102.5t22 -130.5q0 -73 -21.5 -126t-55 -87t-73.5 -50.5t-77 -16.5q-47 0 -72 21.5t-30 53.5q-30 -33 -62.5 -54t-69.5 -21q-21 0 -40.5 7.5t-34.5 24t-24 42.5t-9 63q0 59 24 112.5t59 94.5q33 40 71.5 62t79.5 22q37 0 68 -25
l47 24l19 -16l-57 -285q-8 -38 6.5 -58.5t47.5 -20.5q26 0 51.5 13.5t46 42.5t33.5 75t13 111t-20.5 115.5t-57 85.5t-86 53.5t-107.5 18.5q-83 0 -151.5 -32.5t-117.5 -87t-76 -125.5t-27 -148q0 -82 26 -143t70.5 -101.5t102.5 -60.5t123 -20q90 0 155 31z" />
    <glyph glyph-name="A" unicode="A" horiz-adv-x="664" 
d="M408 264l-99 293l-100 -293h199zM653 41v-41h-272v41l98 12l-55 164h-231l-56 -163l97 -13v-41h-229v41l85 13l212 615h63l213 -619z" />
    <glyph glyph-name="B" unicode="B" horiz-adv-x="629" 
d="M296 47q97 0 143.5 35t46.5 101q0 70 -47 105t-151 35h-55v-142.5t2 -133.5h61zM235 623q-2 -63 -2 -126v-128h52q91 0 132 30.5t41 99.5t-38.5 96.5t-115.5 27.5h-69zM334 669q52 0 92.5 -12t68.5 -34t42.5 -51.5t14.5 -65.5q0 -27 -8.5 -51.5t-27.5 -45.5t-48 -36.5
t-71 -24.5q50 -7 85.5 -22.5t58.5 -37t34 -48.5t11 -57q0 -34 -14.5 -67t-47 -58.5t-83 -41.5t-122.5 -16h-275v41l92 11q2 63 2 127.5v130.5v49v129t-2 129l-92 11v41h290z" />
    <glyph glyph-name="C" unicode="C" horiz-adv-x="631" 
d="M592 178l-4 -145q-47 -26 -97.5 -37t-104.5 -11q-76 0 -138.5 25.5t-107 72t-69 111t-24.5 141.5q0 76 25.5 140t70.5 110.5t107 72.5t135 26q42 0 92 -9.5t101 -38.5l4 -145h-62l-20 118q-26 14 -51 19.5t-51 5.5q-50 0 -94 -19.5t-77 -57t-52 -93.5t-19 -129
q0 -74 17.5 -130t48.5 -93.5t74.5 -57t94.5 -19.5q29 0 59.5 6.5t59.5 20.5l20 116h62z" />
    <glyph glyph-name="D" unicode="D" horiz-adv-x="710" 
d="M324 47q52 0 94.5 18.5t72.5 55t46.5 90t16.5 124.5q0 70 -16.5 124t-47 90.5t-73 55t-94.5 18.5h-88q-2 -65 -2 -131v-133v-37v-141.5t2 -133.5h89zM339 669q69 0 128.5 -22t103 -64t68 -104.5t24.5 -143.5t-27 -143.5t-74 -105t-109.5 -64.5t-132.5 -22h-276v41l92 11
q2 64 2 130.5v139.5v37v129t-2 129l-92 11v41h295z" />
    <glyph glyph-name="E" unicode="E" horiz-adv-x="603" 
d="M569 178l-7 -178h-518v41l92 11q2 63 2 127.5v130.5v49v129t-2 129l-92 11v41h498l7 -177h-57l-22 127h-235q-2 -63 -2 -126v-128h147l14 95h46v-236h-46l-13 94h-148v-137.5t2 -130.5h255l22 128h57z" />
    <glyph glyph-name="F" unicode="F" horiz-adv-x="579" 
d="M235 619q-2 -63 -2 -126v-128h155l14 95h46v-246h-46l-14 104h-155v-136.5t2 -129.5l93 -11v-41h-284v41l92 11q2 63 2 127.5v130.5v49v129t-2 129l-92 11v41h498l7 -177h-57l-22 127h-235z" />
    <glyph glyph-name="G" unicode="G" horiz-adv-x="682" 
d="M667 278l-61 -6q-1 -45 -1.5 -91t-0.5 -93v-44q-52 -27 -104.5 -43t-115.5 -16q-75 0 -137.5 26.5t-106.5 73t-68.5 110.5t-24.5 140q0 75 24.5 139t69.5 110.5t107.5 73t139.5 26.5q62 0 110.5 -11.5t90.5 -35.5l4 -146h-62l-21 118q-26 14 -54 19.5t-59 5.5
q-52 0 -96 -20t-76.5 -58t-50.5 -93.5t-18 -127.5q0 -144 66 -221.5t181 -77.5q30 0 55.5 4.5t51.5 15.5v32q0 45 -0.5 90.5t-1.5 91.5l-104 8v41h263v-41z" />
    <glyph glyph-name="H" unicode="H" horiz-adv-x="788" 
d="M652 617q-2 -63 -2 -127.5v-130.5v-49v-129t2 -129l92 -11v-41h-282v41l92 11q2 62 2 127v140h-323v-139.5t2 -128.5l91 -10v-41h-282v41l92 11q2 63 2 127.5v130.5v49v129t-2 129l-92 11v41h282v-41l-91 -10q-2 -63 -2 -125.5v-126.5h323v125.5t-2 125.5l-92 11v41h282
v-41z" />
    <glyph glyph-name="I" unicode="I" horiz-adv-x="371" 
d="M235 617q-2 -63 -2 -127.5v-130.5v-49v-129t2 -129l92 -11v-41h-283v41l92 11q2 63 2 127.5v130.5v49v129t-2 129l-92 11v41h283v-41z" />
    <glyph glyph-name="J" unicode="J" horiz-adv-x="374" 
d="M340 628l-92 -11q-2 -63 -2 -127v-130v-156q0 -43 -0.5 -75t-2 -57.5t-4.5 -46t-7 -39.5q-8 -38 -26.5 -65.5t-44 -46.5t-56 -28t-61.5 -9q-29 0 -54 10t-33 39q5 28 21.5 39t40.5 11q19 0 36 -7t39 -24l25 -20q22 21 30.5 49.5t8.5 72.5q0 22 -1 57.5t-2 102t-3 174.5
t-3 276l-102 11v41h293v-41z" />
    <glyph glyph-name="K" unicode="K" horiz-adv-x="667" 
d="M662 41v-41h-257v41l81 10l-162 292l-95 -114v-85.5t2 -91.5l95 -11v-41h-282v41l92 11q2 63 2 127.5v130.5v49v129t-2 129l-92 11v41h282v-41l-95 -11q-2 -64 -2 -128v-130v-63l262 321l-74 11v41h230v-41l-97 -13l-171 -206l205 -358z" />
    <glyph glyph-name="L" unicode="L" horiz-adv-x="596" 
d="M552 188l-10 -188h-498v41l92 11q2 65 2 129v129v49v130.5t-2 127.5l-92 11v41h283v-41l-92 -11q-2 -65 -2 -129v-129v-68v-115.5t2 -125.5h227l29 138h61z" />
    <glyph glyph-name="M" unicode="M" horiz-adv-x="902" 
d="M765 617q-2 -63 -2 -127.5v-130.5v-49v-129t2 -129l92 -11v-41h-272v41l84 10q2 64 2 128.5v130.5v215l-229 -525h-31l-230 529l-1 -475l83 -13v-41h-224v41l91 13v564l-90 10v41h179l230 -537l237 537h171v-41z" />
    <glyph glyph-name="N" unicode="N" horiz-adv-x="735" 
d="M695 628l-85 -13v-625h-35l-400 548v-483l106 -14v-41h-242v41l85 12v555l-9 12l-71 8v41h154l361 -495v441l-105 13v41h241v-41z" />
    <glyph glyph-name="O" unicode="O" horiz-adv-x="707" 
d="M156 335q0 -57 11.5 -111t35.5 -96t61.5 -67.5t89.5 -25.5t89 25.5t61 67.5t35 96t11 111q0 56 -11 110t-35 96t-61 67.5t-89 25.5t-89.5 -25.5t-61.5 -67.5t-35.5 -96t-11.5 -110zM354 684q58 0 113 -22.5t98 -66.5t69 -109.5t26 -150.5q0 -83 -26 -148t-69 -110
t-98 -68.5t-113 -23.5q-59 0 -114 22.5t-98 66.5t-69 109.5t-26 151.5q0 82 26 147t69 110t98.5 68.5t113.5 23.5z" />
    <glyph glyph-name="P" unicode="P" horiz-adv-x="589" 
d="M235 623q-2 -65 -2 -131v-133v-48h47q51 0 86.5 11.5t58 32.5t33 50.5t10.5 64.5q0 73 -41 113t-132 40h-60zM233 264v-106t2 -106l93 -11v-41h-284v41l92 11q2 63 2 127.5v130.5v49v129t-2 129l-92 11v41h269q63 0 111 -14.5t79.5 -41t47.5 -63t16 -80.5
q0 -42 -16.5 -79.5t-52.5 -65.5t-93 -44.5t-139 -16.5h-33z" />
    <glyph glyph-name="Q" unicode="Q" horiz-adv-x="707" 
d="M156 335q0 -57 11.5 -111t35.5 -96t61.5 -67.5t89.5 -25.5t89 25.5t61 67.5t35 96t11 111q0 56 -11 110t-35 96t-61 67.5t-89 25.5t-89.5 -25.5t-61.5 -67.5t-35.5 -96t-11.5 -110zM623 -184q-26 -17 -59 -24.5t-64 -7.5q-47 0 -83.5 16.5t-61.5 45t-38.5 65.5t-14.5 79
q-51 9 -97 35t-81.5 69.5t-56 104t-20.5 136.5q0 82 26 147t69 110t98.5 68.5t113.5 23.5t113 -22.5t98 -66.5t69 -109.5t26 -150.5q0 -75 -21.5 -135.5t-58 -105t-84.5 -71.5t-100 -35q2 -72 38.5 -110t99.5 -38q15 0 34.5 2.5t43.5 9.5z" />
    <glyph glyph-name="R" unicode="R" horiz-adv-x="651" 
d="M310 355q81 0 119.5 39.5t38.5 102.5q0 60 -34.5 93t-112.5 33h-86q-2 -65 -2 -129.5v-138.5h77zM637 41v-41q-15 -5 -33.5 -7.5t-41.5 -2.5q-49 0 -76 14t-36 50l-39 160q-8 30 -18.5 49t-26 29.5t-37.5 14t-52 3.5h-44v-131.5t2 -126.5l92 -11v-41h-283v41l92 11
q2 63 2 127.5v130.5v49v129t-2 129l-92 11v41h280q115 0 179 -45.5t64 -125.5q0 -63 -38 -111.5t-124 -64.5q38 -11 62.5 -40t40.5 -84l43 -147z" />
    <glyph glyph-name="S" unicode="S" horiz-adv-x="512" 
d="M290 377q49 -19 83.5 -39.5t56.5 -44.5t32 -52.5t10 -63.5q0 -45 -17.5 -80.5t-49 -60t-75 -38t-95.5 -13.5q-57 0 -108.5 15t-86.5 38l6 140h62l20 -118q23 -13 47.5 -19t56.5 -6q71 0 113 32t42 91q0 23 -7.5 40.5t-22.5 31.5t-38 26t-55 24l-39 16q-39 15 -70.5 34
t-54 43t-35 54t-12.5 68q0 44 17 79t47.5 59.5t71.5 37.5t89 13q51 0 91.5 -14t72.5 -38l-6 -131h-61l-21 113q-37 20 -82 20q-57 0 -96 -29.5t-39 -87.5q0 -48 29.5 -76t83.5 -48z" />
    <glyph glyph-name="T" unicode="T" horiz-adv-x="604" 
d="M351 619q-2 -64 -2 -129v-131v-49v-129t2 -129l102 -11v-41h-302v41l102 11q2 64 2 128v130v49v129.5t-2 130.5h-153l-22 -128h-58l8 178h548l8 -178h-58l-22 128h-153z" />
    <glyph glyph-name="U" unicode="U" horiz-adv-x="727" 
d="M693 628l-87 -11v-343q0 -79 -18 -134t-50 -89.5t-76 -50t-95 -15.5q-54 0 -99 15.5t-77 48t-49.5 83t-17.5 120.5v108v129t-2 129l-83 10v41h283v-41l-102 -12q-2 -63 -2 -126.5v-129.5v-79q0 -64 11.5 -107t33 -69.5t52.5 -37.5t69 -11q42 0 74 13t53.5 41.5t32.5 75
t11 112.5v317l-102 13v41h240v-41z" />
    <glyph glyph-name="V" unicode="V" horiz-adv-x="674" 
d="M665 628l-87 -12l-211 -626h-44l-233 629l-75 9v41h273v-45l-96 -9l168 -483l163 482l-89 10v45h231v-41z" />
    <glyph glyph-name="W" unicode="W" horiz-adv-x="962" 
d="M953 628l-84 -12l-169 -626h-43l-173 521l-163 -521h-43l-180 628l-83 10v41h272v-41l-92 -11l123 -462l153 461l-101 12v41h272v-41l-101 -12l148 -465l128 464l-91 13v41h227v-41z" />
    <glyph glyph-name="X" unicode="X" horiz-adv-x="648" 
d="M638 41v-41h-283v41l92 11l-140 233l-146 -233l78 -11v-41h-229v41l95 12l178 272l-176 293l-88 10v41h283v-41l-89 -10l128 -214l133 212l-86 12v41h230v-41l-88 -11l-164 -254l188 -312z" />
    <glyph glyph-name="Y" unicode="Y" horiz-adv-x="633" 
d="M365 263v-28v-80t2 -103l102 -11v-41h-302v41l102 11q2 54 2 102.5v80.5v24l-177 360l-79 9v41h282v-41l-95 -11l139 -303l143 302l-90 12v41h229v-41l-88 -13z" />
    <glyph glyph-name="Z" unicode="Z" horiz-adv-x="551" 
d="M531 178l-8 -178h-503v36l379 583h-281l-27 -128h-61l8 178h471v-35l-378 -584h312l27 128h61z" />
    <glyph glyph-name="bracketleft" unicode="[" horiz-adv-x="320" 
d="M178 661q-2 -65 -2 -131v-132v-240v-131.5t2 -131.5l113 -13v-41h-191q2 78 2.5 157t0.5 160v240q0 79 -0.5 158.5t-2.5 158.5h191v-41z" />
    <glyph glyph-name="backslash" unicode="\" horiz-adv-x="330" 
d="M328 -160h-59l-267 870h59z" />
    <glyph glyph-name="bracketright" unicode="]" horiz-adv-x="320" 
d="M217 158q0 -79 0.5 -158.5t2.5 -158.5h-191v41l113 13q2 65 2 131v132v240v131.5t-2 131.5l-113 13v41h191q-2 -78 -2.5 -157t-0.5 -160v-240z" />
    <glyph glyph-name="asciicircum" unicode="^" horiz-adv-x="531" 
d="M401 208l-134 213l-134 -213l-45 34l147 239h64l147 -239z" />
    <glyph glyph-name="underscore" unicode="_" horiz-adv-x="512" 
d="M40 1h432v-66h-432v66z" />
    <glyph glyph-name="grave" unicode="`" horiz-adv-x="400" 
d="M241 557l-120 107q-23 20 -29.5 32.5t-6.5 23.5q0 20 12 29t26 9t27.5 -9t28.5 -34l87 -139z" />
    <glyph glyph-name="a" unicode="a" horiz-adv-x="509" 
d="M324 260q-26 -8 -51 -16t-41 -14q-33 -13 -52 -26.5t-29.5 -26.5t-13.5 -26t-3 -24q0 -20 5.5 -32t14.5 -21q22 -23 60 -23q12 0 23 3t23 9.5t27 17t37 25.5v154zM503 42q-17 -32 -37 -42t-44 -10q-43 0 -66.5 21t-29.5 56q-41 -41 -72 -61.5t-75 -20.5q-27 0 -51.5 8
t-43 24t-29 40t-10.5 55q0 21 7 40.5t25.5 38.5t50.5 37t83 36q23 8 53 17t60 16v27q0 36 -5.5 59.5t-17 37t-29 19t-42.5 5.5q-11 0 -23.5 -1t-27.5 -5l-20 -69q-14 -48 -54 -48q-21 0 -33 11.5t-14 31.5q14 57 66 91.5t129 34.5q79 0 117 -39.5t38 -134.5v-216
q0 -59 33 -59q12 0 21.5 5.5t15.5 11.5l5 5z" />
    <glyph glyph-name="b" unicode="b" horiz-adv-x="577" 
d="M191 98q31 -29 61 -42.5t58 -13.5q27 0 51 12t42 36t28.5 60t10.5 84q0 97 -35 148.5t-92 51.5q-23 0 -53 -12t-71 -46v-278zM188 414q36 40 74 58.5t80 18.5q40 0 74.5 -17t60 -49.5t40.5 -78.5t15 -104t-15.5 -105.5t-43.5 -81t-65.5 -52t-81.5 -18.5q-35 0 -70.5 15
t-67.5 56l-8 -66l-150 10v36l75 14q1 38 1.5 82.5t0.5 77.5v429l-82 10v35l153 45l14 -8l-4 -142v-165z" />
    <glyph glyph-name="c" unicode="c" horiz-adv-x="488" 
d="M458 114q-21 -63 -68.5 -96t-118.5 -33q-51 0 -92.5 17.5t-71 50t-45 79t-15.5 104.5q0 59 19 106.5t51.5 80.5t74 50.5t86.5 17.5q34 0 64 -10t53.5 -27.5t39 -41t20.5 -51.5q-7 -38 -46 -38q-26 0 -38 13.5t-17 34.5l-18 66q-14 5 -28 6.5t-26 1.5q-64 0 -105.5 -51
t-41.5 -148q0 -95 44.5 -145.5t114.5 -50.5q44 0 80 20t59 57z" />
    <glyph glyph-name="d" unicode="d" horiz-adv-x="567" 
d="M386 381q-35 30 -61.5 41.5t-51.5 11.5q-28 0 -53 -12t-44 -36.5t-30 -62t-11 -88.5q0 -98 39.5 -145.5t99.5 -47.5q33 0 58.5 13.5t53.5 44.5v281zM551 36v-36l-155 -10l-7 68q-26 -35 -59.5 -54t-80.5 -19q-46 0 -83.5 18t-64.5 51t-41.5 78.5t-14.5 100.5
q0 57 16 104.5t44.5 81.5t67.5 53t85 19q36 0 68 -14.5t63 -50.5v213l-85 10v35l156 45l14 -8l-4 -142v-530z" />
    <glyph glyph-name="e" unicode="e" horiz-adv-x="510" 
d="M321 285q36 0 47.5 15t11.5 37q0 21 -8.5 40.5t-23 34.5t-34.5 24t-43 9q-21 0 -42.5 -8.5t-40 -28t-32 -50t-17.5 -73.5h182zM137 243q2 -93 45.5 -143t116.5 -50q48 0 80 19t59 51l24 -19q-28 -54 -75.5 -85t-116.5 -31q-51 0 -92 17t-70 49.5t-45 78.5t-16 103
t18.5 104.5t50 81.5t73 53t88.5 19q39 0 73 -13t59 -38t39.5 -61t14.5 -81q0 -17 -2 -31t-5 -24h-319z" />
    <glyph glyph-name="f" unicode="f" horiz-adv-x="354" 
d="M118 475q4 40 9.5 72t13.5 57.5t20 46t28 37.5q33 35 69.5 48t71.5 13t61.5 -12.5t34.5 -41.5q-2 -20 -17.5 -32.5t-43.5 -12.5q-36 0 -72 30l-25 20q-21 -15 -35 -40q-15 -26 -25 -70.5t-8 -116.5h138v-53h-136v-210q0 -40 0.5 -79.5t1.5 -79.5l90 -15v-36h-258v36
l79 14q1 40 1.5 80t0.5 80v210h-83v44z" />
    <glyph glyph-name="g" unicode="g" horiz-adv-x="518" 
d="M237 203q48 0 75 35.5t27 91.5q0 54 -25.5 87t-72.5 33q-48 0 -74.5 -34.5t-26.5 -89.5t25 -89t72 -34zM208 -16q-31 0 -53 6q-22 -24 -31 -45t-9 -47q0 -49 36 -70t96 -21q82 0 125 29.5t43 71.5q0 33 -23 54.5t-77 21.5h-107zM495 415h-97q22 -38 22 -88
q0 -39 -13.5 -69.5t-38 -51.5t-57.5 -32t-72 -11q-20 0 -38 2.5t-35 7.5q-19 -25 -19 -57q0 -28 17 -40.5t63 -12.5h102q83 0 122 -34t39 -95q0 -33 -15.5 -64t-46.5 -55t-77.5 -39t-107.5 -15q-109 0 -159.5 33.5t-50.5 87.5q0 33 22 60t78 55q-32 14 -46.5 37.5
t-14.5 49.5q0 28 14.5 52.5t48.5 50.5q-35 20 -55.5 54.5t-20.5 85.5q0 39 13.5 69.5t38 51.5t57.5 32t72 11q81 0 130 -41l110 38l15 -10v-63z" />
    <glyph glyph-name="h" unicode="h" horiz-adv-x="601" 
d="M571 36v-36h-232v36l73 13q1 38 1.5 82t0.5 79v88q0 69 -19 95t-63 26q-36 0 -68.5 -15t-72.5 -50v-144q0 -33 0.5 -77.5t1.5 -82.5l69 -14v-36h-232v36l75 14q1 38 1.5 82.5t0.5 77.5v429l-82 10v35l153 45l14 -8l-4 -142v-181q37 42 86 67.5t97 25.5q65 0 96.5 -43
t31.5 -142v-96q0 -35 0.5 -78.5t1.5 -81.5z" />
    <glyph glyph-name="i" unicode="i" horiz-adv-x="298" 
d="M153 598q-29 0 -48 18t-19 46q0 29 19 46.5t48 17.5q28 0 47.5 -17.5t19.5 -46.5q0 -28 -19.5 -46t-47.5 -18zM267 36v-36h-232v36l74 14q1 38 1.5 82t0.5 78v50q0 41 -1 68.5t-2 57.5l-79 9v35l155 61l15 -10l-3 -136v-135q0 -33 0.5 -77.5t1.5 -82.5z" />
    <glyph glyph-name="j" unicode="j" horiz-adv-x="277" 
d="M181 491l15 -10l-3 -136v-254q0 -62 -2 -106.5t-8.5 -78.5t-18.5 -58.5t-31 -45.5q-25 -26 -52.5 -38.5t-64.5 -12.5q-53 0 -75.5 18.5t-23.5 38.5q13 42 59 42q20 0 37.5 -8t37.5 -23l17 -13q6 8 12 17q11 21 17.5 39t9.5 44t3.5 66t0.5 105v183q0 41 -1 68.5t-2 57.5
l-79 9v35zM152 726q29 0 48.5 -17.5t19.5 -46.5q0 -28 -19.5 -46t-48.5 -18q-28 0 -47.5 18t-19.5 46q0 29 19.5 46.5t47.5 17.5z" />
    <glyph glyph-name="k" unicode="k" horiz-adv-x="547" 
d="M547 36v-36h-136l-154 247l-66 -67q0 -32 0.5 -65t1.5 -65l80 -14v-36h-248v36l80 14q1 40 1.5 80.5t0.5 79.5v429l-82 10v35l156 45l14 -8l-4 -142v-340l175 182l-72 11v41h227v-41l-95 -13l-109 -111l164 -260z" />
    <glyph glyph-name="l" unicode="l" horiz-adv-x="298" 
d="M273 36v-36h-248v36l80 14q1 41 1.5 80.5t0.5 79.5v429l-82 10v35l156 45l14 -8l-4 -142v-369q0 -40 0.5 -80t1.5 -80z" />
    <glyph glyph-name="m" unicode="m" horiz-adv-x="901" 
d="M872 36v-36h-232v36l74 14q1 37 1.5 81t0.5 79v90q0 35 -5 58t-15.5 36.5t-26 19t-37.5 5.5q-32 0 -64 -14t-70 -49q1 -11 1.5 -23.5t0.5 -26.5v-96q0 -35 0.5 -78.5t1.5 -81.5l70 -14v-36h-232v36l74 14q1 37 1.5 81t0.5 79v88q0 68 -19 94.5t-63 26.5q-35 0 -65.5 -14
t-67.5 -46v-149q0 -33 0.5 -77.5t1.5 -82.5l69 -14v-36h-232v36l74 14q1 38 1.5 82t0.5 78v51q0 41 -1 68t-2 57l-79 9v35l140 61l15 -10l8 -80q36 40 82.5 65t92.5 25q48 0 77 -22t41 -72q39 48 86.5 71t95.5 23q61 0 94.5 -41t33.5 -134v-106q0 -35 0.5 -78.5t1.5 -81.5z
" />
    <glyph glyph-name="n" unicode="n" horiz-adv-x="606" 
d="M576 36v-36h-232v36l74 14q1 37 1.5 81t0.5 79v88q0 69 -19 95t-64 26q-35 0 -66.5 -14t-69.5 -46v-149q0 -33 0.5 -77.5t1.5 -82.5l69 -14v-36h-232v36l74 14q1 38 1.5 82t0.5 78v51q0 41 -1 68t-2 57l-79 9v35l140 61l15 -10l8 -81q37 41 84.5 66t94.5 25
q65 0 96.5 -43t31.5 -142v-96q0 -35 0.5 -78.5t1.5 -81.5z" />
    <glyph glyph-name="o" unicode="o" horiz-adv-x="549" 
d="M274 445q-65 0 -99.5 -53.5t-34.5 -155.5q0 -101 34.5 -153.5t99.5 -52.5q66 0 100.5 52.5t34.5 153.5q0 102 -34.5 155.5t-100.5 53.5zM274 491q43 0 84.5 -16.5t74 -48.5t52 -79.5t19.5 -109.5t-19.5 -109.5t-51.5 -79t-73.5 -47.5t-85.5 -16t-85 16t-73 47.5t-51.5 79
t-19.5 109.5t19.5 109.5t52 79.5t73.5 48.5t84 16.5z" />
    <glyph glyph-name="p" unicode="p" horiz-adv-x="583" 
d="M202 93q28 -27 55 -39t55 -12t53 12t43.5 36t29 60t10.5 84q0 97 -35 148.5t-90 51.5q-23 0 -53 -11.5t-68 -43.5v-286zM196 417q35 38 73 56t78 18t75 -17t60.5 -49.5t40.5 -78.5t15 -104t-15.5 -105.5t-43.5 -81t-65.5 -52t-81.5 -18.5q-35 0 -68 14t-65 52v-79
q0 -40 0.5 -80t1.5 -81l91 -15v-35h-257v35l80 14q1 42 1.5 81.5t0.5 80.5v289q0 41 -1 68t-2 57l-79 9v35l140 61l15 -10z" />
    <glyph glyph-name="q" unicode="q" horiz-adv-x="557" 
d="M390 379q-36 32 -63.5 43.5t-53.5 11.5q-28 0 -53 -12t-44 -36.5t-30 -62t-11 -88.5q0 -98 39.5 -145.5t99.5 -47.5q33 0 60 15t56 48v274zM556 -204v-35h-257v35l92 15q1 41 1.5 80.5t0.5 79.5v93q-29 -42 -64 -60.5t-80 -18.5q-46 0 -83.5 18t-64.5 51t-41.5 78.5
t-14.5 100.5q0 57 16 104.5t44.5 81.5t66.5 53t83 19q36 0 70.5 -15t67.5 -54l68 69l16 -10l-3 -135v-375q0 -41 0.5 -80.5t1.5 -80.5z" />
    <glyph glyph-name="r" unicode="r" horiz-adv-x="423" 
d="M200 362q26 61 64.5 95t79.5 34q23 0 43.5 -11.5t24.5 -37.5q0 -26 -17 -40.5t-43 -14.5q-32 0 -57 25l-8 8q-31 -23 -51.5 -55t-34.5 -77v-78q0 -33 0.5 -77t1.5 -82l82 -15v-36h-243v36l72 13q1 38 1.5 82.5t0.5 78.5v51q0 41 -1 68t-2 57l-79 9v35l140 61l15 -10
l11 -119v0z" />
    <glyph glyph-name="s" unicode="s" horiz-adv-x="434" 
d="M257 277q75 -28 106 -64t31 -84q0 -28 -12 -54t-36.5 -46t-61 -32t-84.5 -12q-42 0 -77 9.5t-72 28.5l-4 110h55l19 -86q35 -16 81 -16q57 0 85 21t28 56q0 32 -23 51.5t-71 36.5l-46 16q-55 20 -88 52.5t-33 80.5q0 29 12.5 55.5t35 46.5t54.5 32t72 12q41 0 74.5 -10.5
t65.5 -30.5l-4 -102h-52l-16 80q-34 17 -69 17q-46 0 -69.5 -19.5t-23.5 -53.5q0 -30 20.5 -47.5t71.5 -36.5z" />
    <glyph glyph-name="t" unicode="t" horiz-adv-x="325" 
d="M323 42q-20 -25 -50 -38.5t-68 -13.5q-53 0 -83.5 27.5t-30.5 86.5q0 19 0.5 37.5t0.5 47.5v231h-83v44l89 11l26 136h60l-5 -138h134v-53h-136v-305q0 -38 14.5 -55.5t40.5 -17.5q17 0 32.5 6.5t34.5 20.5z" />
    <glyph glyph-name="u" unicode="u" horiz-adv-x="583" 
d="M549 36v-36l-139 -10l-10 89q-41 -50 -86.5 -72t-90.5 -22q-30 0 -54.5 9.5t-41.5 31t-25.5 55.5t-8.5 84l3 251l-71 15v36l147 14l10 -10l-5 -140v-157q0 -66 19.5 -91.5t60.5 -25.5q35 0 70 16t70 48l3 295l-71 15v36l145 14l10 -10l-3 -140v-281z" />
    <glyph glyph-name="v" unicode="v" horiz-adv-x="505" 
d="M496 432l-55 -12l-162 -430h-43l-181 434l-55 8v41h242v-41l-88 -11l122 -323l112 322l-82 12v41h190v-41z" />
    <glyph glyph-name="w" unicode="w" horiz-adv-x="764" 
d="M754 432l-54 -11l-146 -431h-37l-134 347l-128 -347h-37l-161 433l-57 9v41h228v-41l-78 -11l103 -307l112 307l-74 11v41h221v-41l-74 -12l113 -304l94 304l-74 12v41h183v-41z" />
    <glyph glyph-name="x" unicode="x" horiz-adv-x="506" 
d="M496 36v-36h-235v36l69 13l-95 144l-104 -144l72 -13v-36h-193v36l63 12l139 181l-135 194l-62 9v41h215v-41l-56 -9l92 -138l100 136l-64 11v41h178v-41l-55 -10l-134 -173l139 -201z" />
    <glyph glyph-name="y" unicode="y" horiz-adv-x="508" 
d="M498 432l-55 -12l-151 -417q-24 -67 -47.5 -114.5t-48 -78t-51.5 -45t-58 -14.5q-37 0 -64 18.5t-27 48.5q5 21 24 31.5t42 10.5q20 0 36.5 -8.5t37.5 -28.5l5 -5q32 26 54.5 63t36.5 79l4 12l-180 451l-57 9v41h240v-42l-86 -10l123 -333l113 332l-87 12v41h196v-41z
" />
    <glyph glyph-name="z" unicode="z" horiz-adv-x="456" 
d="M431 163l-10 -163h-392v35l286 395h-201l-27 -111l-52 4l8 150h373v-36l-285 -395h218l30 121h52z" />
    <glyph glyph-name="braceleft" unicode="{" horiz-adv-x="344" 
d="M287 672q-26 -3 -43 -8t-26.5 -14t-13.5 -23.5t-4 -36.5q0 -57 6 -108t6 -81q0 -48 -22 -80t-71 -43q49 -11 71 -43t22 -80q0 -30 -6 -81t-6 -108q0 -22 4 -36.5t13.5 -23.5t26.5 -14t43 -8l27 -3v-40h-45q-72 0 -112 30.5t-40 90.5q0 31 6.5 59t14.5 53.5t14.5 48.5
t6.5 43q0 38 -28 61t-91 31v40q63 8 91 31t28 61q0 20 -6.5 43t-14.5 48.5t-14.5 53.5t-6.5 59q0 60 40 90.5t112 30.5h45v-40z" />
    <glyph glyph-name="bar" unicode="|" horiz-adv-x="251" 
d="M96 750h59v-1000h-59v1000z" />
    <glyph glyph-name="braceright" unicode="}" horiz-adv-x="344" 
d="M304 258q-63 -8 -91 -31t-28 -61q0 -20 6.5 -43t14.5 -48.5t14.5 -53.5t6.5 -59q0 -60 -40 -90.5t-112 -30.5h-45v40l27 3q26 3 43 8t26.5 14t13.5 23.5t4 36.5q0 57 -6 108t-6 81q0 48 22 80t71 43q-49 11 -71 43t-22 80q0 30 6 81t6 108q0 22 -4 36.5t-13.5 23.5
t-26.5 14t-43 8l-27 3v40h45q72 0 112 -30.5t40 -90.5q0 -31 -6.5 -59t-14.5 -53.5t-14.5 -48.5t-6.5 -43q0 -38 28 -61t91 -31v-40z" />
    <glyph glyph-name="asciitilde" unicode="~" horiz-adv-x="531" 
d="M285 367q24 -23 43.5 -32t39.5 -9q21 0 39 19t25 72l50 -8q-4 -69 -34 -105t-86 -36q-31 0 -58.5 14.5t-56.5 40.5q-25 23 -44.5 32t-39.5 9q-21 0 -38.5 -19t-24.5 -72l-51 8q5 69 34.5 105t85.5 36q32 0 59 -14.5t57 -40.5z" />
    <glyph glyph-name="uni00A0" unicode="&#xa0;" horiz-adv-x="233" 
 />
    <glyph glyph-name="exclamdown" unicode="&#xa1;" horiz-adv-x="289" 
d="M144 491q27 0 46 -19.5t19 -45.5t-19 -45.5t-46 -19.5t-45.5 19.5t-18.5 45.5t18.5 45.5t45.5 19.5zM144 -208q-26 0 -41.5 15t-15.5 48q0 28 7 96t18 173l14 137h37l13 -137q11 -105 18.5 -173t7.5 -96q0 -33 -15.5 -48t-42.5 -15z" />
    <glyph glyph-name="cent" unicode="&#xa2;" horiz-adv-x="500" 
d="M248 520q-53 -11 -85.5 -61.5t-32.5 -135.5q0 -82 32 -131.5t86 -61.5v390zM455 191q-19 -57 -60.5 -90t-105.5 -38v-108h-41v108q-47 3 -84.5 22t-64.5 51.5t-41.5 77.5t-14.5 100q0 54 16.5 98.5t44.5 76.5t65 52t79 25v94h41v-92q31 -2 59 -12.5t50 -27.5t36 -40
t19 -50q-8 -38 -47 -38q-24 0 -39 17.5t-25 58.5l-9 39q-25 7 -44 8v-397q43 2 81 22t61 56z" />
    <glyph glyph-name="sterling" unicode="&#xa3;" horiz-adv-x="500" 
d="M466 82v-82h-431v52q27 15 47.5 37t35 48t22 55t7.5 58q0 17 -3 34h-103v51h88q-6 16 -13 31t-12.5 31.5t-9.5 35.5t-4 42q0 39 13.5 73t38.5 58.5t59.5 38.5t75.5 14q34 0 65 -10.5t55 -30t38.5 -46.5t16.5 -59q-12 -32 -46 -32q-21 0 -36 14.5t-23 52.5l-14 61
q-12 3 -22.5 4t-18.5 1q-47 0 -78.5 -31.5t-31.5 -103.5q0 -44 6 -76.5t11 -67.5h165v-51h-160q1 -7 1 -13.5v-13.5q-1 -61 -20.5 -103.5t-55.5 -71.5h337z" />
    <glyph glyph-name="currency" unicode="&#xa4;" horiz-adv-x="502" 
d="M251 217q22 0 41.5 8t34.5 23t23.5 35.5t8.5 45.5t-8.5 45.5t-23.5 35t-34.5 22.5t-41.5 8t-41.5 -8t-34.5 -22.5t-23.5 -35t-8.5 -45.5t8.5 -45.5t23.5 -35.5t34.5 -23t41.5 -8zM416 202q34 -20 46 -32.5t12 -26.5q0 -15 -11 -26t-26 -11q-14 0 -26.5 12t-32.5 46
l-22 37q-22 -17 -49 -26t-56 -9t-56 9t-49 26l-22 -37q-20 -34 -32.5 -46t-26.5 -12q-15 0 -25.5 10.5t-10.5 26.5q0 14 12 26.5t46 32.5l36 21q-17 21 -27 47.5t-10 58.5t10 58.5t27 46.5l-36 22q-34 20 -46 32.5t-12 26.5q0 15 10.5 25.5t25.5 10.5q14 0 26.5 -12
t32.5 -46l22 -37q45 36 105 36t105 -36l22 37q20 34 32.5 46t26.5 12q15 0 26 -10.5t11 -25.5q0 -14 -12 -26.5t-46 -32.5l-37 -22q17 -20 27 -46.5t10 -58.5t-10 -58.5t-27 -46.5z" />
    <glyph glyph-name="yen" unicode="&#xa5;" horiz-adv-x="500" 
d="M440 593l-126 -275h143v-50h-165v-67h165v-50h-165q0 -25 0.5 -49.5t1.5 -50.5l103 -11v-40h-292v40l101 10q1 26 1 51t1 50h-158v50h158v67h-158v50h136l-132 279l-65 8v39h243v-39l-75 -10l116 -265l119 264l-73 11v39h192v-39z" />
    <glyph glyph-name="brokenbar" unicode="&#xa6;" horiz-adv-x="251" 
d="M96 200h59v-450h-59v450zM96 320v430h59v-430h-59z" />
    <glyph glyph-name="section" unicode="&#xa7;" horiz-adv-x="491" 
d="M115 343q0 -23 10.5 -40.5t28 -31t40 -25t45.5 -22.5q27 -12 53 -26.5t48 -31.5q17 17 26 39.5t9 43.5t-9.5 36.5t-26 28.5t-39.5 24.5t-51 23.5q-63 29 -98 59q-17 -16 -26.5 -36.5t-9.5 -41.5zM289 638q-5 1 -9 1h-9q-54 0 -79 -23t-25 -53q0 -23 10 -41t26.5 -32.5
t38.5 -26.5t47 -23q38 -17 67.5 -34t49.5 -36.5t30 -43t10 -54.5q0 -43 -21 -75.5t-59 -55.5q16 -19 25 -40.5t9 -48.5q0 -29 -11.5 -56.5t-34 -49t-54.5 -34.5t-74 -13q-34 0 -63.5 9t-51 24.5t-33.5 35.5t-12 42q7 20 19 27.5t28 7.5q22 0 37 -13t29 -41l23 -45
q5 -1 16 -1q55 0 80.5 25t25.5 60q0 21 -8.5 36.5t-24 28.5t-38.5 25t-52 26q-34 16 -62.5 32.5t-49.5 36t-32.5 44.5t-11.5 59q0 80 81 127q-36 43 -36 97q0 26 10.5 51.5t32 45.5t54 32.5t76.5 12.5q34 0 63.5 -9t51.5 -24t34.5 -35t12.5 -42q-8 -20 -19.5 -28t-27.5 -8
q-23 0 -38 13t-29 42z" />
    <glyph glyph-name="dieresis" unicode="&#xa8;" horiz-adv-x="400" 
d="M301 586q-24 0 -41 15.5t-17 39.5t17 39.5t41 15.5q23 0 40 -15.5t17 -39.5t-17 -39.5t-40 -15.5zM99 586q-23 0 -40 15.5t-17 39.5t17 39.5t40 15.5q24 0 41 -15.5t17 -39.5t-17 -39.5t-41 -15.5z" />
    <glyph glyph-name="copyright" unicode="&#xa9;" horiz-adv-x="755" 
d="M471 257h44l-3 -95q-53 -28 -118 -28q-44 0 -80 15t-61.5 42t-40 64t-14.5 82q0 44 15 81.5t41 64.5t61.5 42.5t77.5 15.5q32 0 58.5 -5.5t55.5 -22.5l2 -95h-43l-11 72q-14 7 -27.5 9.5t-25.5 2.5q-27 0 -51 -10.5t-42 -31.5t-28 -51.5t-10 -70.5q0 -81 36 -122t95 -41
q11 0 26 2.5t32 8.5zM378 25q63 0 117.5 21.5t94 62t62.5 98.5t23 130t-23 128.5t-62.5 96.5t-94 61t-117.5 21t-117.5 -21t-94 -60.5t-62.5 -96.5t-23 -129t23 -130t62.5 -98.5t94 -62t117.5 -21.5zM378 684q72 0 135.5 -23.5t110.5 -68.5t74 -109.5t27 -145.5
q0 -82 -27 -147t-74 -110.5t-110.5 -70t-135.5 -24.5q-73 0 -136.5 24.5t-110.5 70t-74 110.5t-27 147q0 81 27 145.5t74 109.5t110.5 68.5t136.5 23.5z" />
    <glyph glyph-name="ordfeminine" unicode="&#xaa;" horiz-adv-x="351" 
d="M216 597q-17 -5 -31.5 -9.5t-24.5 -8.5q-38 -14 -50 -31t-12 -36q0 -23 14 -35q13 -14 37 -14q14 0 27 7.5t40 25.5v101zM345 459q-11 -23 -26.5 -32t-35.5 -9q-28 0 -44 14t-21 38q-26 -26 -47 -40t-53 -14q-38 0 -64 21.5t-26 61.5q0 15 5 29t18 26.5t35.5 24.5
t57.5 23q15 5 34 10l38 10v18q0 46 -13.5 62t-48.5 16q-13 0 -31 -3l-10 -38q-4 -23 -15 -33.5t-26 -10.5q-30 0 -35 30q8 38 44.5 62t93.5 24t83 -27t26 -91v-143q0 -31 20 -31q8 0 13.5 3.5t12.5 11.5z" />
    <glyph glyph-name="guillemotleft" unicode="&#xab;" horiz-adv-x="487" 
d="M109 253l150 -176l-24 -27l-205 176v53l205 176l24 -27zM311 253l150 -176l-24 -27l-205 176v53l205 176l24 -27z" />
    <glyph glyph-name="logicalnot" unicode="&#xac;" horiz-adv-x="531" 
d="M497 400v-241h-62v184h-411v57h473z" />
    <glyph glyph-name="uni00AD" unicode="&#xad;" horiz-adv-x="312" 
d="M40 284h232v-66h-232v66z" />
    <glyph glyph-name="registered" unicode="&#xae;" horiz-adv-x="459" 
d="M222 525q22 0 31 11.5t9 28.5q0 38 -40 38h-13v-78h13zM312 437l24 -3v-15q-10 -2 -16 -3t-14 -1q-19 0 -27.5 5t-11.5 21l-9 43q-4 24 -35 24h-14v-71l28 -3v-15h-100v15l29 3v164l-29 3v16h95q36 0 56 -14t20 -37q0 -16 -11 -30.5t-38 -21.5q38 -8 45 -39zM229 348
q34 0 64 12t52.5 34t35.5 53t13 69t-13 68.5t-35.5 52t-52.5 33t-64 11.5q-33 0 -63 -11.5t-52.5 -33t-35.5 -52t-13 -68.5t13 -69t35.5 -53t52.5 -34t63 -12zM229 712q40 0 76.5 -13.5t64 -38.5t43.5 -61.5t16 -82.5t-16 -83t-43.5 -62.5t-64 -39.5t-76.5 -14
q-41 0 -77.5 14t-63.5 39.5t-42.5 62.5t-15.5 83t16 82.5t43.5 61.5t63.5 38.5t76 13.5z" />
    <glyph glyph-name="macron" unicode="&#xaf;" horiz-adv-x="400" 
d="M69 665h262v-63h-262v63z" />
    <glyph glyph-name="degree" unicode="&#xb0;" horiz-adv-x="328" 
d="M164 464q36 0 60.5 26t24.5 65t-24.5 66.5t-60.5 27.5t-60.5 -27.5t-24.5 -66.5t24.5 -65t60.5 -26zM164 428q-26 0 -49 9t-40.5 25.5t-27.5 40t-10 52.5t10 53t27.5 41t40.5 26t49 9t49 -9t40.5 -26t27.5 -41t10 -53t-10 -52.5t-27.5 -40t-40.5 -25.5t-49 -9z" />
    <glyph glyph-name="plusminus" unicode="&#xb1;" horiz-adv-x="531" 
d="M29 58h473v-58h-473v58zM502 360v-58h-206v-204h-61v204h-206v58h206v198h61v-198h206z" />
    <glyph glyph-name="two.sups" unicode="&#xb2;" 
d="M323 495v-70h-269v50l93 89q45 43 66.5 80t21.5 75t-20 58t-55 20q-6 0 -12.5 -0.5t-13.5 -1.5l-10 -39q-7 -29 -16 -39.5t-23 -10.5q-24 0 -37 24q2 25 14 44t31 32t43 19t51 6q33 0 56 -9t37.5 -23.5t21 -33t6.5 -38.5q0 -22 -7.5 -42t-23.5 -41.5t-40 -46t-58 -55.5
l-51 -47h195z" />
    <glyph glyph-name="three.sups" unicode="&#xb3;" 
d="M132 759q-4 -23 -14.5 -32.5t-24.5 -9.5q-11 0 -20 5t-14 16q6 48 41 70.5t83 22.5q56 0 90 -26.5t34 -71.5q0 -35 -20.5 -61.5t-54.5 -36.5q45 -8 69 -35t24 -69q0 -31 -12.5 -52.5t-33 -35.5t-46.5 -20.5t-54 -6.5q-59 0 -92.5 24.5t-41.5 70.5q5 15 14.5 20.5
t20.5 5.5q14 0 24 -9.5t15 -38.5l8 -36q15 -4 33 -4q45 0 68.5 22.5t23.5 62.5q0 37 -22 58t-71 21h-30v40h25q82 0 82 72q0 35 -19.5 53.5t-53.5 18.5q-5 0 -11 -0.5t-13 -1.5z" />
    <glyph glyph-name="acute" unicode="&#xb4;" horiz-adv-x="400" 
d="M217 715q16 25 29 34t27 9t26 -9t12 -29q0 -11 -6.5 -23.5t-29.5 -32.5l-119 -107l-26 19z" />
    <glyph glyph-name="uni00B5" unicode="&#xb5;" horiz-adv-x="583" 
d="M566 25q-21 -20 -40.5 -27.5t-41.5 -7.5q-45 0 -65 27t-21 72q-39 -57 -78.5 -80.5t-75.5 -23.5q-75 0 -100 68l-6 -287q-7 -6 -18 -10.5t-30 -4.5t-31.5 12t-12.5 40q0 27 5.5 50.5t10.5 48.5l30 170v190l-5 210l55 18l19 -10l-8 -88v-185q0 -37 7 -61.5t20 -39.5
t32 -21.5t42 -6.5q76 0 144 64v120l-5 208l54 20l19 -10l-7 -88v-267q0 -32 12 -46t30 -14q22 0 46 12z" />
    <glyph glyph-name="paragraph" unicode="&#xb6;" horiz-adv-x="598" 
d="M462 617q-2 -63 -2 -127.5v-130.5v-178q0 -78 0.5 -155t2.5 -155h-82q2 76 2.5 153.5t0.5 156.5v442h-58v-474q-72 0 -128 20t-94.5 54.5t-58.5 83t-20 105.5q0 58 23 105.5t66 81.5t104 52t137 18h199v-41z" />
    <glyph glyph-name="periodcentered" unicode="&#xb7;" horiz-adv-x="300" 
d="M150 259q-30 0 -50.5 21t-20.5 50q0 30 20.5 51t50.5 21t50.5 -21t20.5 -51q0 -29 -20.5 -50t-50.5 -21z" />
    <glyph glyph-name="cedilla" unicode="&#xb8;" horiz-adv-x="400" 
d="M188 -58q38 -6 65 -26t27 -56q0 -35 -28.5 -57.5t-83.5 -22.5q-22 0 -37.5 3t-25.5 6l7 31q12 -2 23 -2.5t25 -0.5q29 0 43.5 12t14.5 33q0 23 -17.5 35t-54.5 17l13 89h37z" />
    <glyph glyph-name="one.sups" unicode="&#xb9;" 
d="M315 454v-29h-249v29l90 16v295l-77 -6v37l139 32l9 -6v-352z" />
    <glyph glyph-name="ordmasculine" unicode="&#xba;" horiz-adv-x="377" 
d="M189 714q-91 0 -91 -132q0 -69 23 -100.5t68 -31.5q43 0 66.5 31.5t23.5 100.5q0 67 -23.5 99.5t-66.5 32.5zM189 749q30 0 59 -11.5t51.5 -33t36 -52.5t13.5 -70q0 -40 -13.5 -71t-35.5 -52.5t-51 -32.5t-60 -11q-32 0 -61 11.5t-51 33t-35.5 52.5t-13.5 70t13.5 70
t36 52.5t51.5 33t60 11.5z" />
    <glyph glyph-name="guillemotright" unicode="&#xbb;" horiz-adv-x="487" 
d="M255 279v-53l-205 -176l-24 27l150 176l-150 175l24 27zM457 279v-53l-205 -176l-24 27l150 176l-150 175l24 27z" />
    <glyph glyph-name="onequarter" unicode="&#xbc;" horiz-adv-x="861" 
d="M207 0l465 669l31 -25l-465 -669zM316 283v-29h-249v29l90 16v295l-77 -6v37l139 32l9 -6v-352zM650 159v173l-121 -173h121zM779 102h-64v-101h-65v101h-170v46l188 256h47v-245h64v-57z" />
    <glyph glyph-name="onehalf" unicode="&#xbd;" horiz-adv-x="861" 
d="M175 0l465 669l31 -25l-465 -669zM309 283v-29h-249v29l90 16v295l-77 -6v37l139 32l9 -6v-352zM787 71v-70h-269v50l93 89q45 43 66.5 80t21.5 75t-20 58t-55 20q-6 0 -12.5 -0.5t-13.5 -1.5l-10 -39q-7 -29 -16 -39.5t-23 -10.5q-24 0 -37 24q2 25 14 44t31 32t43 19
t51 6q33 0 56 -9t37.5 -23.5t21 -33t6.5 -38.5q0 -22 -7.5 -42t-23.5 -41.5t-40 -46t-58 -55.5l-51 -47h195z" />
    <glyph glyph-name="threequarters" unicode="&#xbe;" horiz-adv-x="861" 
d="M216 0l465 669l31 -25l-465 -669zM165 588q-4 -23 -14.5 -32.5t-24.5 -9.5q-11 0 -20 5t-14 16q6 48 41 70.5t83 22.5q56 0 90 -26.5t34 -71.5q0 -35 -20.5 -61.5t-54.5 -36.5q45 -8 69 -35t24 -69q0 -31 -12.5 -52.5t-33 -35.5t-46.5 -20.5t-54 -6.5q-59 0 -92.5 24.5
t-41.5 70.5q5 15 14.5 20.5t20.5 5.5q14 0 24 -9.5t15 -38.5l8 -36q15 -4 33 -4q45 0 68.5 22.5t23.5 62.5q0 37 -22 58t-71 21h-30v40h25q82 0 82 72q0 35 -19.5 53.5t-53.5 18.5q-5 0 -11 -0.5t-13 -1.5zM659 159v173l-121 -173h121zM788 102h-64v-101h-65v101h-170v46
l188 256h47v-245h64v-57z" />
    <glyph glyph-name="questiondown" unicode="&#xbf;" horiz-adv-x="416" 
d="M267 362q-27 0 -46 19.5t-19 45.5t19 45.5t46 19.5t45.5 -19.5t18.5 -45.5t-18.5 -45.5t-45.5 -19.5zM278 -98q44 -8 58 -21.5t14 -32.5q0 -23 -14 -35.5t-42 -19.5q-31 3 -70.5 20t-74.5 46t-59 69t-24 89q0 94 100 126l34 11q16 5 25 9.5t14 10.5t6.5 14.5t1.5 20.5v55
h39l12 -42q10 -30 13 -45.5t3 -25.5q0 -22 -17.5 -36.5t-62.5 -28.5l-57 -18q-56 -18 -56 -69q0 -19 7 -37.5t18 -36.5z" />
    <glyph glyph-name="Agrave" unicode="&#xc0;" horiz-adv-x="664" 
d="M408 264l-99 293l-100 -293h199zM653 41v-41h-272v41l98 12l-55 164h-231l-56 -163l97 -13v-41h-229v41l85 13l212 615h63l213 -619zM389 720l-125 67q-29 16 -40 29t-11 27q0 15 11 24.5t27 9.5q13 0 27 -8.5t36 -29.5l94 -94z" />
    <glyph glyph-name="Aacute" unicode="&#xc1;" horiz-adv-x="664" 
d="M408 264l-99 293l-100 -293h199zM653 41v-41h-272v41l98 12l-55 164h-231l-56 -163l97 -13v-41h-229v41l85 13l212 615h63l213 -619zM349 839q22 21 36 29.5t27 8.5q16 0 27 -9.5t11 -24.5q0 -14 -11 -27t-40 -29l-125 -67l-19 25z" />
    <glyph glyph-name="Acircumflex" unicode="&#xc2;" horiz-adv-x="664" 
d="M408 264l-99 293l-100 -293h199zM653 41v-41h-272v41l98 12l-55 164h-231l-56 -163l97 -13v-41h-229v41l85 13l212 615h63l213 -619zM450 710l-119 72l-119 -72l-20 25l122 115h34l122 -115z" />
    <glyph glyph-name="Atilde" unicode="&#xc3;" horiz-adv-x="664" 
d="M408 264l-99 293l-100 -293h199zM653 41v-41h-272v41l98 12l-55 164h-231l-56 -163l97 -13v-41h-229v41l85 13l212 615h63l213 -619zM401 723q-26 0 -46 9.5t-42 29.5q-21 18 -35 26.5t-30 8.5q-20 0 -34 -15t-14 -50h-34q-1 5 -1.5 11t-0.5 14q0 47 23.5 71t67.5 24
q27 0 47.5 -9t43.5 -29q20 -18 34 -26.5t30 -8.5q20 0 34 15t14 49h34q1 -5 1.5 -9.5t0.5 -10.5q0 -48 -24.5 -74t-68.5 -26z" />
    <glyph glyph-name="Adieresis" unicode="&#xc4;" horiz-adv-x="664" 
d="M408 264l-99 293l-100 -293h199zM653 41v-41h-272v41l98 12l-55 164h-231l-56 -163l97 -13v-41h-229v41l85 13l212 615h63l213 -619zM219 737q-23 0 -40.5 16t-17.5 39q0 24 17.5 39.5t40.5 15.5q24 0 40.5 -15.5t16.5 -39.5q0 -23 -16.5 -39t-40.5 -16zM442 737
q-24 0 -40.5 16t-16.5 39q0 24 16.5 39.5t40.5 15.5q23 0 40.5 -15.5t17.5 -39.5q0 -23 -17.5 -39t-40.5 -16z" />
    <glyph glyph-name="Aring" unicode="&#xc5;" horiz-adv-x="664" 
d="M408 264l-99 293l-100 -293h199zM653 41v-41h-272v41l98 12l-55 164h-231l-56 -163l97 -13v-41h-229v41l85 13l212 615h63l213 -619zM331 722q-18 0 -35.5 6t-31 18t-21.5 29t-8 39t8 39t21.5 29t31 18.5t35.5 6.5t35.5 -6t31 -18t21.5 -29.5t8 -39.5q0 -21 -8 -38
t-21.5 -29t-31 -18.5t-35.5 -6.5zM331 757q25 0 38.5 18t13.5 39q0 22 -13 39t-39 17q-25 0 -38.5 -17t-13.5 -39q0 -21 13 -39t39 -18z" />
    <glyph glyph-name="AE" unicode="&#xc6;" horiz-adv-x="920" 
d="M277 295h178v318h-7zM886 178l-7 -178h-511v41l85 10q1 48 1.5 96.5t0.5 101.5h-203l-105 -195l87 -13v-41h-229v41l83 11l307 567l-77 9v41h541l7 -177h-58l-22 127h-234q-2 -63 -2 -126v-128h148l14 95h46v-236h-46l-13 94h-149v-137.5t2 -130.5h254l22 128h58z" />
    <glyph glyph-name="Ccedilla" unicode="&#xc7;" horiz-adv-x="631" 
d="M592 178l-4 -145q-47 -26 -97.5 -37t-104.5 -11q-76 0 -138.5 25.5t-107 72t-69 111t-24.5 141.5q0 76 25.5 140t70.5 110.5t107 72.5t135 26q42 0 92 -9.5t101 -38.5l4 -145h-62l-20 118q-26 14 -51 19.5t-51 5.5q-50 0 -94 -19.5t-77 -57t-52 -93.5t-19 -129
q0 -74 17.5 -130t48.5 -93.5t74.5 -57t94.5 -19.5q29 0 59.5 6.5t59.5 20.5l20 116h62zM382 -58q38 -6 65 -26t27 -56q0 -35 -28.5 -57.5t-83.5 -22.5q-22 0 -37.5 3t-25.5 6l7 31q12 -2 23 -2.5t25 -0.5q29 0 43.5 12t14.5 33q0 23 -17.5 35t-54.5 17l13 89h37z" />
    <glyph glyph-name="Egrave" unicode="&#xc8;" horiz-adv-x="603" 
d="M569 178l-7 -178h-518v41l92 11q2 63 2 127.5v130.5v49v129t-2 129l-92 11v41h498l7 -177h-57l-22 127h-235q-2 -63 -2 -126v-128h147l14 95h46v-236h-46l-13 94h-148v-137.5t2 -130.5h255l22 128h57zM360 720l-125 67q-29 16 -40 29t-11 27q0 15 11 24.5t27 9.5
q13 0 27 -8.5t36 -29.5l94 -94z" />
    <glyph glyph-name="Eacute" unicode="&#xc9;" horiz-adv-x="603" 
d="M569 178l-7 -178h-518v41l92 11q2 63 2 127.5v130.5v49v129t-2 129l-92 11v41h498l7 -177h-57l-22 127h-235q-2 -63 -2 -126v-128h147l14 95h46v-236h-46l-13 94h-148v-137.5t2 -130.5h255l22 128h57zM357 839q22 21 36 29.5t27 8.5q16 0 27 -9.5t11 -24.5q0 -14 -11 -27
t-40 -29l-125 -67l-19 25z" />
    <glyph glyph-name="Ecircumflex" unicode="&#xca;" horiz-adv-x="603" 
d="M569 178l-7 -178h-518v41l92 11q2 63 2 127.5v130.5v49v129t-2 129l-92 11v41h498l7 -177h-57l-22 127h-235q-2 -63 -2 -126v-128h147l14 95h46v-236h-46l-13 94h-148v-137.5t2 -130.5h255l22 128h57zM460 728l-119 72l-119 -72l-20 25l122 115h34l122 -115z" />
    <glyph glyph-name="Edieresis" unicode="&#xcb;" horiz-adv-x="603" 
d="M569 178l-7 -178h-518v41l92 11q2 63 2 127.5v130.5v49v129t-2 129l-92 11v41h498l7 -177h-57l-22 127h-235q-2 -63 -2 -126v-128h147l14 95h46v-236h-46l-13 94h-148v-137.5t2 -130.5h255l22 128h57zM213 737q-23 0 -40.5 16t-17.5 39q0 24 17.5 39.5t40.5 15.5
q24 0 40.5 -15.5t16.5 -39.5q0 -23 -16.5 -39t-40.5 -16zM436 737q-24 0 -40.5 16t-16.5 39q0 24 16.5 39.5t40.5 15.5q23 0 40.5 -15.5t17.5 -39.5q0 -23 -17.5 -39t-40.5 -16z" />
    <glyph glyph-name="Igrave" unicode="&#xcc;" horiz-adv-x="371" 
d="M235 617q-2 -63 -2 -127.5v-130.5v-49v-129t2 -129l92 -11v-41h-283v41l92 11q2 63 2 127.5v130.5v49v129t-2 129l-92 11v41h283v-41zM244 720l-125 67q-29 16 -40 29t-11 27q0 15 11 24.5t27 9.5q13 0 27 -8.5t36 -29.5l94 -94z" />
    <glyph glyph-name="Iacute" unicode="&#xcd;" horiz-adv-x="371" 
d="M235 617q-2 -63 -2 -127.5v-130.5v-49v-129t2 -129l92 -11v-41h-283v41l92 11q2 63 2 127.5v130.5v49v129t-2 129l-92 11v41h283v-41zM221 839q22 21 36 29.5t27 8.5q16 0 27 -9.5t11 -24.5q0 -14 -11 -27t-40 -29l-125 -67l-19 25z" />
    <glyph glyph-name="Icircumflex" unicode="&#xce;" horiz-adv-x="371" 
d="M235 617q-2 -63 -2 -127.5v-130.5v-49v-129t2 -129l92 -11v-41h-283v41l92 11q2 63 2 127.5v130.5v49v129t-2 129l-92 11v41h283v-41zM304 728l-119 72l-119 -72l-20 25l122 115h34l122 -115z" />
    <glyph glyph-name="Idieresis" unicode="&#xcf;" horiz-adv-x="371" 
d="M235 617q-2 -63 -2 -127.5v-130.5v-49v-129t2 -129l92 -11v-41h-283v41l92 11q2 63 2 127.5v130.5v49v129t-2 129l-92 11v41h283v-41zM74 737q-23 0 -40.5 16t-17.5 39q0 24 17.5 39.5t40.5 15.5q24 0 40.5 -15.5t16.5 -39.5q0 -23 -16.5 -39t-40.5 -16zM297 737
q-24 0 -40.5 16t-16.5 39q0 24 16.5 39.5t40.5 15.5q23 0 40.5 -15.5t17.5 -39.5q0 -23 -17.5 -39t-40.5 -16z" />
    <glyph glyph-name="Eth" unicode="&#xd0;" horiz-adv-x="710" 
d="M324 47q52 0 94.5 18.5t72.5 55t46.5 90t16.5 124.5q0 70 -16.5 124t-47 90.5t-73 55t-94.5 18.5h-88q-2 -63 -2 -127v-130h153v-47h-153v-139t2 -133h89zM339 669q69 0 128.5 -22t103 -64t68 -104.5t24.5 -143.5t-27 -143.5t-74 -105t-109.5 -64.5t-132.5 -22h-276v41
l92 11q2 63 2 129v138h-94v47h94v125.5t-2 125.5l-92 11v41h295z" />
    <glyph glyph-name="Ntilde" unicode="&#xd1;" horiz-adv-x="735" 
d="M695 628l-85 -13v-625h-35l-400 548v-483l106 -14v-41h-242v41l85 12v555l-9 12l-71 8v41h154l361 -495v441l-105 13v41h241v-41zM446 714q-26 0 -46 9.5t-42 29.5q-21 18 -35 26.5t-30 8.5q-20 0 -34 -15t-14 -50h-34q-1 5 -1.5 11t-0.5 14q0 47 23.5 71t67.5 24
q27 0 47.5 -9t43.5 -29q20 -18 34 -26.5t30 -8.5q20 0 34 15t14 49h34q1 -5 1.5 -9.5t0.5 -10.5q0 -48 -24.5 -74t-68.5 -26z" />
    <glyph glyph-name="Ograve" unicode="&#xd2;" horiz-adv-x="707" 
d="M156 335q0 -57 11.5 -111t35.5 -96t61.5 -67.5t89.5 -25.5t89 25.5t61 67.5t35 96t11 111q0 56 -11 110t-35 96t-61 67.5t-89 25.5t-89.5 -25.5t-61.5 -67.5t-35.5 -96t-11.5 -110zM354 684q58 0 113 -22.5t98 -66.5t69 -109.5t26 -150.5q0 -83 -26 -148t-69 -110
t-98 -68.5t-113 -23.5q-59 0 -114 22.5t-98 66.5t-69 109.5t-26 151.5q0 82 26 147t69 110t98.5 68.5t113.5 23.5zM411 720l-125 67q-29 16 -40 29t-11 27q0 15 11 24.5t27 9.5q13 0 27 -8.5t36 -29.5l94 -94z" />
    <glyph glyph-name="Oacute" unicode="&#xd3;" horiz-adv-x="707" 
d="M156 335q0 -57 11.5 -111t35.5 -96t61.5 -67.5t89.5 -25.5t89 25.5t61 67.5t35 96t11 111q0 56 -11 110t-35 96t-61 67.5t-89 25.5t-89.5 -25.5t-61.5 -67.5t-35.5 -96t-11.5 -110zM354 684q58 0 113 -22.5t98 -66.5t69 -109.5t26 -150.5q0 -83 -26 -148t-69 -110
t-98 -68.5t-113 -23.5q-59 0 -114 22.5t-98 66.5t-69 109.5t-26 151.5q0 82 26 147t69 110t98.5 68.5t113.5 23.5zM390 839q22 21 36 29.5t27 8.5q16 0 27 -9.5t11 -24.5q0 -14 -11 -27t-40 -29l-125 -67l-19 25z" />
    <glyph glyph-name="Ocircumflex" unicode="&#xd4;" horiz-adv-x="707" 
d="M156 335q0 -57 11.5 -111t35.5 -96t61.5 -67.5t89.5 -25.5t89 25.5t61 67.5t35 96t11 111q0 56 -11 110t-35 96t-61 67.5t-89 25.5t-89.5 -25.5t-61.5 -67.5t-35.5 -96t-11.5 -110zM354 684q58 0 113 -22.5t98 -66.5t69 -109.5t26 -150.5q0 -83 -26 -148t-69 -110
t-98 -68.5t-113 -23.5q-59 0 -114 22.5t-98 66.5t-69 109.5t-26 151.5q0 82 26 147t69 110t98.5 68.5t113.5 23.5zM472 728l-119 72l-119 -72l-20 25l122 115h34l122 -115z" />
    <glyph glyph-name="Otilde" unicode="&#xd5;" horiz-adv-x="707" 
d="M156 335q0 -57 11.5 -111t35.5 -96t61.5 -67.5t89.5 -25.5t89 25.5t61 67.5t35 96t11 111q0 56 -11 110t-35 96t-61 67.5t-89 25.5t-89.5 -25.5t-61.5 -67.5t-35.5 -96t-11.5 -110zM354 684q58 0 113 -22.5t98 -66.5t69 -109.5t26 -150.5q0 -83 -26 -148t-69 -110
t-98 -68.5t-113 -23.5q-59 0 -114 22.5t-98 66.5t-69 109.5t-26 151.5q0 82 26 147t69 110t98.5 68.5t113.5 23.5zM423 723q-26 0 -46 9.5t-42 29.5q-21 18 -35 26.5t-30 8.5q-20 0 -34 -15t-14 -50h-34q-1 5 -1.5 11t-0.5 14q0 47 23.5 71t67.5 24q27 0 47.5 -9t43.5 -29
q20 -18 34 -26.5t30 -8.5q20 0 34 15t14 49h34q1 -5 1.5 -9.5t0.5 -10.5q0 -48 -24.5 -74t-68.5 -26z" />
    <glyph glyph-name="Odieresis" unicode="&#xd6;" horiz-adv-x="707" 
d="M156 335q0 -57 11.5 -111t35.5 -96t61.5 -67.5t89.5 -25.5t89 25.5t61 67.5t35 96t11 111q0 56 -11 110t-35 96t-61 67.5t-89 25.5t-89.5 -25.5t-61.5 -67.5t-35.5 -96t-11.5 -110zM354 684q58 0 113 -22.5t98 -66.5t69 -109.5t26 -150.5q0 -83 -26 -148t-69 -110
t-98 -68.5t-113 -23.5q-59 0 -114 22.5t-98 66.5t-69 109.5t-26 151.5q0 82 26 147t69 110t98.5 68.5t113.5 23.5zM241 737q-23 0 -40.5 16t-17.5 39q0 24 17.5 39.5t40.5 15.5q24 0 40.5 -15.5t16.5 -39.5q0 -23 -16.5 -39t-40.5 -16zM464 737q-24 0 -40.5 16t-16.5 39
q0 24 16.5 39.5t40.5 15.5q23 0 40.5 -15.5t17.5 -39.5q0 -23 -17.5 -39t-40.5 -16z" />
    <glyph glyph-name="multiply" unicode="&#xd7;" horiz-adv-x="531" 
d="M307 330l181 -182l-41 -41l-181 182l-182 -182l-41 41l182 182l-182 181l41 41l182 -181l181 181l41 -41z" />
    <glyph glyph-name="Oslash" unicode="&#xd8;" horiz-adv-x="707" 
d="M209 119q24 -38 60 -61t85 -23q52 0 89 25.5t61 67.5t35 96t11 111q0 45 -7 87.5t-21 80.5zM495 556q-24 35 -58.5 56.5t-82.5 21.5q-52 0 -89.5 -25.5t-61.5 -67.5t-35.5 -96t-11.5 -110q0 -43 6 -84.5t20 -77.5zM581 577q36 -44 57.5 -104t21.5 -138q0 -83 -26 -148
t-69 -110t-98 -68.5t-113 -23.5q-53 0 -103 18.5t-92 54.5l-64 -79l-43 34l69 85q-34 44 -54 103t-20 134q0 82 26 147t69 110t98.5 68.5t113.5 23.5q51 0 99.5 -17t89.5 -52l61 75l42 -34z" />
    <glyph glyph-name="Ugrave" unicode="&#xd9;" horiz-adv-x="727" 
d="M693 628l-87 -11v-343q0 -79 -18 -134t-50 -89.5t-76 -50t-95 -15.5q-54 0 -99 15.5t-77 48t-49.5 83t-17.5 120.5v108v129t-2 129l-83 10v41h283v-41l-102 -12q-2 -63 -2 -126.5v-129.5v-79q0 -64 11.5 -107t33 -69.5t52.5 -37.5t69 -11q42 0 74 13t53.5 41.5t32.5 75
t11 112.5v317l-102 13v41h240v-41zM423 711l-125 67q-29 16 -40 29t-11 27q0 15 11 24.5t27 9.5q13 0 27 -8.5t36 -29.5l94 -94z" />
    <glyph glyph-name="Uacute" unicode="&#xda;" horiz-adv-x="727" 
d="M693 628l-87 -11v-343q0 -79 -18 -134t-50 -89.5t-76 -50t-95 -15.5q-54 0 -99 15.5t-77 48t-49.5 83t-17.5 120.5v108v129t-2 129l-83 10v41h283v-41l-102 -12q-2 -63 -2 -126.5v-129.5v-79q0 -64 11.5 -107t33 -69.5t52.5 -37.5t69 -11q42 0 74 13t53.5 41.5t32.5 75
t11 112.5v317l-102 13v41h240v-41zM410 830q22 21 36 29.5t27 8.5q16 0 27 -9.5t11 -24.5q0 -14 -11 -27t-40 -29l-125 -67l-19 25z" />
    <glyph glyph-name="Ucircumflex" unicode="&#xdb;" horiz-adv-x="727" 
d="M693 628l-87 -11v-343q0 -79 -18 -134t-50 -89.5t-76 -50t-95 -15.5q-54 0 -99 15.5t-77 48t-49.5 83t-17.5 120.5v108v129t-2 129l-83 10v41h283v-41l-102 -12q-2 -63 -2 -126.5v-129.5v-79q0 -64 11.5 -107t33 -69.5t52.5 -37.5t69 -11q42 0 74 13t53.5 41.5t32.5 75
t11 112.5v317l-102 13v41h240v-41zM499 719l-119 72l-119 -72l-20 25l122 115h34l122 -115z" />
    <glyph glyph-name="Udieresis" unicode="&#xdc;" horiz-adv-x="727" 
d="M693 628l-87 -11v-343q0 -79 -18 -134t-50 -89.5t-76 -50t-95 -15.5q-54 0 -99 15.5t-77 48t-49.5 83t-17.5 120.5v108v129t-2 129l-83 10v41h283v-41l-102 -12q-2 -63 -2 -126.5v-129.5v-79q0 -64 11.5 -107t33 -69.5t52.5 -37.5t69 -11q42 0 74 13t53.5 41.5t32.5 75
t11 112.5v317l-102 13v41h240v-41zM272 737q-23 0 -40.5 16t-17.5 39q0 24 17.5 39.5t40.5 15.5q24 0 40.5 -15.5t16.5 -39.5q0 -23 -16.5 -39t-40.5 -16zM495 737q-24 0 -40.5 16t-16.5 39q0 24 16.5 39.5t40.5 15.5q23 0 40.5 -15.5t17.5 -39.5q0 -23 -17.5 -39t-40.5 -16
z" />
    <glyph glyph-name="Yacute" unicode="&#xdd;" horiz-adv-x="633" 
d="M365 263v-28v-80t2 -103l102 -11v-41h-302v41l102 11q2 54 2 102.5v80.5v24l-177 360l-79 9v41h282v-41l-95 -11l139 -303l143 302l-90 12v41h229v-41l-88 -13zM374 830q22 21 36 29.5t27 8.5q16 0 27 -9.5t11 -24.5q0 -14 -11 -27t-40 -29l-125 -67l-19 25z" />
    <glyph glyph-name="Thorn" unicode="&#xde;" horiz-adv-x="611" 
d="M233 488v-127v-51v-109h84q88 0 129.5 41t41.5 106q0 68 -41.5 104t-132.5 36h-81zM233 154q1 -26 1 -51t1 -51l97 -11v-41h-288v41l92 11q2 63 2 127.5v130.5v49v129t-2 129l-92 11v41h288v-41l-97 -11q-1 -20 -1 -41v-41h92q131 0 195.5 -52t64.5 -137
q0 -36 -12.5 -70.5t-44.5 -61.5t-87 -43.5t-141 -16.5h-68z" />
    <glyph glyph-name="germandbls" unicode="&#xdf;" horiz-adv-x="592" 
d="M107 419q0 78 10 128.5t24 79.5q25 55 77 88.5t120 33.5q39 0 71 -10t55 -28t35.5 -43t12.5 -55q0 -41 -22.5 -75.5t-63.5 -63.5q-33 -24 -45 -47t-12 -46q0 -15 4 -26.5t13.5 -21.5t24.5 -20t36 -23q36 -23 60 -41.5t38.5 -37t20 -38.5t5.5 -44q0 -65 -41.5 -104.5
t-128.5 -39.5q-38 0 -71.5 7.5t-68.5 20.5l-4 120h49l24 -90q20 -8 36 -10t30 -2q51 0 72.5 21.5t21.5 59.5q0 13 -3 25t-12.5 24.5t-26.5 26t-45 30.5q-25 14 -44.5 27.5t-33 29.5t-21 35.5t-7.5 46.5q0 38 16 69t52 60q34 28 49 53t15 61q0 48 -25.5 76t-80.5 28
q-50 0 -77.5 -22.5t-41.5 -64.5q-5 -15 -7.5 -31.5t-4 -38t-1.5 -49.5v-66v-222q0 -105 3 -210h-169v36l80 14q1 41 1.5 80.5t0.5 79.5v209z" />
    <glyph glyph-name="agrave" unicode="&#xe0;" horiz-adv-x="509" 
d="M324 260q-26 -8 -51 -16t-41 -14q-33 -13 -52 -26.5t-29.5 -26.5t-13.5 -26t-3 -24q0 -20 5.5 -32t14.5 -21q22 -23 60 -23q12 0 23 3t23 9.5t27 17t37 25.5v154zM503 42q-17 -32 -37 -42t-44 -10q-43 0 -66.5 21t-29.5 56q-41 -41 -72 -61.5t-75 -20.5q-27 0 -51.5 8
t-43 24t-29 40t-10.5 55q0 21 7 40.5t25.5 38.5t50.5 37t83 36q23 8 53 17t60 16v27q0 36 -5.5 59.5t-17 37t-29 19t-42.5 5.5q-11 0 -23.5 -1t-27.5 -5l-20 -69q-14 -48 -54 -48q-21 0 -33 11.5t-14 31.5q14 57 66 91.5t129 34.5q79 0 117 -39.5t38 -134.5v-216
q0 -59 33 -59q12 0 21.5 5.5t15.5 11.5l5 5zM296 557l-120 107q-23 20 -29.5 32.5t-6.5 23.5q0 20 12 29t26 9t27.5 -9t28.5 -34l87 -139z" />
    <glyph glyph-name="aacute" unicode="&#xe1;" horiz-adv-x="509" 
d="M324 260q-26 -8 -51 -16t-41 -14q-33 -13 -52 -26.5t-29.5 -26.5t-13.5 -26t-3 -24q0 -20 5.5 -32t14.5 -21q22 -23 60 -23q12 0 23 3t23 9.5t27 17t37 25.5v154zM503 42q-17 -32 -37 -42t-44 -10q-43 0 -66.5 21t-29.5 56q-41 -41 -72 -61.5t-75 -20.5q-27 0 -51.5 8
t-43 24t-29 40t-10.5 55q0 21 7 40.5t25.5 38.5t50.5 37t83 36q23 8 53 17t60 16v27q0 36 -5.5 59.5t-17 37t-29 19t-42.5 5.5q-11 0 -23.5 -1t-27.5 -5l-20 -69q-14 -48 -54 -48q-21 0 -33 11.5t-14 31.5q14 57 66 91.5t129 34.5q79 0 117 -39.5t38 -134.5v-216
q0 -59 33 -59q12 0 21.5 5.5t15.5 11.5l5 5zM296 715q16 25 29 34t27 9t26 -9t12 -29q0 -11 -6.5 -23.5t-29.5 -32.5l-119 -107l-26 19z" />
    <glyph glyph-name="acircumflex" unicode="&#xe2;" horiz-adv-x="509" 
d="M324 260q-26 -8 -51 -16t-41 -14q-33 -13 -52 -26.5t-29.5 -26.5t-13.5 -26t-3 -24q0 -20 5.5 -32t14.5 -21q22 -23 60 -23q12 0 23 3t23 9.5t27 17t37 25.5v154zM503 42q-17 -32 -37 -42t-44 -10q-43 0 -66.5 21t-29.5 56q-41 -41 -72 -61.5t-75 -20.5q-27 0 -51.5 8
t-43 24t-29 40t-10.5 55q0 21 7 40.5t25.5 38.5t50.5 37t83 36q23 8 53 17t60 16v27q0 36 -5.5 59.5t-17 37t-29 19t-42.5 5.5q-11 0 -23.5 -1t-27.5 -5l-20 -69q-14 -48 -54 -48q-21 0 -33 11.5t-14 31.5q14 57 66 91.5t129 34.5q79 0 117 -39.5t38 -134.5v-216
q0 -59 33 -59q12 0 21.5 5.5t15.5 11.5l5 5zM383 556l-126 107l-126 -107l-23 22l132 176h34l132 -176z" />
    <glyph glyph-name="atilde" unicode="&#xe3;" horiz-adv-x="509" 
d="M324 260q-26 -8 -51 -16t-41 -14q-33 -13 -52 -26.5t-29.5 -26.5t-13.5 -26t-3 -24q0 -20 5.5 -32t14.5 -21q22 -23 60 -23q12 0 23 3t23 9.5t27 17t37 25.5v154zM503 42q-17 -32 -37 -42t-44 -10q-43 0 -66.5 21t-29.5 56q-41 -41 -72 -61.5t-75 -20.5q-27 0 -51.5 8
t-43 24t-29 40t-10.5 55q0 21 7 40.5t25.5 38.5t50.5 37t83 36q23 8 53 17t60 16v27q0 36 -5.5 59.5t-17 37t-29 19t-42.5 5.5q-11 0 -23.5 -1t-27.5 -5l-20 -69q-14 -48 -54 -48q-21 0 -33 11.5t-14 31.5q14 57 66 91.5t129 34.5q79 0 117 -39.5t38 -134.5v-216
q0 -59 33 -59q12 0 21.5 5.5t15.5 11.5l5 5zM310 573q-23 0 -43.5 11t-42.5 33q-20 20 -34 29.5t-30 9.5q-21 0 -34.5 -16.5t-13.5 -54.5h-34q-1 5 -1.5 11.5t-0.5 11.5q0 51 28 80.5t68 29.5q23 0 43.5 -11t42.5 -32q20 -20 34.5 -29.5t30.5 -9.5q20 0 33.5 16.5t13.5 54.5
h34q1 -5 1.5 -10.5t0.5 -13.5q0 -51 -28 -80.5t-68 -29.5z" />
    <glyph glyph-name="adieresis" unicode="&#xe4;" horiz-adv-x="509" 
d="M324 260q-26 -8 -51 -16t-41 -14q-33 -13 -52 -26.5t-29.5 -26.5t-13.5 -26t-3 -24q0 -20 5.5 -32t14.5 -21q22 -23 60 -23q12 0 23 3t23 9.5t27 17t37 25.5v154zM503 42q-17 -32 -37 -42t-44 -10q-43 0 -66.5 21t-29.5 56q-41 -41 -72 -61.5t-75 -20.5q-27 0 -51.5 8
t-43 24t-29 40t-10.5 55q0 21 7 40.5t25.5 38.5t50.5 37t83 36q23 8 53 17t60 16v27q0 36 -5.5 59.5t-17 37t-29 19t-42.5 5.5q-11 0 -23.5 -1t-27.5 -5l-20 -69q-14 -48 -54 -48q-21 0 -33 11.5t-14 31.5q14 57 66 91.5t129 34.5q79 0 117 -39.5t38 -134.5v-216
q0 -59 33 -59q12 0 21.5 5.5t15.5 11.5l5 5zM351 586q-24 0 -41 15.5t-17 39.5t17 39.5t41 15.5q23 0 40 -15.5t17 -39.5t-17 -39.5t-40 -15.5zM149 586q-23 0 -40 15.5t-17 39.5t17 39.5t40 15.5q24 0 41 -15.5t17 -39.5t-17 -39.5t-41 -15.5z" />
    <glyph glyph-name="aring" unicode="&#xe5;" horiz-adv-x="509" 
d="M324 260q-26 -8 -51 -16t-41 -14q-33 -13 -52 -26.5t-29.5 -26.5t-13.5 -26t-3 -24q0 -20 5.5 -32t14.5 -21q22 -23 60 -23q12 0 23 3t23 9.5t27 17t37 25.5v154zM503 42q-17 -32 -37 -42t-44 -10q-43 0 -66.5 21t-29.5 56q-41 -41 -72 -61.5t-75 -20.5q-27 0 -51.5 8
t-43 24t-29 40t-10.5 55q0 21 7 40.5t25.5 38.5t50.5 37t83 36q23 8 53 17t60 16v27q0 36 -5.5 59.5t-17 37t-29 19t-42.5 5.5q-11 0 -23.5 -1t-27.5 -5l-20 -69q-14 -48 -54 -48q-21 0 -33 11.5t-14 31.5q14 57 66 91.5t129 34.5q79 0 117 -39.5t38 -134.5v-216
q0 -59 33 -59q12 0 21.5 5.5t15.5 11.5l5 5zM257 579q27 0 42 19.5t15 42.5t-14.5 42.5t-42.5 19.5q-27 0 -42 -19.5t-15 -42.5t14.5 -42.5t42.5 -19.5zM257 540q-20 0 -39 6.5t-33.5 19.5t-23.5 32t-9 43t9 42.5t23.5 31.5t33.5 20t39 7t39 -6.5t33.5 -19.5t23.5 -31.5
t9 -43.5q0 -24 -9 -42.5t-23.5 -31.5t-33.5 -20t-39 -7z" />
    <glyph glyph-name="ae" unicode="&#xe6;" horiz-adv-x="782" 
d="M214 51q14 0 26.5 2.5t26.5 9.5t31.5 19t43.5 31q-22 55 -22 123v12t1 11q-26 -7 -49.5 -15t-39.5 -14q-33 -13 -52 -26.5t-29.5 -26.5t-13.5 -26t-3 -24q0 -20 5.5 -32t14.5 -21q22 -23 60 -23zM593 285q36 0 48 14.5t12 37.5q0 21 -8.5 40.5t-23 34.5t-34.5 24t-44 9
q-21 0 -42.5 -8.5t-40 -27.5t-32 -49.5t-17.5 -74.5h182zM409 243q1 -92 45 -142.5t118 -50.5q48 0 80 19t59 51l23 -19q-27 -54 -75 -85t-117 -31q-62 0 -108.5 25t-75.5 73q-31 -30 -54.5 -49t-44 -30t-39.5 -15t-41 -4q-27 0 -51.5 8t-43 24t-29 40t-10.5 55q0 21 7 40.5
t25.5 38.5t50.5 37t83 36q23 8 53 17t60 17v26q0 36 -5.5 59.5t-17 37t-28.5 19t-40 5.5q-12 0 -25.5 -1t-28.5 -5l-20 -69q-14 -48 -54 -48q-21 0 -33 11.5t-14 31.5q14 57 66 91.5t129 34.5q47 0 82.5 -18t52.5 -60q32 36 73 57t87 21q40 0 74 -13t59.5 -38t40 -61
t14.5 -81q0 -17 -2 -31t-5 -24h-320z" />
    <glyph glyph-name="ccedilla" unicode="&#xe7;" horiz-adv-x="488" 
d="M458 114q-21 -63 -68.5 -96t-118.5 -33q-51 0 -92.5 17.5t-71 50t-45 79t-15.5 104.5q0 59 19 106.5t51.5 80.5t74 50.5t86.5 17.5q34 0 64 -10t53.5 -27.5t39 -41t20.5 -51.5q-7 -38 -46 -38q-26 0 -38 13.5t-17 34.5l-18 66q-14 5 -28 6.5t-26 1.5q-64 0 -105.5 -51
t-41.5 -148q0 -95 44.5 -145.5t114.5 -50.5q44 0 80 20t59 57zM279 -58q38 -6 65 -26t27 -56q0 -35 -28.5 -57.5t-83.5 -22.5q-22 0 -37.5 3t-25.5 6l7 31q12 -2 23 -2.5t25 -0.5q29 0 43.5 12t14.5 33q0 23 -17.5 35t-54.5 17l13 89h37z" />
    <glyph glyph-name="egrave" unicode="&#xe8;" horiz-adv-x="510" 
d="M321 285q36 0 47.5 15t11.5 37q0 21 -8.5 40.5t-23 34.5t-34.5 24t-43 9q-21 0 -42.5 -8.5t-40 -28t-32 -50t-17.5 -73.5h182zM137 243q2 -93 45.5 -143t116.5 -50q48 0 80 19t59 51l24 -19q-28 -54 -75.5 -85t-116.5 -31q-51 0 -92 17t-70 49.5t-45 78.5t-16 103
t18.5 104.5t50 81.5t73 53t88.5 19q39 0 73 -13t59 -38t39.5 -61t14.5 -81q0 -17 -2 -31t-5 -24h-319zM295 557l-120 107q-23 20 -29.5 32.5t-6.5 23.5q0 20 12 29t26 9t27.5 -9t28.5 -34l87 -139z" />
    <glyph glyph-name="eacute" unicode="&#xe9;" horiz-adv-x="510" 
d="M321 285q36 0 47.5 15t11.5 37q0 21 -8.5 40.5t-23 34.5t-34.5 24t-43 9q-21 0 -42.5 -8.5t-40 -28t-32 -50t-17.5 -73.5h182zM137 243q2 -93 45.5 -143t116.5 -50q48 0 80 19t59 51l24 -19q-28 -54 -75.5 -85t-116.5 -31q-51 0 -92 17t-70 49.5t-45 78.5t-16 103
t18.5 104.5t50 81.5t73 53t88.5 19q39 0 73 -13t59 -38t39.5 -61t14.5 -81q0 -17 -2 -31t-5 -24h-319zM302 715q16 25 29 34t27 9t26 -9t12 -29q0 -11 -6.5 -23.5t-29.5 -32.5l-119 -107l-26 19z" />
    <glyph glyph-name="ecircumflex" unicode="&#xea;" horiz-adv-x="510" 
d="M321 285q36 0 47.5 15t11.5 37q0 21 -8.5 40.5t-23 34.5t-34.5 24t-43 9q-21 0 -42.5 -8.5t-40 -28t-32 -50t-17.5 -73.5h182zM137 243q2 -93 45.5 -143t116.5 -50q48 0 80 19t59 51l24 -19q-28 -54 -75.5 -85t-116.5 -31q-51 0 -92 17t-70 49.5t-45 78.5t-16 103
t18.5 104.5t50 81.5t73 53t88.5 19q39 0 73 -13t59 -38t39.5 -61t14.5 -81q0 -17 -2 -31t-5 -24h-319zM391 556l-126 107l-126 -107l-23 22l132 176h34l132 -176z" />
    <glyph glyph-name="edieresis" unicode="&#xeb;" horiz-adv-x="510" 
d="M321 285q36 0 47.5 15t11.5 37q0 21 -8.5 40.5t-23 34.5t-34.5 24t-43 9q-21 0 -42.5 -8.5t-40 -28t-32 -50t-17.5 -73.5h182zM137 243q2 -93 45.5 -143t116.5 -50q48 0 80 19t59 51l24 -19q-28 -54 -75.5 -85t-116.5 -31q-51 0 -92 17t-70 49.5t-45 78.5t-16 103
t18.5 104.5t50 81.5t73 53t88.5 19q39 0 73 -13t59 -38t39.5 -61t14.5 -81q0 -17 -2 -31t-5 -24h-319zM370 586q-24 0 -41 15.5t-17 39.5t17 39.5t41 15.5q23 0 40 -15.5t17 -39.5t-17 -39.5t-40 -15.5zM168 586q-23 0 -40 15.5t-17 39.5t17 39.5t40 15.5q24 0 41 -15.5
t17 -39.5t-17 -39.5t-41 -15.5z" />
    <glyph glyph-name="igrave" unicode="&#xec;" horiz-adv-x="298" 
d="M267 36v-36h-232v36l74 14q1 38 1.5 82t0.5 78v50q0 41 -1 68.5t-2 57.5l-79 9v35l155 61l15 -10l-3 -136v-135q0 -33 0.5 -77.5t1.5 -82.5zM182 557l-120 107q-23 20 -29.5 32.5t-6.5 23.5q0 20 12 29t26 9t27.5 -9t28.5 -34l87 -139z" />
    <glyph glyph-name="iacute" unicode="&#xed;" horiz-adv-x="298" 
d="M267 36v-36h-232v36l74 14q1 38 1.5 82t0.5 78v50q0 41 -1 68.5t-2 57.5l-79 9v35l155 61l15 -10l-3 -136v-135q0 -33 0.5 -77.5t1.5 -82.5zM185 715q16 25 29 34t27 9t26 -9t12 -29q0 -11 -6.5 -23.5t-29.5 -32.5l-119 -107l-26 19z" />
    <glyph glyph-name="icircumflex" unicode="&#xee;" horiz-adv-x="298" 
d="M267 36v-36h-232v36l74 14q1 38 1.5 82t0.5 78v50q0 41 -1 68.5t-2 57.5l-79 9v35l155 61l15 -10l-3 -136v-135q0 -33 0.5 -77.5t1.5 -82.5zM278 556l-126 107l-126 -107l-23 22l132 176h34l132 -176z" />
    <glyph glyph-name="idieresis" unicode="&#xef;" horiz-adv-x="298" 
d="M267 36v-36h-232v36l74 14q1 38 1.5 82t0.5 78v50q0 41 -1 68.5t-2 57.5l-79 9v35l155 61l15 -10l-3 -136v-135q0 -33 0.5 -77.5t1.5 -82.5zM243 586q-24 0 -41 15.5t-17 39.5t17 39.5t41 15.5q23 0 40 -15.5t17 -39.5t-17 -39.5t-40 -15.5zM41 586q-23 0 -40 15.5
t-17 39.5t17 39.5t40 15.5q24 0 41 -15.5t17 -39.5t-17 -39.5t-41 -15.5z" />
    <glyph glyph-name="eth" unicode="&#xf0;" horiz-adv-x="546" 
d="M271 30q68 0 100.5 52.5t32.5 148.5q0 100 -35 148t-98 48q-65 0 -98 -51.5t-33 -148.5t34 -147t97 -50zM354 625q66 -65 103.5 -151t37.5 -196q0 -68 -15.5 -122t-45.5 -92t-73.5 -58.5t-98.5 -20.5q-42 0 -81 16t-69 47t-48.5 77.5t-18.5 106.5q0 58 19 103t49.5 75.5
t70.5 46.5t82 16q82 0 126 -50q-16 54 -38.5 95.5t-54.5 77.5l-142 -72l-18 37l130 66q-25 23 -54 44.5t-64 44.5l20 33q42 -20 79.5 -43t71.5 -52l152 78l18 -37z" />
    <glyph glyph-name="ntilde" unicode="&#xf1;" horiz-adv-x="606" 
d="M576 36v-36h-232v36l74 14q1 37 1.5 81t0.5 79v88q0 69 -19 95t-64 26q-35 0 -66.5 -14t-69.5 -46v-149q0 -33 0.5 -77.5t1.5 -82.5l69 -14v-36h-232v36l74 14q1 38 1.5 82t0.5 78v51q0 41 -1 68t-2 57l-79 9v35l140 61l15 -10l8 -81q37 41 84.5 66t94.5 25
q65 0 96.5 -43t31.5 -142v-96q0 -35 0.5 -78.5t1.5 -81.5zM371 573q-23 0 -43.5 11t-42.5 33q-20 20 -34 29.5t-30 9.5q-21 0 -34.5 -16.5t-13.5 -54.5h-34q-1 5 -1.5 11.5t-0.5 11.5q0 51 28 80.5t68 29.5q23 0 43.5 -11t42.5 -32q20 -20 34.5 -29.5t30.5 -9.5
q20 0 33.5 16.5t13.5 54.5h34q1 -5 1.5 -10.5t0.5 -13.5q0 -51 -28 -80.5t-68 -29.5z" />
    <glyph glyph-name="ograve" unicode="&#xf2;" horiz-adv-x="549" 
d="M274 445q-65 0 -99.5 -53.5t-34.5 -155.5q0 -101 34.5 -153.5t99.5 -52.5q66 0 100.5 52.5t34.5 153.5q0 102 -34.5 155.5t-100.5 53.5zM274 491q43 0 84.5 -16.5t74 -48.5t52 -79.5t19.5 -109.5t-19.5 -109.5t-51.5 -79t-73.5 -47.5t-85.5 -16t-85 16t-73 47.5t-51.5 79
t-19.5 109.5t19.5 109.5t52 79.5t73.5 48.5t84 16.5zM304 557l-120 107q-23 20 -29.5 32.5t-6.5 23.5q0 20 12 29t26 9t27.5 -9t28.5 -34l87 -139z" />
    <glyph glyph-name="oacute" unicode="&#xf3;" horiz-adv-x="549" 
d="M274 445q-65 0 -99.5 -53.5t-34.5 -155.5q0 -101 34.5 -153.5t99.5 -52.5q66 0 100.5 52.5t34.5 153.5q0 102 -34.5 155.5t-100.5 53.5zM274 491q43 0 84.5 -16.5t74 -48.5t52 -79.5t19.5 -109.5t-19.5 -109.5t-51.5 -79t-73.5 -47.5t-85.5 -16t-85 16t-73 47.5t-51.5 79
t-19.5 109.5t19.5 109.5t52 79.5t73.5 48.5t84 16.5zM313 715q16 25 29 34t27 9t26 -9t12 -29q0 -11 -6.5 -23.5t-29.5 -32.5l-119 -107l-26 19z" />
    <glyph glyph-name="ocircumflex" unicode="&#xf4;" horiz-adv-x="549" 
d="M274 445q-65 0 -99.5 -53.5t-34.5 -155.5q0 -101 34.5 -153.5t99.5 -52.5q66 0 100.5 52.5t34.5 153.5q0 102 -34.5 155.5t-100.5 53.5zM274 491q43 0 84.5 -16.5t74 -48.5t52 -79.5t19.5 -109.5t-19.5 -109.5t-51.5 -79t-73.5 -47.5t-85.5 -16t-85 16t-73 47.5t-51.5 79
t-19.5 109.5t19.5 109.5t52 79.5t73.5 48.5t84 16.5zM400 556l-126 107l-126 -107l-23 22l132 176h34l132 -176z" />
    <glyph glyph-name="otilde" unicode="&#xf5;" horiz-adv-x="549" 
d="M274 445q-65 0 -99.5 -53.5t-34.5 -155.5q0 -101 34.5 -153.5t99.5 -52.5q66 0 100.5 52.5t34.5 153.5q0 102 -34.5 155.5t-100.5 53.5zM274 491q43 0 84.5 -16.5t74 -48.5t52 -79.5t19.5 -109.5t-19.5 -109.5t-51.5 -79t-73.5 -47.5t-85.5 -16t-85 16t-73 47.5t-51.5 79
t-19.5 109.5t19.5 109.5t52 79.5t73.5 48.5t84 16.5zM343 573q-23 0 -43.5 11t-42.5 33q-20 20 -34 29.5t-30 9.5q-21 0 -34.5 -16.5t-13.5 -54.5h-34q-1 5 -1.5 11.5t-0.5 11.5q0 51 28 80.5t68 29.5q23 0 43.5 -11t42.5 -32q20 -20 34.5 -29.5t30.5 -9.5q20 0 33.5 16.5
t13.5 54.5h34q1 -5 1.5 -10.5t0.5 -13.5q0 -51 -28 -80.5t-68 -29.5z" />
    <glyph glyph-name="odieresis" unicode="&#xf6;" horiz-adv-x="549" 
d="M274 445q-65 0 -99.5 -53.5t-34.5 -155.5q0 -101 34.5 -153.5t99.5 -52.5q66 0 100.5 52.5t34.5 153.5q0 102 -34.5 155.5t-100.5 53.5zM274 491q43 0 84.5 -16.5t74 -48.5t52 -79.5t19.5 -109.5t-19.5 -109.5t-51.5 -79t-73.5 -47.5t-85.5 -16t-85 16t-73 47.5t-51.5 79
t-19.5 109.5t19.5 109.5t52 79.5t73.5 48.5t84 16.5zM375 586q-24 0 -41 15.5t-17 39.5t17 39.5t41 15.5q23 0 40 -15.5t17 -39.5t-17 -39.5t-40 -15.5zM173 586q-23 0 -40 15.5t-17 39.5t17 39.5t40 15.5q24 0 41 -15.5t17 -39.5t-17 -39.5t-41 -15.5z" />
    <glyph glyph-name="divide" unicode="&#xf7;" horiz-adv-x="531" 
d="M265 68q-28 0 -48 18.5t-20 47.5q0 30 20 48t48 18q29 0 49 -18t20 -48q0 -29 -20 -47.5t-49 -18.5zM265 459q-28 0 -48 18.5t-20 47.5q0 30 20 48t48 18q29 0 49 -18t20 -48q0 -29 -20 -47.5t-49 -18.5zM29 301v57h473v-57h-473z" />
    <glyph glyph-name="oslash" unicode="&#xf8;" horiz-adv-x="549" 
d="M274 445q-65 0 -99.5 -53.5t-34.5 -155.5q0 -62 14 -107l216 267q-34 49 -96 49zM274 30q66 0 100.5 52.5t34.5 153.5q0 72 -18 120l-218 -270q35 -56 101 -56zM441 417q29 -32 46 -77t17 -103q0 -62 -19.5 -109.5t-51.5 -79t-73.5 -47.5t-85.5 -16q-38 0 -75 12.5
t-67 37.5l-45 -56l-33 26l48 59q-26 32 -41.5 75t-15.5 98q0 62 19.5 109.5t52 79.5t73.5 48.5t84 16.5q36 0 71 -11.5t65 -34.5l45 56l32 -26z" />
    <glyph glyph-name="ugrave" unicode="&#xf9;" horiz-adv-x="583" 
d="M549 36v-36l-139 -10l-10 89q-41 -50 -86.5 -72t-90.5 -22q-30 0 -54.5 9.5t-41.5 31t-25.5 55.5t-8.5 84l3 251l-71 15v36l147 14l10 -10l-5 -140v-157q0 -66 19.5 -91.5t60.5 -25.5q35 0 70 16t70 48l3 295l-71 15v36l145 14l10 -10l-3 -140v-281zM308 557l-120 107
q-23 20 -29.5 32.5t-6.5 23.5q0 20 12 29t26 9t27.5 -9t28.5 -34l87 -139z" />
    <glyph glyph-name="uacute" unicode="&#xfa;" horiz-adv-x="583" 
d="M549 36v-36l-139 -10l-10 89q-41 -50 -86.5 -72t-90.5 -22q-30 0 -54.5 9.5t-41.5 31t-25.5 55.5t-8.5 84l3 251l-71 15v36l147 14l10 -10l-5 -140v-157q0 -66 19.5 -91.5t60.5 -25.5q35 0 70 16t70 48l3 295l-71 15v36l145 14l10 -10l-3 -140v-281zM315 715q16 25 29 34
t27 9t26 -9t12 -29q0 -11 -6.5 -23.5t-29.5 -32.5l-119 -107l-26 19z" />
    <glyph glyph-name="ucircumflex" unicode="&#xfb;" horiz-adv-x="583" 
d="M549 36v-36l-139 -10l-10 89q-41 -50 -86.5 -72t-90.5 -22q-30 0 -54.5 9.5t-41.5 31t-25.5 55.5t-8.5 84l3 251l-71 15v36l147 14l10 -10l-5 -140v-157q0 -66 19.5 -91.5t60.5 -25.5q35 0 70 16t70 48l3 295l-71 15v36l145 14l10 -10l-3 -140v-281zM409 556l-126 107
l-126 -107l-23 22l132 176h34l132 -176z" />
    <glyph glyph-name="udieresis" unicode="&#xfc;" horiz-adv-x="583" 
d="M549 36v-36l-139 -10l-10 89q-41 -50 -86.5 -72t-90.5 -22q-30 0 -54.5 9.5t-41.5 31t-25.5 55.5t-8.5 84l3 251l-71 15v36l147 14l10 -10l-5 -140v-157q0 -66 19.5 -91.5t60.5 -25.5q35 0 70 16t70 48l3 295l-71 15v36l145 14l10 -10l-3 -140v-281zM393 586
q-24 0 -41 15.5t-17 39.5t17 39.5t41 15.5q23 0 40 -15.5t17 -39.5t-17 -39.5t-40 -15.5zM191 586q-23 0 -40 15.5t-17 39.5t17 39.5t40 15.5q24 0 41 -15.5t17 -39.5t-17 -39.5t-41 -15.5z" />
    <glyph glyph-name="yacute" unicode="&#xfd;" horiz-adv-x="508" 
d="M498 432l-55 -12l-151 -417q-24 -67 -47.5 -114.5t-48 -78t-51.5 -45t-58 -14.5q-37 0 -64 18.5t-27 48.5q5 21 24 31.5t42 10.5q20 0 36.5 -8.5t37.5 -28.5l5 -5q32 26 54.5 63t36.5 79l4 12l-180 451l-57 9v41h240v-42l-86 -10l123 -333l113 332l-87 12v41h196v-41z
M294 715q16 25 29 34t27 9t26 -9t12 -29q0 -11 -6.5 -23.5t-29.5 -32.5l-119 -107l-26 19z" />
    <glyph glyph-name="thorn" unicode="&#xfe;" horiz-adv-x="554" 
d="M173 94q29 -27 58 -39.5t56 -12.5t51 12t42 36t28.5 60t10.5 84q0 97 -35 148.5t-92 51.5q-23 0 -52 -11t-67 -43v-286zM170 420q35 37 72 54t77 17t74.5 -17t60 -49.5t40.5 -78.5t15 -104t-15.5 -105.5t-43.5 -81t-65.5 -52t-81.5 -18.5q-35 0 -68 14t-65 52v-79
q0 -40 0.5 -80t1.5 -81l91 -15v-35h-257v35l80 14q1 42 1.5 81.5t0.5 80.5v667l-81 10v35l153 45l14 -8l-4 -142v-159z" />
    <glyph glyph-name="ydieresis" unicode="&#xff;" horiz-adv-x="508" 
d="M498 432l-55 -12l-151 -417q-24 -67 -47.5 -114.5t-48 -78t-51.5 -45t-58 -14.5q-37 0 -64 18.5t-27 48.5q5 21 24 31.5t42 10.5q20 0 36.5 -8.5t37.5 -28.5l5 -5q32 26 54.5 63t36.5 79l4 12l-180 451l-57 9v41h240v-42l-86 -10l123 -333l113 332l-87 12v41h196v-41z
M376 586q-24 0 -41 15.5t-17 39.5t17 39.5t41 15.5q23 0 40 -15.5t17 -39.5t-17 -39.5t-40 -15.5zM174 586q-23 0 -40 15.5t-17 39.5t17 39.5t40 15.5q24 0 41 -15.5t17 -39.5t-17 -39.5t-41 -15.5z" />
    <glyph glyph-name="Amacron" unicode="&#x100;" horiz-adv-x="664" 
d="M408 264l-99 293l-100 -293h199zM653 41v-41h-272v41l98 12l-55 164h-231l-56 -163l97 -13v-41h-229v41l85 13l212 615h63l213 -619zM180 811h302v-62h-302v62z" />
    <glyph glyph-name="amacron" unicode="&#x101;" horiz-adv-x="509" 
d="M324 260q-26 -8 -51 -16t-41 -14q-33 -13 -52 -26.5t-29.5 -26.5t-13.5 -26t-3 -24q0 -20 5.5 -32t14.5 -21q22 -23 60 -23q12 0 23 3t23 9.5t27 17t37 25.5v154zM503 42q-17 -32 -37 -42t-44 -10q-43 0 -66.5 21t-29.5 56q-41 -41 -72 -61.5t-75 -20.5q-27 0 -51.5 8
t-43 24t-29 40t-10.5 55q0 21 7 40.5t25.5 38.5t50.5 37t83 36q23 8 53 17t60 16v27q0 36 -5.5 59.5t-17 37t-29 19t-42.5 5.5q-11 0 -23.5 -1t-27.5 -5l-20 -69q-14 -48 -54 -48q-21 0 -33 11.5t-14 31.5q14 57 66 91.5t129 34.5q79 0 117 -39.5t38 -134.5v-216
q0 -59 33 -59q12 0 21.5 5.5t15.5 11.5l5 5zM126 665h262v-63h-262v63z" />
    <glyph glyph-name="Abreve" unicode="&#x102;" horiz-adv-x="664" 
d="M408 264l-99 293l-100 -293h199zM653 41v-41h-272v41l98 12l-55 164h-231l-56 -163l97 -13v-41h-229v41l85 13l212 615h63l213 -619zM335 722q-35 0 -60.5 11.5t-43 30t-27.5 41t-13 44.5l31 12q13 -35 40.5 -57t72.5 -22t74 22t40 56l30 -11q-3 -22 -13 -44.5t-27.5 -41
t-43.5 -30t-60 -11.5z" />
    <glyph glyph-name="abreve" unicode="&#x103;" horiz-adv-x="509" 
d="M324 260q-26 -8 -51 -16t-41 -14q-33 -13 -52 -26.5t-29.5 -26.5t-13.5 -26t-3 -24q0 -20 5.5 -32t14.5 -21q22 -23 60 -23q12 0 23 3t23 9.5t27 17t37 25.5v154zM503 42q-17 -32 -37 -42t-44 -10q-43 0 -66.5 21t-29.5 56q-41 -41 -72 -61.5t-75 -20.5q-27 0 -51.5 8
t-43 24t-29 40t-10.5 55q0 21 7 40.5t25.5 38.5t50.5 37t83 36q23 8 53 17t60 16v27q0 36 -5.5 59.5t-17 37t-29 19t-42.5 5.5q-11 0 -23.5 -1t-27.5 -5l-20 -69q-14 -48 -54 -48q-21 0 -33 11.5t-14 31.5q14 57 66 91.5t129 34.5q79 0 117 -39.5t38 -134.5v-216
q0 -59 33 -59q12 0 21.5 5.5t15.5 11.5l5 5zM257 575q-35 0 -61.5 12.5t-45 33t-30 47t-14.5 55.5l30 11q15 -38 44.5 -64t76.5 -26t77 26t44 64l30 -11q-3 -29 -14.5 -55.5t-30 -47t-45.5 -33t-61 -12.5z" />
    <glyph glyph-name="Aogonek" unicode="&#x104;" horiz-adv-x="664" 
d="M408 264l-99 293l-100 -293h199zM653 41v-41h-272v41l98 12l-55 164h-231l-56 -163l97 -13v-41h-229v41l85 13l212 615h63l213 -619zM449 -132q0 23 8 44.5t22 40.5t32.5 34.5t38.5 25.5h29q-32 -20 -49 -49.5t-17 -59.5q0 -32 19 -50t48 -18q10 0 24 3t29 12l13 -25
q-18 -25 -47 -35.5t-56 -10.5q-42 0 -68 23t-26 65z" />
    <glyph glyph-name="aogonek" unicode="&#x105;" horiz-adv-x="509" 
d="M324 260q-26 -8 -51 -16t-41 -14q-33 -13 -52 -26.5t-29.5 -26.5t-13.5 -26t-3 -24q0 -20 5.5 -32t14.5 -21q22 -23 60 -23q12 0 23 3t23 9.5t27 17t37 25.5v154zM524 -172q-18 -26 -45 -37t-59 -11q-41 0 -66 23t-25 65q0 38 26 69.5t61 51.5q-40 2 -62.5 22.5
t-27.5 55.5q-41 -41 -72 -61.5t-75 -20.5q-27 0 -51.5 8t-43 24t-29 40t-10.5 55q0 21 7 40.5t25.5 38.5t50.5 37t83 36q23 8 53 17t60 16v27q0 36 -5.5 59.5t-17 37t-29 19t-42.5 5.5q-11 0 -23.5 -1t-27.5 -5l-20 -69q-14 -48 -54 -48q-21 0 -33 11.5t-14 31.5
q14 57 66 91.5t129 34.5q79 0 117 -39.5t38 -134.5v-216q0 -59 33 -59q12 0 21.5 5.5t15.5 11.5l5 5l20 -24q-12 -14 -21.5 -23t-25.5 -22q-25 -20 -44.5 -42.5t-19.5 -48.5q0 -32 19.5 -50t48.5 -18q11 0 24.5 3t27.5 12z" />
    <glyph glyph-name="Cacute" unicode="&#x106;" horiz-adv-x="631" 
d="M592 178l-4 -145q-47 -26 -97.5 -37t-104.5 -11q-76 0 -138.5 25.5t-107 72t-69 111t-24.5 141.5q0 76 25.5 140t70.5 110.5t107 72.5t135 26q42 0 92 -9.5t101 -38.5l4 -145h-62l-20 118q-26 14 -51 19.5t-51 5.5q-50 0 -94 -19.5t-77 -57t-52 -93.5t-19 -129
q0 -74 17.5 -130t48.5 -93.5t74.5 -57t94.5 -19.5q29 0 59.5 6.5t59.5 20.5l20 116h62zM403 839q22 21 36 29.5t27 8.5q16 0 27 -9.5t11 -24.5q0 -14 -11 -27t-40 -29l-125 -67l-19 25z" />
    <glyph glyph-name="cacute" unicode="&#x107;" horiz-adv-x="488" 
d="M458 114q-21 -63 -68.5 -96t-118.5 -33q-51 0 -92.5 17.5t-71 50t-45 79t-15.5 104.5q0 59 19 106.5t51.5 80.5t74 50.5t86.5 17.5q34 0 64 -10t53.5 -27.5t39 -41t20.5 -51.5q-7 -38 -46 -38q-26 0 -38 13.5t-17 34.5l-18 66q-14 5 -28 6.5t-26 1.5q-64 0 -105.5 -51
t-41.5 -148q0 -95 44.5 -145.5t114.5 -50.5q44 0 80 20t59 57zM311 715q16 25 29 34t27 9t26 -9t12 -29q0 -11 -6.5 -23.5t-29.5 -32.5l-119 -107l-26 19z" />
    <glyph glyph-name="Ccaron" unicode="&#x10c;" horiz-adv-x="631" 
d="M592 178l-4 -145q-47 -26 -97.5 -37t-104.5 -11q-76 0 -138.5 25.5t-107 72t-69 111t-24.5 141.5q0 76 25.5 140t70.5 110.5t107 72.5t135 26q42 0 92 -9.5t101 -38.5l4 -145h-62l-20 118q-26 14 -51 19.5t-51 5.5q-50 0 -94 -19.5t-77 -57t-52 -93.5t-19 -129
q0 -74 17.5 -130t48.5 -93.5t74.5 -57t94.5 -19.5q29 0 59.5 6.5t59.5 20.5l20 116h62zM515 847l-102 -118h-74l-102 118l24 21l115 -85l115 85z" />
    <glyph glyph-name="ccaron" unicode="&#x10d;" horiz-adv-x="488" 
d="M458 114q-21 -63 -68.5 -96t-118.5 -33q-51 0 -92.5 17.5t-71 50t-45 79t-15.5 104.5q0 59 19 106.5t51.5 80.5t74 50.5t86.5 17.5q34 0 64 -10t53.5 -27.5t39 -41t20.5 -51.5q-7 -38 -46 -38q-26 0 -38 13.5t-17 34.5l-18 66q-14 5 -28 6.5t-26 1.5q-64 0 -105.5 -51
t-41.5 -148q0 -95 44.5 -145.5t114.5 -50.5q44 0 80 20t59 57zM422 719l-102 -148h-74l-102 148l24 20l115 -105l115 105z" />
    <glyph glyph-name="Dcaron" unicode="&#x10e;" horiz-adv-x="710" 
d="M324 47q52 0 94.5 18.5t72.5 55t46.5 90t16.5 124.5q0 70 -16.5 124t-47 90.5t-73 55t-94.5 18.5h-88q-2 -65 -2 -131v-133v-37v-141.5t2 -133.5h89zM339 669q69 0 128.5 -22t103 -64t68 -104.5t24.5 -143.5t-27 -143.5t-74 -105t-109.5 -64.5t-132.5 -22h-276v41l92 11
q2 64 2 130.5v139.5v37v129t-2 129l-92 11v41h295zM493 847l-102 -118h-74l-102 118l24 21l115 -85l115 85z" />
    <glyph glyph-name="dcaron" unicode="&#x10f;" horiz-adv-x="591" 
d="M386 381q-35 30 -61.5 41.5t-51.5 11.5q-28 0 -53 -12t-44 -36.5t-30 -62t-11 -88.5q0 -98 39.5 -145.5t99.5 -47.5q33 0 58.5 13.5t53.5 44.5v281zM551 36v-36l-155 -10l-7 68q-26 -35 -59.5 -54t-80.5 -19q-46 0 -83.5 18t-64.5 51t-41.5 78.5t-14.5 100.5
q0 57 16 104.5t44.5 81.5t67.5 53t85 19q36 0 68 -14.5t63 -50.5v213l-85 10v35l156 45l14 -8l-4 -142v-530zM598 740q20 0 28 -10t8 -27q0 -11 -3 -26t-8 -32.5t-11 -36t-12 -36.5l-19 -54h-32l3 209q23 13 46 13z" />
    <glyph glyph-name="Dcroat" unicode="&#x110;" horiz-adv-x="710" 
d="M324 47q52 0 94.5 18.5t72.5 55t46.5 90t16.5 124.5q0 70 -16.5 124t-47 90.5t-73 55t-94.5 18.5h-88q-2 -63 -2 -127v-130h153v-47h-153v-139t2 -133h89zM339 669q69 0 128.5 -22t103 -64t68 -104.5t24.5 -143.5t-27 -143.5t-74 -105t-109.5 -64.5t-132.5 -22h-276v41
l92 11q2 63 2 129v138h-94v47h94v125.5t-2 125.5l-92 11v41h295z" />
    <glyph glyph-name="dcroat" unicode="&#x111;" horiz-adv-x="567" 
d="M386 362q-35 30 -61.5 41t-49.5 11q-29 0 -54 -11.5t-44.5 -34.5t-30.5 -58.5t-11 -83.5q0 -94 39.5 -139t99.5 -45q32 0 58 14t54 45v261zM551 36v-36l-155 -10l-7 69q-29 -38 -63 -56t-77 -18q-46 0 -83.5 17.5t-64.5 49t-41.5 75.5t-14.5 97q0 55 16 100.5t44.5 78
t66.5 50.5t83 18q40 0 71.5 -14.5t62.5 -50.5v132h-185v46h185v55l-86 10v35l157 45l14 -8l-4 -137h81v-46h-81v-489z" />
    <glyph glyph-name="Emacron" unicode="&#x112;" horiz-adv-x="603" 
d="M569 178l-7 -178h-518v41l92 11q2 63 2 127.5v130.5v49v129t-2 129l-92 11v41h498l7 -177h-57l-22 127h-235q-2 -63 -2 -126v-128h147l14 95h46v-236h-46l-13 94h-148v-137.5t2 -130.5h255l22 128h57zM190 811h302v-62h-302v62z" />
    <glyph glyph-name="emacron" unicode="&#x113;" horiz-adv-x="510" 
d="M321 285q36 0 47.5 15t11.5 37q0 21 -8.5 40.5t-23 34.5t-34.5 24t-43 9q-21 0 -42.5 -8.5t-40 -28t-32 -50t-17.5 -73.5h182zM137 243q2 -93 45.5 -143t116.5 -50q48 0 80 19t59 51l24 -19q-28 -54 -75.5 -85t-116.5 -31q-51 0 -92 17t-70 49.5t-45 78.5t-16 103
t18.5 104.5t50 81.5t73 53t88.5 19q39 0 73 -13t59 -38t39.5 -61t14.5 -81q0 -17 -2 -31t-5 -24h-319zM134 665h262v-63h-262v63z" />
    <glyph glyph-name="Edotaccent" unicode="&#x116;" horiz-adv-x="603" 
d="M569 178l-7 -178h-518v41l92 11q2 63 2 127.5v130.5v49v129t-2 129l-92 11v41h498l7 -177h-57l-22 127h-235q-2 -63 -2 -126v-128h147l14 95h46v-236h-46l-13 94h-148v-137.5t2 -130.5h255l22 128h57zM303 736q-28 0 -47.5 18t-19.5 46q0 29 19.5 46.5t47.5 17.5
t47.5 -17.5t19.5 -46.5q0 -28 -19.5 -46t-47.5 -18z" />
    <glyph glyph-name="edotaccent" unicode="&#x117;" horiz-adv-x="510" 
d="M321 285q36 0 47.5 15t11.5 37q0 21 -8.5 40.5t-23 34.5t-34.5 24t-43 9q-21 0 -42.5 -8.5t-40 -28t-32 -50t-17.5 -73.5h182zM137 243q2 -93 45.5 -143t116.5 -50q48 0 80 19t59 51l24 -19q-28 -54 -75.5 -85t-116.5 -31q-51 0 -92 17t-70 49.5t-45 78.5t-16 103
t18.5 104.5t50 81.5t73 53t88.5 19q39 0 73 -13t59 -38t39.5 -61t14.5 -81q0 -17 -2 -31t-5 -24h-319zM270 598q-29 0 -48 18t-19 46q0 29 19 46.5t48 17.5t48 -17.5t19 -46.5q0 -28 -19 -46t-48 -18z" />
    <glyph glyph-name="Eogonek" unicode="&#x118;" horiz-adv-x="603" 
d="M569 178l-7 -178h-518v41l92 11q2 63 2 127.5v130.5v49v129t-2 129l-92 11v41h498l7 -177h-57l-22 127h-235q-2 -63 -2 -126v-128h147l14 95h46v-236h-46l-13 94h-148v-137.5t2 -130.5h255l22 128h57zM373 -132q0 23 8 44.5t22 40.5t32.5 34.5t38.5 25.5h29
q-32 -20 -49 -49.5t-17 -59.5q0 -32 19 -50t48 -18q10 0 24 3t29 12l13 -25q-18 -25 -47 -35.5t-56 -10.5q-42 0 -68 23t-26 65z" />
    <glyph glyph-name="eogonek" unicode="&#x119;" horiz-adv-x="510" 
d="M321 285q36 0 47.5 13t11.5 39q0 21 -8.5 40.5t-23 34.5t-34.5 24t-44 9q-21 0 -42 -8.5t-39.5 -27.5t-32 -49.5t-17.5 -74.5h182zM462 101q-15 -29 -32 -48t-45 -40q-30 -24 -48.5 -51.5t-18.5 -57.5q0 -32 19.5 -50t49.5 -18q10 0 23.5 3t28.5 12l12 -23
q-19 -26 -45.5 -37t-59.5 -11q-41 0 -66 23t-25 65q0 35 18 66.5t47 54.5q-13 -2 -25.5 -3t-24.5 -1q-51 0 -92 17t-70 49.5t-45 79t-16 105.5q0 56 18.5 103t49.5 80.5t72.5 52.5t88.5 19q39 0 73.5 -13t59.5 -38t39.5 -61t14.5 -81q0 -17 -2 -31t-5 -24h-319
q1 -92 44.5 -142.5t118.5 -50.5q47 0 79 19t59 51z" />
    <glyph glyph-name="Ecaron" unicode="&#x11a;" horiz-adv-x="603" 
d="M569 178l-7 -178h-518v41l92 11q2 63 2 127.5v130.5v49v129t-2 129l-92 11v41h498l7 -177h-57l-22 127h-235q-2 -63 -2 -126v-128h147l14 95h46v-236h-46l-13 94h-148v-137.5t2 -130.5h255l22 128h57zM479 847l-102 -118h-74l-102 118l24 21l115 -85l115 85z" />
    <glyph glyph-name="ecaron" unicode="&#x11b;" horiz-adv-x="510" 
d="M321 285q36 0 47.5 15t11.5 37q0 21 -8.5 40.5t-23 34.5t-34.5 24t-43 9q-21 0 -42.5 -8.5t-40 -28t-32 -50t-17.5 -73.5h182zM137 243q2 -93 45.5 -143t116.5 -50q48 0 80 19t59 51l24 -19q-28 -54 -75.5 -85t-116.5 -31q-51 0 -92 17t-70 49.5t-45 78.5t-16 103
t18.5 104.5t50 81.5t73 53t88.5 19q39 0 73 -13t59 -38t39.5 -61t14.5 -81q0 -17 -2 -31t-5 -24h-319zM404 719l-102 -148h-74l-102 148l24 20l115 -105l115 105z" />
    <glyph glyph-name="Gbreve" unicode="&#x11e;" horiz-adv-x="682" 
d="M667 278l-61 -6q-1 -45 -1.5 -91t-0.5 -93v-44q-52 -27 -104.5 -43t-115.5 -16q-75 0 -137.5 26.5t-106.5 73t-68.5 110.5t-24.5 140q0 75 24.5 139t69.5 110.5t107.5 73t139.5 26.5q62 0 110.5 -11.5t90.5 -35.5l4 -146h-62l-21 118q-26 14 -54 19.5t-59 5.5
q-52 0 -96 -20t-76.5 -58t-50.5 -93.5t-18 -127.5q0 -144 66 -221.5t181 -77.5q30 0 55.5 4.5t51.5 15.5v32q0 45 -0.5 90.5t-1.5 91.5l-104 8v41h263v-41zM390 731q-35 0 -60.5 11.5t-43 30t-27.5 41t-13 44.5l31 12q13 -35 40.5 -57t72.5 -22t74 22t40 56l30 -11
q-3 -22 -13 -44.5t-27.5 -41t-43.5 -30t-60 -11.5z" />
    <glyph glyph-name="gbreve" unicode="&#x11f;" horiz-adv-x="518" 
d="M237 203q48 0 75 35.5t27 91.5q0 54 -25.5 87t-72.5 33q-48 0 -74.5 -34.5t-26.5 -89.5t25 -89t72 -34zM208 -16q-31 0 -53 6q-22 -24 -31 -45t-9 -47q0 -49 36 -70t96 -21q82 0 125 29.5t43 71.5q0 33 -23 54.5t-77 21.5h-107zM495 415h-97q22 -38 22 -88
q0 -39 -13.5 -69.5t-38 -51.5t-57.5 -32t-72 -11q-20 0 -38 2.5t-35 7.5q-19 -25 -19 -57q0 -28 17 -40.5t63 -12.5h102q83 0 122 -34t39 -95q0 -33 -15.5 -64t-46.5 -55t-77.5 -39t-107.5 -15q-109 0 -159.5 33.5t-50.5 87.5q0 33 22 60t78 55q-32 14 -46.5 37.5
t-14.5 49.5q0 28 14.5 52.5t48.5 50.5q-35 20 -55.5 54.5t-20.5 85.5q0 39 13.5 69.5t38 51.5t57.5 32t72 11q81 0 130 -41l110 38l15 -10v-63zM250 575q-35 0 -61.5 12.5t-45 33t-30 47t-14.5 55.5l30 11q15 -38 44.5 -64t76.5 -26t77 26t44 64l30 -11q-3 -29 -14.5 -55.5
t-30 -47t-45.5 -33t-61 -12.5z" />
    <glyph glyph-name="Gdotaccent" unicode="&#x120;" horiz-adv-x="682" 
d="M667 278l-61 -6q-1 -45 -1.5 -91t-0.5 -93v-44q-52 -27 -104.5 -43t-115.5 -16q-75 0 -137.5 26.5t-106.5 73t-68.5 110.5t-24.5 140q0 75 24.5 139t69.5 110.5t107.5 73t139.5 26.5q62 0 110.5 -11.5t90.5 -35.5l4 -146h-62l-21 118q-26 14 -54 19.5t-59 5.5
q-52 0 -96 -20t-76.5 -58t-50.5 -93.5t-18 -127.5q0 -144 66 -221.5t181 -77.5q30 0 55.5 4.5t51.5 15.5v32q0 45 -0.5 90.5t-1.5 91.5l-104 8v41h263v-41zM393 736q-28 0 -47.5 18t-19.5 46q0 29 19.5 46.5t47.5 17.5t47.5 -17.5t19.5 -46.5q0 -28 -19.5 -46t-47.5 -18z
" />
    <glyph glyph-name="gdotaccent" unicode="&#x121;" horiz-adv-x="518" 
d="M237 203q48 0 75 35.5t27 91.5q0 54 -25.5 87t-72.5 33q-48 0 -74.5 -34.5t-26.5 -89.5t25 -89t72 -34zM208 -16q-31 0 -53 6q-22 -24 -31 -45t-9 -47q0 -49 36 -70t96 -21q82 0 125 29.5t43 71.5q0 33 -23 54.5t-77 21.5h-107zM495 415h-97q22 -38 22 -88
q0 -39 -13.5 -69.5t-38 -51.5t-57.5 -32t-72 -11q-20 0 -38 2.5t-35 7.5q-19 -25 -19 -57q0 -28 17 -40.5t63 -12.5h102q83 0 122 -34t39 -95q0 -33 -15.5 -64t-46.5 -55t-77.5 -39t-107.5 -15q-109 0 -159.5 33.5t-50.5 87.5q0 33 22 60t78 55q-32 14 -46.5 37.5
t-14.5 49.5q0 28 14.5 52.5t48.5 50.5q-35 20 -55.5 54.5t-20.5 85.5q0 39 13.5 69.5t38 51.5t57.5 32t72 11q81 0 130 -41l110 38l15 -10v-63zM245 598q-29 0 -48 18t-19 46q0 29 19 46.5t48 17.5t48 -17.5t19 -46.5q0 -28 -19 -46t-48 -18z" />
    <glyph glyph-name="uni0122" unicode="&#x122;" horiz-adv-x="682" 
d="M667 278l-61 -6q-1 -45 -1.5 -91t-0.5 -93v-44q-52 -27 -104.5 -43t-115.5 -16q-75 0 -137.5 26.5t-106.5 73t-68.5 110.5t-24.5 140q0 75 24.5 139t69.5 110.5t107.5 73t139.5 26.5q62 0 110.5 -11.5t90.5 -35.5l4 -146h-62l-21 118q-26 14 -54 19.5t-59 5.5
q-52 0 -96 -20t-76.5 -58t-50.5 -93.5t-18 -127.5q0 -144 66 -221.5t181 -77.5q30 0 55.5 4.5t51.5 15.5v32q0 45 -0.5 90.5t-1.5 91.5l-104 8v41h263v-41zM304 -222q31 12 52.5 26.5t38.5 39.5q-20 8 -33.5 24t-13.5 36t14 32t33 12q24 0 44 -19q5 -16 7 -26t2 -20
q0 -26 -11 -47t-29.5 -37.5t-42.5 -28.5t-50 -21z" />
    <glyph glyph-name="uni0123" unicode="&#x123;" horiz-adv-x="518" 
d="M237 203q48 0 75 35.5t27 91.5q0 54 -25.5 87t-72.5 33q-48 0 -74.5 -34.5t-26.5 -89.5t25 -89t72 -34zM208 -16q-31 0 -53 6q-22 -24 -31 -45t-9 -47q0 -49 36 -70t96 -21q82 0 125 29.5t43 71.5q0 33 -23 54.5t-77 21.5h-107zM495 415h-97q22 -38 22 -88
q0 -39 -13.5 -69.5t-38 -51.5t-57.5 -32t-72 -11q-20 0 -38 2.5t-35 7.5q-19 -25 -19 -57q0 -28 17 -40.5t63 -12.5h102q83 0 122 -34t39 -95q0 -33 -15.5 -64t-46.5 -55t-77.5 -39t-107.5 -15q-109 0 -159.5 33.5t-50.5 87.5q0 33 22 60t78 55q-32 14 -46.5 37.5
t-14.5 49.5q0 28 14.5 52.5t48.5 50.5q-35 20 -55.5 54.5t-20.5 85.5q0 39 13.5 69.5t38 51.5t57.5 32t72 11q81 0 130 -41l110 38l15 -10v-63zM340 742q-31 -12 -52.5 -26.5t-38.5 -39.5q20 -8 33.5 -24t13.5 -36t-14 -32t-33 -12q-24 0 -44 19q-5 16 -7 26t-2 20
q0 26 11 47t29.5 37.5t42.5 28.5t50 21z" />
    <glyph glyph-name="Imacron" unicode="&#x12a;" horiz-adv-x="371" 
d="M235 617q-2 -63 -2 -127.5v-130.5v-49v-129t2 -129l92 -11v-41h-283v41l92 11q2 63 2 127.5v130.5v49v129t-2 129l-92 11v41h283v-41zM35 811h302v-62h-302v62z" />
    <glyph glyph-name="imacron" unicode="&#x12b;" horiz-adv-x="298" 
d="M267 36v-36h-232v36l74 14q1 38 1.5 82t0.5 78v50q0 41 -1 68.5t-2 57.5l-79 9v35l155 61l15 -10l-3 -136v-135q0 -33 0.5 -77.5t1.5 -82.5zM11 665h262v-63h-262v63z" />
    <glyph glyph-name="Iogonek" unicode="&#x12e;" horiz-adv-x="371" 
d="M235 617q-2 -63 -2 -127.5v-130.5v-49v-129t2 -129l92 -11v-41h-283v41l92 11q2 63 2 127.5v130.5v49v129t-2 129l-92 11v41h283v-41zM110 -132q0 23 8 44.5t22 40.5t32.5 34.5t38.5 25.5h29q-32 -20 -49 -49.5t-17 -59.5q0 -32 19 -50t48 -18q10 0 24 3t29 12l13 -25
q-18 -25 -47 -35.5t-56 -10.5q-42 0 -68 23t-26 65z" />
    <glyph glyph-name="iogonek" unicode="&#x12f;" horiz-adv-x="298" 
d="M153 598q-29 0 -48 18t-19 46q0 29 19 46.5t48 17.5q28 0 47.5 -17.5t19.5 -46.5q0 -28 -19.5 -46t-47.5 -18zM267 36v-36h-232v36l74 14q1 38 1.5 82t0.5 78v50q0 41 -1 68.5t-2 57.5l-79 9v35l155 61l15 -10l-3 -136v-135q0 -33 0.5 -77.5t1.5 -82.5zM73 -132
q0 23 8 44.5t22 40.5t32.5 34.5t38.5 25.5h29q-32 -20 -49 -49.5t-17 -59.5q0 -32 19 -50t48 -18q10 0 24 3t29 12l13 -25q-18 -25 -47 -35.5t-56 -10.5q-42 0 -68 23t-26 65z" />
    <glyph glyph-name="Idotaccent" unicode="&#x130;" horiz-adv-x="371" 
d="M235 617q-2 -63 -2 -127.5v-130.5v-49v-129t2 -129l92 -11v-41h-283v41l92 11q2 63 2 127.5v130.5v49v129t-2 129l-92 11v41h283v-41zM186 736q-28 0 -47.5 18t-19.5 46q0 29 19.5 46.5t47.5 17.5t47.5 -17.5t19.5 -46.5q0 -28 -19.5 -46t-47.5 -18z" />
    <glyph glyph-name="dotlessi" unicode="&#x131;" horiz-adv-x="298" 
d="M267 36v-36h-232v36l74 14q1 38 1.5 82t0.5 78v50q0 41 -1 68.5t-2 57.5l-79 9v35l155 61l15 -10l-3 -136v-135q0 -33 0.5 -77.5t1.5 -82.5z" />
    <glyph glyph-name="uni0136" unicode="&#x136;" horiz-adv-x="667" 
d="M662 41v-41h-257v41l81 10l-162 292l-95 -114v-85.5t2 -91.5l95 -11v-41h-282v41l92 11q2 63 2 127.5v130.5v49v129t-2 129l-92 11v41h282v-41l-95 -11q-2 -64 -2 -128v-130v-63l262 321l-74 11v41h230v-41l-97 -13l-171 -206l205 -358zM270 -222q31 12 52.5 26.5
t38.5 39.5q-20 8 -33.5 24t-13.5 36t14 32t33 12q24 0 44 -19q5 -16 7 -26t2 -20q0 -26 -11 -47t-29.5 -37.5t-42.5 -28.5t-50 -21z" />
    <glyph glyph-name="uni0137" unicode="&#x137;" horiz-adv-x="547" 
d="M547 36v-36h-136l-154 247l-66 -67q0 -32 0.5 -65t1.5 -65l80 -14v-36h-248v36l80 14q1 40 1.5 80.5t0.5 79.5v429l-82 10v35l156 45l14 -8l-4 -142v-340l175 182l-72 11v41h227v-41l-95 -13l-109 -111l164 -260zM201 -222q31 12 52.5 26.5t38.5 39.5q-20 8 -33.5 24
t-13.5 36t14 32t33 12q24 0 44 -19q5 -16 7 -26t2 -20q0 -26 -11 -47t-29.5 -37.5t-42.5 -28.5t-50 -21z" />
    <glyph glyph-name="Lacute" unicode="&#x139;" horiz-adv-x="596" 
d="M552 188l-10 -188h-498v41l92 11q2 65 2 129v129v49v130.5t-2 127.5l-92 11v41h283v-41l-92 -11q-2 -65 -2 -129v-129v-68v-115.5t2 -125.5h227l29 138h61zM275 839q22 21 36 29.5t27 8.5q16 0 27 -9.5t11 -24.5q0 -14 -11 -27t-40 -29l-125 -67l-19 25z" />
    <glyph glyph-name="lacute" unicode="&#x13a;" horiz-adv-x="298" 
d="M273 36v-36h-248v36l80 14q1 41 1.5 80.5t0.5 79.5v429l-82 10v35l156 45l14 -8l-4 -142v-369q0 -40 0.5 -80t1.5 -80zM166 880q22 21 36 29.5t27 8.5q16 0 27 -9.5t11 -24.5q0 -14 -11 -27t-40 -29l-125 -67l-19 25z" />
    <glyph glyph-name="uni013B" unicode="&#x13b;" horiz-adv-x="596" 
d="M552 188l-10 -188h-498v41l92 11q2 65 2 129v129v49v130.5t-2 127.5l-92 11v41h283v-41l-92 -11q-2 -65 -2 -129v-129v-68v-115.5t2 -125.5h227l29 138h61zM220 -222q31 12 52.5 26.5t38.5 39.5q-20 8 -33.5 24t-13.5 36t14 32t33 12q24 0 44 -19q5 -16 7 -26t2 -20
q0 -26 -11 -47t-29.5 -37.5t-42.5 -28.5t-50 -21z" />
    <glyph glyph-name="uni013C" unicode="&#x13c;" horiz-adv-x="298" 
d="M273 36v-36h-248v36l80 14q1 41 1.5 80.5t0.5 79.5v429l-82 10v35l156 45l14 -8l-4 -142v-369q0 -40 0.5 -80t1.5 -80zM58 -222q31 12 52.5 26.5t38.5 39.5q-20 8 -33.5 24t-13.5 36t14 32t33 12q24 0 44 -19q5 -16 7 -26t2 -20q0 -26 -11 -47t-29.5 -37.5t-42.5 -28.5
t-50 -21z" />
    <glyph glyph-name="Lcaron" unicode="&#x13d;" horiz-adv-x="596" 
d="M552 188l-10 -188h-498v41l92 11q2 65 2 129v129v49v130.5t-2 127.5l-92 11v41h283v-41l-92 -11q-2 -65 -2 -129v-129v-68v-115.5t2 -125.5h227l29 138h61zM479 740q20 0 28 -10t8 -27q0 -11 -3 -26t-8 -32.5t-11 -36t-12 -36.5l-19 -54h-32l3 209q23 13 46 13z" />
    <glyph glyph-name="lcaron" unicode="&#x13e;" horiz-adv-x="322" 
d="M273 36v-36h-248v36l80 14q1 41 1.5 80.5t0.5 79.5v429l-82 10v35l156 45l14 -8l-4 -142v-369q0 -40 0.5 -80t1.5 -80zM329 740q20 0 28 -10t8 -27q0 -11 -3 -26t-8 -32.5t-11 -36t-12 -36.5l-19 -54h-32l3 209q23 13 46 13z" />
    <glyph glyph-name="Ldot" unicode="&#x13f;" horiz-adv-x="596" 
d="M552 188l-10 -188h-498v41l92 11q2 65 2 129v129v49v130.5t-2 127.5l-92 11v41h283v-41l-92 -11q-2 -65 -2 -129v-129v-68v-115.5t2 -125.5h227l29 138h61zM469 309q-30 0 -50.5 21t-20.5 50q0 30 20.5 51t50.5 21t50.5 -21t20.5 -51q0 -29 -20.5 -50t-50.5 -21z" />
    <glyph glyph-name="ldot" unicode="&#x140;" horiz-adv-x="363" 
d="M191 210q0 -40 0.5 -80t1.5 -80l80 -14v-36h-248v36l80 14q1 41 1.5 80.5t0.5 79.5v429l-82 10v35l156 45l14 -8l-4 -142v-369zM330 390q29 0 48 -17.5t19 -46.5q0 -28 -19 -46t-48 -18t-48 18t-19 46q0 29 19 46.5t48 17.5z" />
    <glyph glyph-name="Lslash" unicode="&#x141;" horiz-adv-x="596" 
d="M552 188l-10 -188h-498v41l92 11q2 52 2 104v105l-94 -53v57l94 53v41v130.5t-2 127.5l-92 11v41h283v-41l-92 -11q-2 -63 -2 -125v-125l163 93v-57l-163 -94v-18v-115.5t2 -125.5h227l29 138h61z" />
    <glyph glyph-name="lslash" unicode="&#x142;" horiz-adv-x="298" 
d="M273 36v-36h-248v36l80 14q1 41 1.5 80.5t0.5 79.5v127l-82 -43v56l82 43v246l-82 10v35l156 45l14 -8l-4 -142v-148l82 43v-56l-82 -43v-165q0 -40 0.5 -80t1.5 -80z" />
    <glyph glyph-name="Nacute" unicode="&#x143;" horiz-adv-x="735" 
d="M695 628l-85 -13v-625h-35l-400 548v-483l106 -14v-41h-242v41l85 12v555l-9 12l-71 8v41h154l361 -495v441l-105 13v41h241v-41zM403 826q22 21 36 29.5t27 8.5q16 0 27 -9.5t11 -24.5q0 -14 -11 -27t-40 -29l-125 -67l-19 25z" />
    <glyph glyph-name="nacute" unicode="&#x144;" horiz-adv-x="606" 
d="M576 36v-36h-232v36l74 14q1 37 1.5 81t0.5 79v88q0 69 -19 95t-64 26q-35 0 -66.5 -14t-69.5 -46v-149q0 -33 0.5 -77.5t1.5 -82.5l69 -14v-36h-232v36l74 14q1 38 1.5 82t0.5 78v51q0 41 -1 68t-2 57l-79 9v35l140 61l15 -10l8 -81q37 41 84.5 66t94.5 25
q65 0 96.5 -43t31.5 -142v-96q0 -35 0.5 -78.5t1.5 -81.5zM360 715q16 25 29 34t27 9t26 -9t12 -29q0 -11 -6.5 -23.5t-29.5 -32.5l-119 -107l-26 19z" />
    <glyph glyph-name="uni0145" unicode="&#x145;" horiz-adv-x="735" 
d="M695 628l-85 -13v-625h-35l-400 548v-483l106 -14v-41h-242v41l85 12v555l-9 12l-71 8v41h154l361 -495v441l-105 13v41h241v-41zM310 -212q31 12 52.5 26.5t38.5 39.5q-20 8 -33.5 24t-13.5 36t14 32t33 12q24 0 44 -19q5 -16 7 -26t2 -20q0 -26 -11 -47t-29.5 -37.5
t-42.5 -28.5t-50 -21z" />
    <glyph glyph-name="uni0146" unicode="&#x146;" horiz-adv-x="606" 
d="M576 36v-36h-232v36l74 14q1 37 1.5 81t0.5 79v88q0 69 -19 95t-64 26q-35 0 -66.5 -14t-69.5 -46v-149q0 -33 0.5 -77.5t1.5 -82.5l69 -14v-36h-232v36l74 14q1 38 1.5 82t0.5 78v51q0 41 -1 68t-2 57l-79 9v35l140 61l15 -10l8 -81q37 41 84.5 66t94.5 25
q65 0 96.5 -43t31.5 -142v-96q0 -35 0.5 -78.5t1.5 -81.5zM239 -222q31 12 52.5 26.5t38.5 39.5q-20 8 -33.5 24t-13.5 36t14 32t33 12q24 0 44 -19q5 -16 7 -26t2 -20q0 -26 -11 -47t-29.5 -37.5t-42.5 -28.5t-50 -21z" />
    <glyph glyph-name="Ncaron" unicode="&#x147;" horiz-adv-x="735" 
d="M695 628l-85 -13v-625h-35l-400 548v-483l106 -14v-41h-242v41l85 12v555l-9 12l-71 8v41h154l361 -495v441l-105 13v41h241v-41zM502 838l-102 -118h-74l-102 118l24 21l115 -85l115 85z" />
    <glyph glyph-name="ncaron" unicode="&#x148;" horiz-adv-x="606" 
d="M576 36v-36h-232v36l74 14q1 37 1.5 81t0.5 79v88q0 69 -19 95t-64 26q-35 0 -66.5 -14t-69.5 -46v-149q0 -33 0.5 -77.5t1.5 -82.5l69 -14v-36h-232v36l74 14q1 38 1.5 82t0.5 78v51q0 41 -1 68t-2 57l-79 9v35l140 61l15 -10l8 -81q37 41 84.5 66t94.5 25
q65 0 96.5 -43t31.5 -142v-96q0 -35 0.5 -78.5t1.5 -81.5zM452 719l-102 -148h-74l-102 148l24 20l115 -105l115 105z" />
    <glyph glyph-name="Omacron" unicode="&#x14c;" horiz-adv-x="707" 
d="M156 335q0 -57 11.5 -111t35.5 -96t61.5 -67.5t89.5 -25.5t89 25.5t61 67.5t35 96t11 111q0 56 -11 110t-35 96t-61 67.5t-89 25.5t-89.5 -25.5t-61.5 -67.5t-35.5 -96t-11.5 -110zM354 684q58 0 113 -22.5t98 -66.5t69 -109.5t26 -150.5q0 -83 -26 -148t-69 -110
t-98 -68.5t-113 -23.5q-59 0 -114 22.5t-98 66.5t-69 109.5t-26 151.5q0 82 26 147t69 110t98.5 68.5t113.5 23.5zM202 811h302v-62h-302v62z" />
    <glyph glyph-name="omacron" unicode="&#x14d;" horiz-adv-x="549" 
d="M274 445q-65 0 -99.5 -53.5t-34.5 -155.5q0 -101 34.5 -153.5t99.5 -52.5q66 0 100.5 52.5t34.5 153.5q0 102 -34.5 155.5t-100.5 53.5zM274 491q43 0 84.5 -16.5t74 -48.5t52 -79.5t19.5 -109.5t-19.5 -109.5t-51.5 -79t-73.5 -47.5t-85.5 -16t-85 16t-73 47.5t-51.5 79
t-19.5 109.5t19.5 109.5t52 79.5t73.5 48.5t84 16.5zM143 665h262v-63h-262v63z" />
    <glyph glyph-name="Ohungarumlaut" unicode="&#x150;" horiz-adv-x="707" 
d="M156 335q0 -57 11.5 -111t35.5 -96t61.5 -67.5t89.5 -25.5t89 25.5t61 67.5t35 96t11 111q0 56 -11 110t-35 96t-61 67.5t-89 25.5t-89.5 -25.5t-61.5 -67.5t-35.5 -96t-11.5 -110zM354 684q58 0 113 -22.5t98 -66.5t69 -109.5t26 -150.5q0 -83 -26 -148t-69 -110
t-98 -68.5t-113 -23.5q-59 0 -114 22.5t-98 66.5t-69 109.5t-26 151.5q0 82 26 147t69 110t98.5 68.5t113.5 23.5zM297 846q11 23 25.5 32.5t27.5 9.5q14 0 24.5 -9.5t10.5 -24.5q0 -9 -5 -20t-17 -24l-96 -99l-26 18zM450 846q11 23 25 32.5t27 9.5q14 0 25 -9.5t11 -24.5
q0 -9 -5 -20t-17 -24l-96 -99l-26 18z" />
    <glyph glyph-name="ohungarumlaut" unicode="&#x151;" horiz-adv-x="549" 
d="M274 445q-65 0 -99.5 -53.5t-34.5 -155.5q0 -101 34.5 -153.5t99.5 -52.5q66 0 100.5 52.5t34.5 153.5q0 102 -34.5 155.5t-100.5 53.5zM274 491q43 0 84.5 -16.5t74 -48.5t52 -79.5t19.5 -109.5t-19.5 -109.5t-51.5 -79t-73.5 -47.5t-85.5 -16t-85 16t-73 47.5t-51.5 79
t-19.5 109.5t19.5 109.5t52 79.5t73.5 48.5t84 16.5zM227 709q10 27 24.5 37t28.5 10t25 -10t11 -27q0 -8 -4.5 -20.5t-18.5 -30.5l-93 -117l-28 16zM369 709q10 27 25 37t28 10q15 0 25.5 -10t10.5 -27q0 -8 -4 -20.5t-19 -30.5l-92 -117l-28 16z" />
    <glyph glyph-name="OE" unicode="&#x152;" horiz-adv-x="938" 
d="M472 359v129t-2 129q-26 8 -49 12.5t-46 4.5q-59 0 -101 -25t-68 -66.5t-38 -95.5t-12 -112t12 -112t38 -96t68 -67t101 -25q23 0 46 4.5t49 12.5q2 63 2 127.5v130.5v49zM903 178l-7 -178h-376q-43 -8 -77.5 -11.5t-60.5 -3.5q-69 0 -129.5 23.5t-106.5 68t-72.5 109.5
t-26.5 149q0 83 26.5 148t72.5 109.5t106.5 68t129.5 23.5q25 0 60 -3.5t78 -11.5h356l7 -177h-57l-22 127h-235q-2 -63 -2 -126v-128h146l14 95h46v-236h-46l-13 94h-147v-137.5t2 -130.5h255l22 128h57z" />
    <glyph glyph-name="oe" unicode="&#x153;" horiz-adv-x="868" 
d="M274 30q66 0 100.5 52.5t34.5 153.5q0 102 -34.5 155.5t-100.5 53.5q-65 0 -99.5 -53.5t-34.5 -155.5q0 -101 34.5 -153.5t99.5 -52.5zM679 285q35 0 47.5 14t12.5 38q0 21 -8 40.5t-23 34.5t-35 24t-44 9q-21 0 -42.5 -8.5t-40 -27.5t-32 -49.5t-17.5 -74.5h182z
M495 243q1 -92 45 -142.5t118 -50.5q48 0 82 20.5t57 49.5l23 -19q-29 -57 -77 -86.5t-115 -29.5q-60 0 -105 24.5t-71 69.5q-32 -46 -80 -70t-98 -24q-44 0 -85 16t-73 47.5t-51.5 79t-19.5 109.5t19.5 109.5t52 79.5t73.5 48.5t84 16.5q51 0 101 -25.5t81 -73.5
q30 46 78 72.5t100 26.5q40 0 74 -13t59.5 -38t40 -61t14.5 -81q0 -17 -2 -31t-5 -24h-320z" />
    <glyph glyph-name="Racute" unicode="&#x154;" horiz-adv-x="651" 
d="M310 355q81 0 119.5 39.5t38.5 102.5q0 60 -34.5 93t-112.5 33h-86q-2 -65 -2 -129.5v-138.5h77zM637 41v-41q-15 -5 -33.5 -7.5t-41.5 -2.5q-49 0 -76 14t-36 50l-39 160q-8 30 -18.5 49t-26 29.5t-37.5 14t-52 3.5h-44v-131.5t2 -126.5l92 -11v-41h-283v41l92 11
q2 63 2 127.5v130.5v49v129t-2 129l-92 11v41h280q115 0 179 -45.5t64 -125.5q0 -63 -38 -111.5t-124 -64.5q38 -11 62.5 -40t40.5 -84l43 -147zM366 839q22 21 36 29.5t27 8.5q16 0 27 -9.5t11 -24.5q0 -14 -11 -27t-40 -29l-125 -67l-19 25z" />
    <glyph glyph-name="racute" unicode="&#x155;" horiz-adv-x="423" 
d="M200 362q26 61 64.5 95t79.5 34q23 0 43.5 -11.5t24.5 -37.5q0 -26 -17 -40.5t-43 -14.5q-32 0 -57 25l-8 8q-31 -23 -51.5 -55t-34.5 -77v-78q0 -33 0.5 -77t1.5 -82l82 -15v-36h-243v36l72 13q1 38 1.5 82.5t0.5 78.5v51q0 41 -1 68t-2 57l-79 9v35l140 61l15 -10
l11 -119v0zM289 715q16 25 29 34t27 9t26 -9t12 -29q0 -11 -6.5 -23.5t-29.5 -32.5l-119 -107l-26 19z" />
    <glyph glyph-name="uni0156" unicode="&#x156;" horiz-adv-x="651" 
d="M310 355q81 0 119.5 39.5t38.5 102.5q0 60 -34.5 93t-112.5 33h-86q-2 -65 -2 -129.5v-138.5h77zM637 41v-41q-15 -5 -33.5 -7.5t-41.5 -2.5q-49 0 -76 14t-36 50l-39 160q-8 30 -18.5 49t-26 29.5t-37.5 14t-52 3.5h-44v-131.5t2 -126.5l92 -11v-41h-283v41l92 11
q2 63 2 127.5v130.5v49v129t-2 129l-92 11v41h280q115 0 179 -45.5t64 -125.5q0 -63 -38 -111.5t-124 -64.5q38 -11 62.5 -40t40.5 -84l43 -147zM268 -212q31 12 52.5 26.5t38.5 39.5q-20 8 -33.5 24t-13.5 36t14 32t33 12q24 0 44 -19q5 -16 7 -26t2 -20q0 -26 -11 -47
t-29.5 -37.5t-42.5 -28.5t-50 -21z" />
    <glyph glyph-name="uni0157" unicode="&#x157;" horiz-adv-x="423" 
d="M200 362q26 61 64.5 95t79.5 34q23 0 43.5 -11.5t24.5 -37.5q0 -26 -17 -40.5t-43 -14.5q-32 0 -57 25l-8 8q-31 -23 -51.5 -55t-34.5 -77v-78q0 -33 0.5 -77t1.5 -82l82 -15v-36h-243v36l72 13q1 38 1.5 82.5t0.5 78.5v51q0 41 -1 68t-2 57l-79 9v35l140 61l15 -10
l11 -119v0zM79 -222q31 12 52.5 26.5t38.5 39.5q-20 8 -33.5 24t-13.5 36t14 32t33 12q24 0 44 -19q5 -16 7 -26t2 -20q0 -26 -11 -47t-29.5 -37.5t-42.5 -28.5t-50 -21z" />
    <glyph glyph-name="Rcaron" unicode="&#x158;" horiz-adv-x="651" 
d="M310 355q81 0 119.5 39.5t38.5 102.5q0 60 -34.5 93t-112.5 33h-86q-2 -65 -2 -129.5v-138.5h77zM637 41v-41q-15 -5 -33.5 -7.5t-41.5 -2.5q-49 0 -76 14t-36 50l-39 160q-8 30 -18.5 49t-26 29.5t-37.5 14t-52 3.5h-44v-131.5t2 -126.5l92 -11v-41h-283v41l92 11
q2 63 2 127.5v130.5v49v129t-2 129l-92 11v41h280q115 0 179 -45.5t64 -125.5q0 -63 -38 -111.5t-124 -64.5q38 -11 62.5 -40t40.5 -84l43 -147zM460 847l-102 -118h-74l-102 118l24 21l115 -85l115 85z" />
    <glyph glyph-name="rcaron" unicode="&#x159;" horiz-adv-x="423" 
d="M200 362q26 61 64.5 95t79.5 34q23 0 43.5 -11.5t24.5 -37.5q0 -26 -17 -40.5t-43 -14.5q-32 0 -57 25l-8 8q-31 -23 -51.5 -55t-34.5 -77v-78q0 -33 0.5 -77t1.5 -82l82 -15v-36h-243v36l72 13q1 38 1.5 82.5t0.5 78.5v51q0 41 -1 68t-2 57l-79 9v35l140 61l15 -10
l11 -119v0zM370 719l-102 -148h-74l-102 148l24 20l115 -105l115 105z" />
    <glyph glyph-name="Sacute" unicode="&#x15a;" horiz-adv-x="512" 
d="M290 377q49 -19 83.5 -39.5t56.5 -44.5t32 -52.5t10 -63.5q0 -45 -17.5 -80.5t-49 -60t-75 -38t-95.5 -13.5q-57 0 -108.5 15t-86.5 38l6 140h62l20 -118q23 -13 47.5 -19t56.5 -6q71 0 113 32t42 91q0 23 -7.5 40.5t-22.5 31.5t-38 26t-55 24l-39 16q-39 15 -70.5 34
t-54 43t-35 54t-12.5 68q0 44 17 79t47.5 59.5t71.5 37.5t89 13q51 0 91.5 -14t72.5 -38l-6 -131h-61l-21 113q-37 20 -82 20q-57 0 -96 -29.5t-39 -87.5q0 -48 29.5 -76t83.5 -48zM303 839q22 21 36 29.5t27 8.5q16 0 27 -9.5t11 -24.5q0 -14 -11 -27t-40 -29l-125 -67
l-19 25z" />
    <glyph glyph-name="sacute" unicode="&#x15b;" horiz-adv-x="434" 
d="M257 277q75 -28 106 -64t31 -84q0 -28 -12 -54t-36.5 -46t-61 -32t-84.5 -12q-42 0 -77 9.5t-72 28.5l-4 110h55l19 -86q35 -16 81 -16q57 0 85 21t28 56q0 32 -23 51.5t-71 36.5l-46 16q-55 20 -88 52.5t-33 80.5q0 29 12.5 55.5t35 46.5t54.5 32t72 12q41 0 74.5 -10.5
t65.5 -30.5l-4 -102h-52l-16 80q-34 17 -69 17q-46 0 -69.5 -19.5t-23.5 -53.5q0 -30 20.5 -47.5t71.5 -36.5zM266 715q16 25 29 34t27 9t26 -9t12 -29q0 -11 -6.5 -23.5t-29.5 -32.5l-119 -107l-26 19z" />
    <glyph glyph-name="uni015E" unicode="&#x15e;" horiz-adv-x="512" 
d="M290 377q49 -19 83.5 -39.5t56.5 -44.5t32 -52.5t10 -63.5q0 -45 -17.5 -80.5t-49 -60t-75 -38t-95.5 -13.5q-57 0 -108.5 15t-86.5 38l6 140h62l20 -118q23 -13 47.5 -19t56.5 -6q71 0 113 32t42 91q0 23 -7.5 40.5t-22.5 31.5t-38 26t-55 24l-39 16q-39 15 -70.5 34
t-54 43t-35 54t-12.5 68q0 44 17 79t47.5 59.5t71.5 37.5t89 13q51 0 91.5 -14t72.5 -38l-6 -131h-61l-21 113q-37 20 -82 20q-57 0 -96 -29.5t-39 -87.5q0 -48 29.5 -76t83.5 -48zM265 -58q38 -6 65 -26t27 -56q0 -35 -28.5 -57.5t-83.5 -22.5q-22 0 -37.5 3t-25.5 6l7 31
q12 -2 23 -2.5t25 -0.5q29 0 43.5 12t14.5 33q0 23 -17.5 35t-54.5 17l13 89h37z" />
    <glyph glyph-name="uni015F" unicode="&#x15f;" horiz-adv-x="434" 
d="M257 277q75 -28 106 -64t31 -84q0 -28 -12 -54t-36.5 -46t-61 -32t-84.5 -12q-42 0 -77 9.5t-72 28.5l-4 110h55l19 -86q35 -16 81 -16q57 0 85 21t28 56q0 32 -23 51.5t-71 36.5l-46 16q-55 20 -88 52.5t-33 80.5q0 29 12.5 55.5t35 46.5t54.5 32t72 12q41 0 74.5 -10.5
t65.5 -30.5l-4 -102h-52l-16 80q-34 17 -69 17q-46 0 -69.5 -19.5t-23.5 -53.5q0 -30 20.5 -47.5t71.5 -36.5zM225 -58q38 -6 65 -26t27 -56q0 -35 -28.5 -57.5t-83.5 -22.5q-22 0 -37.5 3t-25.5 6l7 31q12 -2 23 -2.5t25 -0.5q29 0 43.5 12t14.5 33q0 23 -17.5 35t-54.5 17
l13 89h37z" />
    <glyph glyph-name="Scaron" unicode="&#x160;" horiz-adv-x="512" 
d="M290 377q49 -19 83.5 -39.5t56.5 -44.5t32 -52.5t10 -63.5q0 -45 -17.5 -80.5t-49 -60t-75 -38t-95.5 -13.5q-57 0 -108.5 15t-86.5 38l6 140h62l20 -118q23 -13 47.5 -19t56.5 -6q71 0 113 32t42 91q0 23 -7.5 40.5t-22.5 31.5t-38 26t-55 24l-39 16q-39 15 -70.5 34
t-54 43t-35 54t-12.5 68q0 44 17 79t47.5 59.5t71.5 37.5t89 13q51 0 91.5 -14t72.5 -38l-6 -131h-61l-21 113q-37 20 -82 20q-57 0 -96 -29.5t-39 -87.5q0 -48 29.5 -76t83.5 -48zM413 847l-102 -118h-74l-102 118l24 21l115 -85l115 85z" />
    <glyph glyph-name="scaron" unicode="&#x161;" horiz-adv-x="434" 
d="M257 277q75 -28 106 -64t31 -84q0 -28 -12 -54t-36.5 -46t-61 -32t-84.5 -12q-42 0 -77 9.5t-72 28.5l-4 110h55l19 -86q35 -16 81 -16q57 0 85 21t28 56q0 32 -23 51.5t-71 36.5l-46 16q-55 20 -88 52.5t-33 80.5q0 29 12.5 55.5t35 46.5t54.5 32t72 12q41 0 74.5 -10.5
t65.5 -30.5l-4 -102h-52l-16 80q-34 17 -69 17q-46 0 -69.5 -19.5t-23.5 -53.5q0 -30 20.5 -47.5t71.5 -36.5zM366 719l-102 -148h-74l-102 148l24 20l115 -105l115 105z" />
    <glyph glyph-name="uni0162" unicode="&#x162;" horiz-adv-x="604" 
d="M351 619q-2 -64 -2 -129v-131v-49v-129t2 -129l102 -11v-41h-302v41l102 11q2 64 2 128v130v49v129.5t-2 130.5h-153l-22 -128h-58l8 178h548l8 -178h-58l-22 128h-153zM310 -58q38 -6 65 -26t27 -56q0 -35 -28.5 -57.5t-83.5 -22.5q-22 0 -37.5 3t-25.5 6l7 31
q12 -2 23 -2.5t25 -0.5q29 0 43.5 12t14.5 33q0 23 -17.5 35t-54.5 17l13 89h37z" />
    <glyph glyph-name="uni0163" unicode="&#x163;" horiz-adv-x="325" 
d="M323 42q-20 -25 -50 -38.5t-68 -13.5q-53 0 -83.5 27.5t-30.5 86.5q0 19 0.5 37.5t0.5 47.5v231h-83v44l89 11l26 136h60l-5 -138h134v-53h-136v-305q0 -38 14.5 -55.5t40.5 -17.5q17 0 32.5 6.5t34.5 20.5zM206 -58q38 -6 65 -26t27 -56q0 -35 -28.5 -57.5t-83.5 -22.5
q-22 0 -37.5 3t-25.5 6l7 31q12 -2 23 -2.5t25 -0.5q29 0 43.5 12t14.5 33q0 23 -17.5 35t-54.5 17l13 89h37z" />
    <glyph glyph-name="Tcaron" unicode="&#x164;" horiz-adv-x="604" 
d="M351 619q-2 -64 -2 -129v-131v-49v-129t2 -129l102 -11v-41h-302v41l102 11q2 64 2 128v130v49v129.5t-2 130.5h-153l-22 -128h-58l8 178h548l8 -178h-58l-22 128h-153zM441 847l-102 -118h-74l-102 118l24 21l115 -85l115 85z" />
    <glyph glyph-name="tcaron" unicode="&#x165;" horiz-adv-x="325" 
d="M323 42q-20 -25 -50 -38.5t-68 -13.5q-53 0 -83.5 27.5t-30.5 86.5q0 19 0.5 37.5t0.5 47.5v231h-83v44l89 11l26 136h60l-5 -138h134v-53h-136v-305q0 -38 14.5 -55.5t40.5 -17.5q17 0 32.5 6.5t34.5 20.5zM300 740q20 0 28 -10t8 -27q0 -11 -3 -26t-8 -32.5t-11 -36
t-12 -36.5l-19 -54h-32l3 209q23 13 46 13z" />
    <glyph glyph-name="Umacron" unicode="&#x16a;" horiz-adv-x="727" 
d="M693 628l-87 -11v-343q0 -79 -18 -134t-50 -89.5t-76 -50t-95 -15.5q-54 0 -99 15.5t-77 48t-49.5 83t-17.5 120.5v108v129t-2 129l-83 10v41h283v-41l-102 -12q-2 -63 -2 -126.5v-129.5v-79q0 -64 11.5 -107t33 -69.5t52.5 -37.5t69 -11q42 0 74 13t53.5 41.5t32.5 75
t11 112.5v317l-102 13v41h240v-41zM231 811h302v-62h-302v62z" />
    <glyph glyph-name="umacron" unicode="&#x16b;" horiz-adv-x="583" 
d="M549 36v-36l-139 -10l-10 89q-41 -50 -86.5 -72t-90.5 -22q-30 0 -54.5 9.5t-41.5 31t-25.5 55.5t-8.5 84l3 251l-71 15v36l147 14l10 -10l-5 -140v-157q0 -66 19.5 -91.5t60.5 -25.5q35 0 70 16t70 48l3 295l-71 15v36l145 14l10 -10l-3 -140v-281zM158 665h262v-63
h-262v63z" />
    <glyph glyph-name="Uring" unicode="&#x16e;" horiz-adv-x="727" 
d="M693 628l-87 -11v-343q0 -79 -18 -134t-50 -89.5t-76 -50t-95 -15.5q-54 0 -99 15.5t-77 48t-49.5 83t-17.5 120.5v108v129t-2 129l-83 10v41h283v-41l-102 -12q-2 -63 -2 -126.5v-129.5v-79q0 -64 11.5 -107t33 -69.5t52.5 -37.5t69 -11q42 0 74 13t53.5 41.5t32.5 75
t11 112.5v317l-102 13v41h240v-41zM385 722q-18 0 -35.5 6t-31 18t-21.5 29t-8 39t8 39t21.5 29t31 18.5t35.5 6.5t35.5 -6t31 -18t21.5 -29.5t8 -39.5q0 -21 -8 -38t-21.5 -29t-31 -18.5t-35.5 -6.5zM385 757q25 0 38.5 18t13.5 39q0 22 -13 39t-39 17q-25 0 -38.5 -17
t-13.5 -39q0 -21 13 -39t39 -18z" />
    <glyph glyph-name="uring" unicode="&#x16f;" horiz-adv-x="583" 
d="M549 36v-36l-139 -10l-10 89q-41 -50 -86.5 -72t-90.5 -22q-30 0 -54.5 9.5t-41.5 31t-25.5 55.5t-8.5 84l3 251l-71 15v36l147 14l10 -10l-5 -140v-157q0 -66 19.5 -91.5t60.5 -25.5q35 0 70 16t70 48l3 295l-71 15v36l145 14l10 -10l-3 -140v-281zM287 579
q27 0 42 19.5t15 42.5t-14.5 42.5t-42.5 19.5q-27 0 -42 -19.5t-15 -42.5t14.5 -42.5t42.5 -19.5zM287 540q-20 0 -39 6.5t-33.5 19.5t-23.5 32t-9 43t9 42.5t23.5 31.5t33.5 20t39 7t39 -6.5t33.5 -19.5t23.5 -31.5t9 -43.5q0 -24 -9 -42.5t-23.5 -31.5t-33.5 -20t-39 -7z
" />
    <glyph glyph-name="Uhungarumlaut" unicode="&#x170;" horiz-adv-x="727" 
d="M693 628l-87 -11v-343q0 -79 -18 -134t-50 -89.5t-76 -50t-95 -15.5q-54 0 -99 15.5t-77 48t-49.5 83t-17.5 120.5v108v129t-2 129l-83 10v41h283v-41l-102 -12q-2 -63 -2 -126.5v-129.5v-79q0 -64 11.5 -107t33 -69.5t52.5 -37.5t69 -11q42 0 74 13t53.5 41.5t32.5 75
t11 112.5v317l-102 13v41h240v-41zM336 846q11 23 25.5 32.5t27.5 9.5q14 0 24.5 -9.5t10.5 -24.5q0 -9 -5 -20t-17 -24l-96 -99l-26 18zM489 846q11 23 25 32.5t27 9.5q14 0 25 -9.5t11 -24.5q0 -9 -5 -20t-17 -24l-96 -99l-26 18z" />
    <glyph glyph-name="uhungarumlaut" unicode="&#x171;" horiz-adv-x="583" 
d="M549 36v-36l-139 -10l-10 89q-41 -50 -86.5 -72t-90.5 -22q-30 0 -54.5 9.5t-41.5 31t-25.5 55.5t-8.5 84l3 251l-71 15v36l147 14l10 -10l-5 -140v-157q0 -66 19.5 -91.5t60.5 -25.5q35 0 70 16t70 48l3 295l-71 15v36l145 14l10 -10l-3 -140v-281zM234 709
q10 27 24.5 37t28.5 10t25 -10t11 -27q0 -8 -4.5 -20.5t-18.5 -30.5l-93 -117l-28 16zM376 709q10 27 25 37t28 10q15 0 25.5 -10t10.5 -27q0 -8 -4 -20.5t-19 -30.5l-92 -117l-28 16z" />
    <glyph glyph-name="Uogonek" unicode="&#x172;" horiz-adv-x="727" 
d="M693 628l-87 -12v-342q0 -53 -8 -93.5t-22.5 -71.5t-35 -53t-44.5 -38q-38 -26 -56.5 -55t-18.5 -59q0 -32 19.5 -50t48.5 -18q11 0 24.5 3t27.5 12l12 -23q-18 -26 -44 -37t-55 -11q-45 0 -70.5 23t-25.5 65q0 35 18 66.5t47 54.5q-12 -2 -24 -3t-25 -1q-57 0 -103 15.5
t-79 48t-50.5 83t-17.5 120.5v108v130t-2 128l-83 10v41h283v-41l-102 -12q-2 -63 -2 -127v-129v-79q0 -64 11.5 -107t32.5 -69.5t51 -37.5t67 -11q44 0 77 13t54.5 41.5t32.5 75t11 112.5v318l-102 12v41h240v-41z" />
    <glyph glyph-name="uogonek" unicode="&#x173;" horiz-adv-x="583" 
d="M580 -172q-19 -26 -45.5 -37t-59.5 -11q-41 0 -66 23t-25 65q0 39 26.5 72t62.5 55l-63 -5l-10 89q-41 -50 -86.5 -72t-90.5 -22q-30 0 -54.5 9.5t-41.5 31t-25.5 55.5t-8.5 84l3 251l-71 15v36l147 14l10 -10l-5 -140v-157q0 -66 19.5 -91.5t60.5 -25.5q35 0 70 16
t70 48l3 295l-71 15v36l145 14l10 -10l-3 -140v-281l68 -14v-36l-40 -3q-29 -20 -45.5 -44t-16.5 -49q0 -32 19.5 -50t49.5 -18q10 0 23.5 3t28.5 12z" />
    <glyph glyph-name="Ydieresis" unicode="&#x178;" horiz-adv-x="633" 
d="M365 263v-28v-80t2 -103l102 -11v-41h-302v41l102 11q2 54 2 102.5v80.5v24l-177 360l-79 9v41h282v-41l-95 -11l139 -303l143 302l-90 12v41h229v-41l-88 -13zM226 737q-23 0 -40.5 16t-17.5 39q0 24 17.5 39.5t40.5 15.5q24 0 40.5 -15.5t16.5 -39.5q0 -23 -16.5 -39
t-40.5 -16zM449 737q-24 0 -40.5 16t-16.5 39q0 24 16.5 39.5t40.5 15.5q23 0 40.5 -15.5t17.5 -39.5q0 -23 -17.5 -39t-40.5 -16z" />
    <glyph glyph-name="Zacute" unicode="&#x179;" horiz-adv-x="551" 
d="M531 178l-8 -178h-503v36l379 583h-281l-27 -128h-61l8 178h471v-35l-378 -584h312l27 128h61zM323 839q22 21 36 29.5t27 8.5q16 0 27 -9.5t11 -24.5q0 -14 -11 -27t-40 -29l-125 -67l-19 25z" />
    <glyph glyph-name="zacute" unicode="&#x17a;" horiz-adv-x="456" 
d="M431 163l-10 -163h-392v35l286 395h-201l-27 -111l-52 4l8 150h373v-36l-285 -395h218l30 121h52zM277 715q16 25 29 34t27 9t26 -9t12 -29q0 -11 -6.5 -23.5t-29.5 -32.5l-119 -107l-26 19z" />
    <glyph glyph-name="Zdotaccent" unicode="&#x17b;" horiz-adv-x="551" 
d="M531 178l-8 -178h-503v36l379 583h-281l-27 -128h-61l8 178h471v-35l-378 -584h312l27 128h61zM296 736q-28 0 -47.5 18t-19.5 46q0 29 19.5 46.5t47.5 17.5t47.5 -17.5t19.5 -46.5q0 -28 -19.5 -46t-47.5 -18z" />
    <glyph glyph-name="zdotaccent" unicode="&#x17c;" horiz-adv-x="456" 
d="M431 163l-10 -163h-392v35l286 395h-201l-27 -111l-52 4l8 150h373v-36l-285 -395h218l30 121h52zM236 598q-29 0 -48 18t-19 46q0 29 19 46.5t48 17.5t48 -17.5t19 -46.5q0 -28 -19 -46t-48 -18z" />
    <glyph glyph-name="Zcaron" unicode="&#x17d;" horiz-adv-x="551" 
d="M531 178l-8 -178h-503v36l379 583h-281l-27 -128h-61l8 178h471v-35l-378 -584h312l27 128h61zM416 847l-102 -118h-74l-102 118l24 21l115 -85l115 85z" />
    <glyph glyph-name="zcaron" unicode="&#x17e;" horiz-adv-x="456" 
d="M431 163l-10 -163h-392v35l286 395h-201l-27 -111l-52 4l8 150h373v-36l-285 -395h218l30 121h52zM378 719l-102 -148h-74l-102 148l24 20l115 -105l115 105z" />
    <glyph glyph-name="longs" unicode="&#x17f;" horiz-adv-x="344" 
d="M107 422q0 53 5 94t14 73t22 56t30 43q33 35 69.5 48t71.5 13q36 0 62 -13t34 -41q-1 -20 -17 -32.5t-43 -12.5q-19 0 -35.5 6.5t-36.5 23.5l-26 20q-21 -17 -34 -41q-17 -31 -24.5 -83t-7.5 -144v-222q0 -40 0.5 -79.5t1.5 -79.5l90 -15v-36h-258v36l80 14
q1 41 1.5 80.5t0.5 79.5v212z" />
    <glyph glyph-name="uni0192" unicode="&#x192;" horiz-adv-x="500" 
d="M220 396q8 78 25 126.5t47 81.5q29 31 62.5 43t65.5 12q42 0 68.5 -15.5t34.5 -38.5q-3 -20 -17.5 -32.5t-39.5 -12.5q-17 0 -34 7t-35 26l-22 23q-26 -17 -39 -40q-18 -30 -24 -71.5t-11 -108.5h125v-51h-129l-10 -112q-5 -55 -11.5 -98t-15.5 -76t-21.5 -58.5
t-31.5 -45.5q-29 -31 -61.5 -43t-64.5 -12q-42 0 -69.5 15.5t-35.5 38.5q4 20 18 32.5t39 12.5q19 0 36 -7t34 -26l23 -23q25 15 39 40q10 18 16 39.5t10 49.5t6.5 63.5t6.5 81.5l11 128h-112v51h117z" />
    <glyph glyph-name="uni0218" unicode="&#x218;" horiz-adv-x="512" 
d="M290 377q49 -19 83.5 -39.5t56.5 -44.5t32 -52.5t10 -63.5q0 -45 -17.5 -80.5t-49 -60t-75 -38t-95.5 -13.5q-57 0 -108.5 15t-86.5 38l6 140h62l20 -118q23 -13 47.5 -19t56.5 -6q71 0 113 32t42 91q0 23 -7.5 40.5t-22.5 31.5t-38 26t-55 24l-39 16q-39 15 -70.5 34
t-54 43t-35 54t-12.5 68q0 44 17 79t47.5 59.5t71.5 37.5t89 13q51 0 91.5 -14t72.5 -38l-6 -131h-61l-21 113q-37 20 -82 20q-57 0 -96 -29.5t-39 -87.5q0 -48 29.5 -76t83.5 -48zM172 -222q31 12 52.5 26.5t38.5 39.5q-20 8 -33.5 24t-13.5 36t14 32t33 12q24 0 44 -19
q5 -16 7 -26t2 -20q0 -26 -11 -47t-29.5 -37.5t-42.5 -28.5t-50 -21z" />
    <glyph glyph-name="uni0219" unicode="&#x219;" horiz-adv-x="434" 
d="M257 277q75 -28 106 -64t31 -84q0 -28 -12 -54t-36.5 -46t-61 -32t-84.5 -12q-42 0 -77 9.5t-72 28.5l-4 110h55l19 -86q35 -16 81 -16q57 0 85 21t28 56q0 32 -23 51.5t-71 36.5l-46 16q-55 20 -88 52.5t-33 80.5q0 29 12.5 55.5t35 46.5t54.5 32t72 12q41 0 74.5 -10.5
t65.5 -30.5l-4 -102h-52l-16 80q-34 17 -69 17q-46 0 -69.5 -19.5t-23.5 -53.5q0 -30 20.5 -47.5t71.5 -36.5zM124 -222q31 12 52.5 26.5t38.5 39.5q-20 8 -33.5 24t-13.5 36t14 32t33 12q24 0 44 -19q5 -16 7 -26t2 -20q0 -26 -11 -47t-29.5 -37.5t-42.5 -28.5t-50 -21z
" />
    <glyph glyph-name="uni021A" unicode="&#x21a;" horiz-adv-x="604" 
d="M351 619q-2 -64 -2 -129v-131v-49v-129t2 -129l102 -11v-41h-302v41l102 11q2 64 2 128v130v49v129.5t-2 130.5h-153l-22 -128h-58l8 178h548l8 -178h-58l-22 128h-153zM213 -222q31 12 52.5 26.5t38.5 39.5q-20 8 -33.5 24t-13.5 36t14 32t33 12q24 0 44 -19
q5 -16 7 -26t2 -20q0 -26 -11 -47t-29.5 -37.5t-42.5 -28.5t-50 -21z" />
    <glyph glyph-name="uni021B" unicode="&#x21b;" horiz-adv-x="325" 
d="M323 42q-20 -25 -50 -38.5t-68 -13.5q-53 0 -83.5 27.5t-30.5 86.5q0 19 0.5 37.5t0.5 47.5v231h-83v44l89 11l26 136h60l-5 -138h134v-53h-136v-305q0 -38 14.5 -55.5t40.5 -17.5q17 0 32.5 6.5t34.5 20.5zM100 -222q31 12 52.5 26.5t38.5 39.5q-20 8 -33.5 24t-13.5 36
t14 32t33 12q24 0 44 -19q5 -16 7 -26t2 -20q0 -26 -11 -47t-29.5 -37.5t-42.5 -28.5t-50 -21z" />
    <glyph glyph-name="h.sups" unicode="&#x2b0;" horiz-adv-x="412" 
d="M392 455v-30h-160v30l47 8v157q0 41 -11.5 58t-40.5 17q-21 0 -42.5 -11t-47.5 -34v-186l46 -9v-30h-162v30l48 9v370l-53 6v28l109 30l10 -5v-209q27 35 57.5 50t62.5 15q45 0 68.5 -27.5t23.5 -87.5v-170z" />
    <glyph glyph-name="j.sups" unicode="&#x2b2;" horiz-adv-x="193" 
d="M128 748l11 -7v-267q0 -36 -1.5 -62t-6 -46t-13 -34.5t-21.5 -27.5q-18 -21 -40 -29.5t-47 -8.5q-36 0 -53 12.5t-20 28.5q9 36 44 36q28 0 55 -28l10 -10q2 2 3 4l2 4q7 12 11 25t6 31.5t2.5 44t0.5 61.5v202l-53 6v24zM104 900q20 0 34.5 -12.5t14.5 -32.5t-14.5 -33
t-34.5 -13t-34 13t-14 33t14 32.5t34 12.5z" />
    <glyph glyph-name="r.sups" unicode="&#x2b3;" horiz-adv-x="293" 
d="M143 662q17 41 44 64t55 23q14 0 28 -8t18 -30q0 -20 -12 -32t-31 -12q-21 0 -43 23l-4 5q-20 -15 -33 -34t-22 -42v-154l56 -10v-30h-170v30l46 8v211l-52 6v28l100 41l11 -6z" />
    <glyph glyph-name="w.sups" unicode="&#x2b7;" horiz-adv-x="527" 
d="M521 706l-40 -7l-101 -281h-27l-90 224l-87 -224h-27l-109 283l-40 5v31h159v-31l-46 -6l66 -175l70 175l-47 6v31h152v-31l-45 -6l72 -174l61 173l-47 7v31h126v-31z" />
    <glyph glyph-name="y.sups" unicode="&#x2b8;" horiz-adv-x="348" 
d="M344 706l-41 -7l-104 -285q-28 -76 -61.5 -110.5t-76.5 -34.5q-26 0 -45 12.5t-19 34.5q4 16 16.5 22.5t26.5 6.5q12 0 25 -4t29 -18l7 -7q20 14 34.5 35.5t26.5 51.5l-123 296l-40 7v31h173v-31l-59 -8l83 -201l70 202l-55 7v31h133v-31z" />
    <glyph glyph-name="uni02BB" unicode="&#x2bb;" horiz-adv-x="212" 
d="M194 722q-36 -29 -59 -54.5t-39 -65.5l29 -26q23 -20 31 -37.5t8 -36.5q0 -30 -16 -44.5t-43 -14.5q-15 0 -28.5 4.5t-25.5 15.5q-14 34 -14 71q0 33 11 63.5t30 58.5t44 51.5t53 41.5z" />
    <glyph glyph-name="uni02BC" unicode="&#x2bc;" horiz-adv-x="212" 
d="M87 616q-23 20 -31 37.5t-8 36.5q0 30 16 44.5t43 14.5q15 0 28.5 -4.5t25.5 -15.5q14 -34 14 -71q0 -33 -11 -63.5t-30 -58.5t-44 -51.5t-53 -41.5l-19 27q18 15 32.5 28t26.5 27t21.5 29.5t17.5 35.5z" />
    <glyph glyph-name="circumflex" unicode="&#x2c6;" horiz-adv-x="400" 
d="M326 556l-126 107l-126 -107l-23 22l132 176h34l132 -176z" />
    <glyph glyph-name="caron" unicode="&#x2c7;" horiz-adv-x="400" 
d="M339 719l-102 -148h-74l-102 148l24 20l115 -105l115 105z" />
    <glyph glyph-name="uni02C9" unicode="&#x2c9;" horiz-adv-x="400" 
d="M69 665h262v-63h-262v63z" />
    <glyph glyph-name="uni02CA" unicode="&#x2ca;" horiz-adv-x="400" 
d="M218 715q16 25 29 34t27 9t26 -9t12 -29q0 -11 -6.5 -23.5t-29.5 -32.5l-119 -107l-26 19z" />
    <glyph glyph-name="uni02CB" unicode="&#x2cb;" horiz-adv-x="400" 
d="M242 557l-120 107q-23 20 -29.5 32.5t-6.5 23.5q0 20 12 29t26 9t27.5 -9t28.5 -34l87 -139z" />
    <glyph glyph-name="breve" unicode="&#x2d8;" horiz-adv-x="400" 
d="M200 575q-35 0 -61.5 12.5t-45 33t-30 47t-14.5 55.5l30 11q15 -38 44.5 -64t76.5 -26t77 26t44 64l30 -11q-3 -29 -14.5 -55.5t-30 -47t-45.5 -33t-61 -12.5z" />
    <glyph glyph-name="dotaccent" unicode="&#x2d9;" horiz-adv-x="400" 
d="M200 598q-29 0 -48 18t-19 46q0 29 19 46.5t48 17.5t48 -17.5t19 -46.5q0 -28 -19 -46t-48 -18z" />
    <glyph glyph-name="ring" unicode="&#x2da;" horiz-adv-x="400" 
d="M200 579q27 0 42 19.5t15 42.5t-14.5 42.5t-42.5 19.5q-27 0 -42 -19.5t-15 -42.5t14.5 -42.5t42.5 -19.5zM200 540q-20 0 -39 6.5t-33.5 19.5t-23.5 32t-9 43t9 42.5t23.5 31.5t33.5 20t39 7t39 -6.5t33.5 -19.5t23.5 -31.5t9 -43.5q0 -24 -9 -42.5t-23.5 -31.5
t-33.5 -20t-39 -7z" />
    <glyph glyph-name="ogonek" unicode="&#x2db;" horiz-adv-x="400" 
d="M98 -132q0 23 8 44.5t22 40.5t32.5 34.5t38.5 25.5h29q-32 -20 -49 -49.5t-17 -59.5q0 -32 19 -50t48 -18q10 0 24 3t29 12l13 -25q-18 -25 -47 -35.5t-56 -10.5q-42 0 -68 23t-26 65z" />
    <glyph glyph-name="tilde" unicode="&#x2dc;" horiz-adv-x="400" 
d="M271 573q-23 0 -43.5 11t-42.5 33q-20 20 -34 29.5t-30 9.5q-21 0 -34.5 -16.5t-13.5 -54.5h-34q-1 5 -1.5 11.5t-0.5 11.5q0 51 28 80.5t68 29.5q23 0 43.5 -11t42.5 -32q20 -20 34.5 -29.5t30.5 -9.5q20 0 33.5 16.5t13.5 54.5h34q1 -5 1.5 -10.5t0.5 -13.5
q0 -51 -28 -80.5t-68 -29.5z" />
    <glyph glyph-name="hungarumlaut" unicode="&#x2dd;" horiz-adv-x="400" 
d="M113 709q10 27 24.5 37t28.5 10t25 -10t11 -27q0 -8 -4.5 -20.5t-18.5 -30.5l-93 -117l-28 16zM255 709q10 27 25 37t28 10q15 0 25.5 -10t10.5 -27q0 -8 -4 -20.5t-19 -30.5l-92 -117l-28 16z" />
    <glyph glyph-name="l.sups" unicode="&#x2e1;" horiz-adv-x="204" 
d="M188 455v-30h-170v30l51 9v370l-53 6v28l111 30l10 -5v-429z" />
    <glyph glyph-name="s.sups" unicode="&#x2e2;" horiz-adv-x="301" 
d="M181 615q51 -18 72 -43t21 -57q0 -42 -34 -71t-100 -29q-30 0 -54.5 7.5t-50.5 22.5l-2 74h40l11 -55q14 -8 28 -11t32 -3q71 0 71 43q0 20 -15 32t-50 24l-31 11q-38 14 -60 37t-22 57q0 41 32.5 68t89.5 27q28 0 51 -6.5t46 -18.5l-4 -70h-37l-10 50q-23 10 -46 10
q-63 0 -63 -40q0 -17 13 -28t51 -24z" />
    <glyph glyph-name="x.sups" unicode="&#x2e3;" horiz-adv-x="350" 
d="M343 455v-30h-163v30l40 7l-63 89l-63 -88l45 -8v-30h-132v30l48 8l85 113l-87 124l-43 6v31h150v-31l-34 -5l62 -84l61 83l-40 6v31h121v-31l-41 -7l-84 -107l90 -128z" />
    <glyph glyph-name="uni0300" unicode="&#x300;" horiz-adv-x="0" 
d="M41 557l-120 107q-23 20 -29.5 32.5t-6.5 23.5q0 20 12 29t26 9t27.5 -9t28.5 -34l87 -139z" />
    <glyph glyph-name="uni0301" unicode="&#x301;" horiz-adv-x="0" 
d="M17 715q16 25 29 34t27 9t26 -9t12 -29q0 -11 -6.5 -23.5t-29.5 -32.5l-119 -107l-26 19z" />
    <glyph glyph-name="uni0302" unicode="&#x302;" horiz-adv-x="0" 
d="M126 556l-126 107l-126 -107l-23 22l132 176h34l132 -176z" />
    <glyph glyph-name="uni0303" unicode="&#x303;" horiz-adv-x="0" 
d="M69 573q-23 0 -43.5 11t-42.5 33q-20 20 -34 29.5t-30 9.5q-21 0 -34.5 -16.5t-13.5 -54.5h-34q-1 5 -1.5 11.5t-0.5 11.5q0 51 28 80.5t68 29.5q23 0 43.5 -11t42.5 -32q20 -20 34.5 -29.5t30.5 -9.5q20 0 33.5 16.5t13.5 54.5h34q1 -5 1.5 -10.5t0.5 -13.5
q0 -51 -28 -80.5t-68 -29.5z" />
    <glyph glyph-name="uni0304" unicode="&#x304;" horiz-adv-x="0" 
d="M-131 665h262v-63h-262v63z" />
    <glyph glyph-name="uni0306" unicode="&#x306;" horiz-adv-x="0" 
d="M0 575q-35 0 -61.5 12.5t-45 33t-30 47t-14.5 55.5l30 11q15 -38 44.5 -64t76.5 -26t77 26t44 64l30 -11q-3 -29 -14.5 -55.5t-30 -47t-45.5 -33t-61 -12.5z" />
    <glyph glyph-name="uni0307" unicode="&#x307;" horiz-adv-x="0" 
d="M0 598q-29 0 -48 18t-19 46q0 29 19 46.5t48 17.5t48 -17.5t19 -46.5q0 -28 -19 -46t-48 -18z" />
    <glyph glyph-name="uni0308" unicode="&#x308;" horiz-adv-x="0" 
d="M101 586q-24 0 -41 15.5t-17 39.5t17 39.5t41 15.5q23 0 40 -15.5t17 -39.5t-17 -39.5t-40 -15.5zM-101 586q-23 0 -40 15.5t-17 39.5t17 39.5t40 15.5q24 0 41 -15.5t17 -39.5t-17 -39.5t-41 -15.5z" />
    <glyph glyph-name="uni030A" unicode="&#x30a;" horiz-adv-x="0" 
d="M0 579q27 0 42 19.5t15 42.5t-14.5 42.5t-42.5 19.5q-27 0 -42 -19.5t-15 -42.5t14.5 -42.5t42.5 -19.5zM0 540q-20 0 -39 6.5t-33.5 19.5t-23.5 32t-9 43t9 42.5t23.5 31.5t33.5 20t39 7t39 -6.5t33.5 -19.5t23.5 -31.5t9 -43.5q0 -24 -9 -42.5t-23.5 -31.5t-33.5 -20
t-39 -7z" />
    <glyph glyph-name="uni030B" unicode="&#x30b;" horiz-adv-x="0" 
d="M-69 709q10 27 24.5 37t28.5 10t25 -10t11 -27q0 -8 -4.5 -20.5t-18.5 -30.5l-93 -117l-28 16zM73 709q10 27 25 37t28 10q15 0 25.5 -10t10.5 -27q0 -8 -4 -20.5t-19 -30.5l-92 -117l-28 16z" />
    <glyph glyph-name="uni030C" unicode="&#x30c;" horiz-adv-x="0" 
d="M139 719l-102 -148h-74l-102 148l24 20l115 -105l115 105z" />
    <glyph glyph-name="uni0326" unicode="&#x326;" horiz-adv-x="0" 
d="M-83 -222q31 12 52.5 26.5t38.5 39.5q-20 8 -33.5 24t-13.5 36t14 32t33 12q24 0 44 -19q5 -16 7 -26t2 -20q0 -26 -11 -47t-29.5 -37.5t-42.5 -28.5t-50 -21z" />
    <glyph glyph-name="uni0327" unicode="&#x327;" horiz-adv-x="0" 
d="M16 -58q38 -6 65 -26t27 -56q0 -35 -28.5 -57.5t-83.5 -22.5q-22 0 -37.5 3t-25.5 6l7 31q12 -2 23 -2.5t25 -0.5q29 0 43.5 12t14.5 33q0 23 -17.5 35t-54.5 17l13 89h37z" />
    <glyph glyph-name="uni0328" unicode="&#x328;" horiz-adv-x="0" 
d="M-97 -132q0 23 8 44.5t22 40.5t32.5 34.5t38.5 25.5h29q-32 -20 -49 -49.5t-17 -59.5q0 -32 19 -50t48 -18q10 0 24 3t29 12l13 -25q-18 -25 -47 -35.5t-56 -10.5q-42 0 -68 23t-26 65z" />
    <glyph glyph-name="pi" unicode="&#x3c0;" horiz-adv-x="626" 
d="M561 25q-21 -20 -41.5 -27.5t-44.5 -7.5q-51 0 -73 27.5t-22 75.5q0 15 0.5 36t1.5 55.5t2.5 86.5t2.5 129h-155l-23 -399q-8 -7 -19 -11.5t-29 -4.5q-19 0 -31.5 12t-12.5 40t5.5 52.5t11.5 50.5l47 258l-142 -9v42q21 17 62.5 29.5t92.5 12.5h393v-43
q-17 -14 -53.5 -21t-90.5 -9v-274q0 -33 13 -47t34 -14q14 0 26 2.5t20 6.5l6 3l19 -52v0z" />
    <glyph glyph-name="a.sups" unicode="&#x1d43;" horiz-adv-x="351" 
d="M216 597q-17 -5 -31.5 -9.5t-24.5 -8.5q-38 -14 -50 -31t-12 -36q0 -23 14 -35q13 -14 37 -14q14 0 27 7.5t40 25.5v101zM345 459q-11 -23 -26.5 -32t-35.5 -9q-28 0 -44 14t-21 38q-26 -26 -47 -40t-53 -14q-38 0 -64 21.5t-26 61.5q0 15 5 29t18 26.5t35.5 24.5
t57.5 23q15 5 34 10l38 10v18q0 46 -13.5 62t-48.5 16q-13 0 -31 -3l-10 -38q-4 -23 -15 -33.5t-26 -10.5q-30 0 -35 30q8 38 44.5 62t93.5 24t83 -27t26 -91v-143q0 -31 20 -31q8 0 13.5 3.5t12.5 11.5z" />
    <glyph glyph-name="b.sups" unicode="&#x1d47;" horiz-adv-x="397" 
d="M137 494q20 -16 39 -24.5t41 -8.5q33 0 56 26t23 94q0 36 -5.5 59.5t-15.5 37.5t-24 20t-30 6q-21 0 -41 -9t-43 -26v-175zM137 704q23 22 47 33.5t53 11.5q26 0 49.5 -10t41 -30t28 -51t10.5 -74q0 -42 -11 -73.5t-29.5 -52.5t-44 -32t-54.5 -11q-55 0 -94 43l-5 -42
l-107 9v28l48 9v372l-53 6v28l108 30l13 -5v-189z" />
    <glyph glyph-name="d.sups" unicode="&#x1d48;" horiz-adv-x="390" 
d="M260 668q-42 36 -75 36q-19 0 -34.5 -6t-27 -20t-17.5 -37.5t-6 -58.5q0 -36 7 -59.5t18.5 -37t27 -19t32.5 -5.5q20 0 38 8t37 24v175zM379 452v-27l-110 -7l-7 47q-21 -23 -45 -36.5t-54 -13.5q-26 0 -50 9.5t-42.5 30t-30 52t-11.5 75.5q0 42 11.5 73.5t31.5 52.5
t45.5 31t54.5 10q27 0 48 -11.5t40 -33.5v130l-53 6v28l111 30l10 -5v-431z" />
    <glyph glyph-name="e.sups" unicode="&#x1d49;" horiz-adv-x="351" 
d="M217 611q25 0 33 9.5t8 26.5q0 33 -21 50t-50 17q-14 0 -28 -5t-26 -17t-21 -31.5t-12 -49.5h117zM99 579q2 -57 31 -84.5t75 -27.5q34 0 56 12.5t40 35.5l17 -13q-18 -41 -51 -64t-79 -23q-72 0 -115 43.5t-43 122.5q0 37 12.5 68t34.5 53.5t51 34.5t61 12q57 0 94 -37
t37 -97q0 -10 -1 -19t-3 -17h-217z" />
    <glyph glyph-name="g.sups" unicode="&#x1d4d;" horiz-adv-x="357" 
d="M161 564q30 0 46.5 22t16.5 57t-15.5 56t-44.5 21t-45.5 -22t-16.5 -57t15 -56t44 -21zM142 408q-26 0 -45 6q-20 -24 -20 -50q0 -31 23.5 -44t65.5 -13q55 0 83 16.5t28 41.5q0 18 -14 30.5t-49 12.5h-72zM341 696h-65q14 -23 14 -54q0 -48 -34.5 -77t-92.5 -29
q-31 0 -52 7q-12 -15 -12 -32t11 -25t41 -8h69q63 0 90.5 -23.5t27.5 -65.5q0 -23 -11.5 -44t-33.5 -37.5t-55 -26t-76 -9.5q-77 0 -110 22.5t-33 55.5q0 21 14 38t48 33q-20 11 -29 26.5t-9 32.5q0 21 10.5 38t35.5 34q-53 26 -53 90q0 49 34.5 77.5t92.5 28.5q59 0 93 -28
l75 27l10 -6v-45z" />
    <glyph glyph-name="k.sups" unicode="&#x1d4f;" horiz-adv-x="374" 
d="M366 455v-30h-93l-96 152l-40 -41v-72l51 -9v-30h-170v30l51 9v370l-53 6v28l111 30l10 -5v-316l115 122l-49 7v31h156v-31l-65 -8l-72 -74l98 -160z" />
    <glyph glyph-name="m.sups" unicode="&#x1d50;" horiz-adv-x="617" 
d="M598 455v-30h-161v30l48 9v155q0 43 -12 59.5t-38 16.5q-20 0 -42 -12t-46 -31q1 -5 1 -9.5v-9.5v-169l45 -9v-30h-160v30l48 9v155q0 43 -12 59.5t-38 16.5q-19 0 -41 -11.5t-46 -30.5v-189l44 -9v-30h-160v30l48 9v210l-53 6v28l100 41l11 -6l8 -59q25 34 53 49.5
t60 15.5t54.5 -16t32.5 -50q26 35 56 50.5t62 15.5q92 0 92 -116v-169z" />
    <glyph glyph-name="o.sups" unicode="&#x1d52;" horiz-adv-x="377" 
d="M189 714q-91 0 -91 -132q0 -69 23 -100.5t68 -31.5q43 0 66.5 31.5t23.5 100.5q0 67 -23.5 99.5t-66.5 32.5zM189 749q30 0 59 -11.5t51.5 -33t36 -52.5t13.5 -70q0 -40 -13.5 -71t-35.5 -52.5t-51 -32.5t-60 -11q-32 0 -61 11.5t-51 33t-35.5 52.5t-13.5 70t13.5 70
t36 52.5t51.5 33t60 11.5z" />
    <glyph glyph-name="p.sups" unicode="&#x1d56;" horiz-adv-x="401" 
d="M144 497q22 -19 40.5 -27.5t38.5 -8.5q33 0 56 26t23 94q0 36 -5.5 59.5t-16 37.5t-24.5 20t-30 6q-23 0 -41.5 -9.5t-40.5 -27.5v-170zM142 696q23 26 47.5 39.5t55.5 13.5q25 0 48 -10t40.5 -30t28 -51t10.5 -74q0 -42 -11 -73.5t-30 -52.5t-43.5 -32t-52.5 -11
q-53 0 -91 45v-148l57 -10v-30h-177v30l52 10v362l-53 6v28l101 41l10 -6z" />
    <glyph glyph-name="t.sups" unicode="&#x1d57;" horiz-adv-x="226" 
d="M225 462q-13 -19 -34.5 -31.5t-50.5 -12.5q-32 0 -56 19t-24 61v197h-53v37l58 7l17 90h48l-2 -92h87v-42h-87v-180q0 -24 9.5 -35t25.5 -11q10 0 21 3.5t24 12.5z" />
    <glyph glyph-name="u.sups" unicode="&#x1d58;" horiz-adv-x="401" 
d="M378 455v-30l-99 -7l-10 63q-51 -66 -116 -66q-45 0 -69 27.5t-24 90.5v163l-42 8v28l103 11l7 -6v-192q0 -45 14 -60t34 -15q23 0 46 12.5t45 30.5v183l-42 8v27l104 12l6 -6v-272z" />
    <glyph glyph-name="v.sups" unicode="&#x1d5b;" horiz-adv-x="349" 
d="M344 706l-40 -7l-112 -281h-30l-122 281l-40 7v31h167v-31l-51 -8l79 -192l71 193l-53 7v31h131v-31z" />
    <glyph glyph-name="c.sups" unicode="&#x1d9c;" horiz-adv-x="332" 
d="M315 505q-14 -42 -47 -66t-84 -24q-70 0 -112 44t-42 122q0 39 13.5 70.5t36 53t51.5 33t61 11.5q24 0 45 -7t37.5 -19t26.5 -28.5t13 -35.5q-6 -30 -34 -30q-17 0 -28 12t-16 41l-5 28q-13 4 -35 4q-42 0 -69.5 -30.5t-27.5 -93.5t29.5 -93t75.5 -30q34 0 55.5 12.5
t37.5 36.5z" />
    <glyph glyph-name="f.sups" unicode="&#x1da0;" horiz-adv-x="231" 
d="M76 738q5 51 17.5 81t39.5 56q19 20 44 28t49 8q25 0 43.5 -9.5t23.5 -27.5q-2 -17 -12 -28t-27 -11q-14 0 -26 9.5t-27 26.5l-10 10q-16 -8 -24 -21q-13 -18 -19.5 -48t-5.5 -75h89v-42h-88v-230l59 -10v-30h-178v30l51 9v231h-53v37z" />
    <glyph glyph-name="z.sups" unicode="&#x1dbb;" horiz-adv-x="309" 
d="M294 533l-7 -108h-270v25l189 256h-129l-18 -70l-38 3l5 98h260v-25l-187 -255h139l19 76h37z" />
    <glyph glyph-name="uni1E44" unicode="&#x1e44;" horiz-adv-x="735" 
d="M695 628l-85 -13v-625h-35l-400 548v-483l106 -14v-41h-242v41l85 12v555l-9 12l-71 8v41h154l361 -495v441l-105 13v41h241v-41zM367 718q-28 0 -47.5 18t-19.5 46q0 29 19.5 46.5t47.5 17.5t47.5 -17.5t19.5 -46.5q0 -28 -19.5 -46t-47.5 -18z" />
    <glyph glyph-name="uni1E45" unicode="&#x1e45;" horiz-adv-x="606" 
d="M576 36v-36h-232v36l74 14q1 37 1.5 81t0.5 79v88q0 69 -19 95t-64 26q-35 0 -66.5 -14t-69.5 -46v-149q0 -33 0.5 -77.5t1.5 -82.5l69 -14v-36h-232v36l74 14q1 38 1.5 82t0.5 78v51q0 41 -1 68t-2 57l-79 9v35l140 61l15 -10l8 -81q37 41 84.5 66t94.5 25
q65 0 96.5 -43t31.5 -142v-96q0 -35 0.5 -78.5t1.5 -81.5zM322 598q-29 0 -48 18t-19 46q0 29 19 46.5t48 17.5t48 -17.5t19 -46.5q0 -28 -19 -46t-48 -18z" />
    <glyph glyph-name="uni2007" unicode="&#x2007;" horiz-adv-x="500" 
 />
    <glyph glyph-name="figuredash" unicode="&#x2012;" horiz-adv-x="500" 
d="M40 284h420v-66h-420v66z" />
    <glyph glyph-name="endash" unicode="&#x2013;" horiz-adv-x="512" 
d="M40 284h432v-66h-432v66z" />
    <glyph glyph-name="emdash" unicode="&#x2014;" horiz-adv-x="812" 
d="M40 284h732v-66h-732v66z" />
    <glyph glyph-name="uni2015" unicode="&#x2015;" horiz-adv-x="812" 
d="M40 284h732v-66h-732v66z" />
    <glyph glyph-name="quoteleft" unicode="&#x2018;" horiz-adv-x="212" 
d="M194 722q-36 -29 -59 -54.5t-39 -65.5l29 -26q23 -20 31 -37.5t8 -36.5q0 -30 -16 -44.5t-43 -14.5q-15 0 -28.5 4.5t-25.5 15.5q-14 34 -14 71q0 33 11 63.5t30 58.5t44 51.5t53 41.5z" />
    <glyph glyph-name="quoteright" unicode="&#x2019;" horiz-adv-x="212" 
d="M87 616q-23 20 -31 37.5t-8 36.5q0 30 16 44.5t43 14.5q15 0 28.5 -4.5t25.5 -15.5q14 -34 14 -71q0 -33 -11 -63.5t-30 -58.5t-44 -51.5t-53 -41.5l-19 27q18 15 32.5 28t26.5 27t21.5 29.5t17.5 35.5z" />
    <glyph glyph-name="quotesinglbase" unicode="&#x201a;" horiz-adv-x="212" 
d="M87 18q-23 20 -31 37.5t-8 36.5q0 30 16 44.5t43 14.5q15 0 28.5 -4.5t25.5 -15.5q14 -34 14 -71q0 -33 -11 -63.5t-30 -58.5t-44 -51.5t-53 -41.5l-19 27q18 15 32.5 28t26.5 27t21.5 29.5t17.5 35.5z" />
    <glyph glyph-name="quotedblleft" unicode="&#x201c;" horiz-adv-x="415" 
d="M194 722q-36 -29 -59 -54.5t-39 -65.5l29 -26q23 -20 31 -37.5t8 -36.5q0 -30 -16 -44.5t-43 -14.5q-15 0 -28.5 4.5t-25.5 15.5q-14 34 -14 71q0 33 11 63.5t30 58.5t44 51.5t53 41.5zM397 722q-36 -29 -59 -54.5t-39 -65.5l29 -26q23 -20 31 -37.5t8 -36.5
q0 -30 -16 -44.5t-43 -14.5q-15 0 -28.5 4.5t-25.5 15.5q-14 34 -14 71q0 33 11 63.5t30 58.5t44 51.5t53 41.5z" />
    <glyph glyph-name="quotedblright" unicode="&#x201d;" horiz-adv-x="415" 
d="M87 616q-23 20 -31 37.5t-8 36.5q0 30 16 44.5t43 14.5q15 0 28.5 -4.5t25.5 -15.5q14 -34 14 -71q0 -33 -11 -63.5t-30 -58.5t-44 -51.5t-53 -41.5l-19 27q18 15 32.5 28t26.5 27t21.5 29.5t17.5 35.5zM290 616q-23 20 -31 37.5t-8 36.5q0 30 16 44.5t43 14.5
q15 0 28.5 -4.5t25.5 -15.5q14 -34 14 -71q0 -33 -11 -63.5t-30 -58.5t-44 -51.5t-53 -41.5l-19 27q18 15 32.5 28t26.5 27t21.5 29.5t17.5 35.5z" />
    <glyph glyph-name="quotedblbase" unicode="&#x201e;" horiz-adv-x="415" 
d="M87 18q-23 20 -31 37.5t-8 36.5q0 30 16 44.5t43 14.5q15 0 28.5 -4.5t25.5 -15.5q14 -34 14 -71q0 -33 -11 -63.5t-30 -58.5t-44 -51.5t-53 -41.5l-19 27q18 15 32.5 28t26.5 27t21.5 29.5t17.5 35.5zM290 18q-23 20 -31 37.5t-8 36.5q0 30 16 44.5t43 14.5
q15 0 28.5 -4.5t25.5 -15.5q14 -34 14 -71q0 -33 -11 -63.5t-30 -58.5t-44 -51.5t-53 -41.5l-19 27q18 15 32.5 28t26.5 27t21.5 29.5t17.5 35.5z" />
    <glyph glyph-name="dagger" unicode="&#x2020;" horiz-adv-x="511" 
d="M324 510q24 5 52 10.5t48 5.5q26 0 37 -12t11 -32t-11 -32t-37 -12q-20 0 -48 5.5t-52 10.5l-52 11q6 -25 10.5 -45t7.5 -38t4.5 -35.5t1.5 -38.5q0 -32 -7 -126.5t-20 -253.5h-27q-13 159 -20 253.5t-7 126.5q0 21 1.5 38.5t4.5 35.5t7.5 38t10.5 45l-52 -11
q-24 -5 -52 -10t-48 -5q-26 0 -36.5 11.5t-10.5 31.5t10.5 32t36.5 12q20 0 48 -5.5t52 -10.5l52 -11l-10 52q-2 10 -5 26t-5.5 33t-4.5 33t-2 27q0 26 12 36.5t32 10.5t31.5 -10.5t11.5 -36.5q0 -11 -2 -27t-4.5 -33t-5 -33t-4.5 -26l-11 -52z" />
    <glyph glyph-name="daggerdbl" unicode="&#x2021;" horiz-adv-x="511" 
d="M324 172q24 5 52 10.5t48 5.5q26 0 37 -12t11 -32t-11 -32t-37 -12q-20 0 -48 5.5t-52 10.5l-52 11l11 -52q2 -11 4.5 -26.5t5 -32t4.5 -32.5t2 -27q0 -26 -11.5 -37t-31.5 -11t-32 11t-12 37q0 11 2 27t4.5 32.5t5.5 32t5 26.5l10 52l-52 -11q-24 -5 -52 -10.5t-48 -5.5
q-26 0 -36.5 12t-10.5 32t10.5 32t36.5 12q20 0 48 -5.5t52 -10.5l52 -11q-6 25 -10.5 44.5t-7.5 36.5t-4.5 34.5t-1.5 37.5t1.5 37t4.5 34t7.5 36.5t10.5 43.5l-52 -11q-24 -5 -52 -10t-48 -5q-26 0 -36.5 11.5t-10.5 31.5t10.5 32t36.5 12q20 0 48 -5.5t52 -10.5l52 -11
l-10 52q-2 10 -5 26t-5.5 33t-4.5 33t-2 27q0 26 12 36.5t32 10.5t31.5 -10.5t11.5 -36.5q0 -11 -2 -27t-4.5 -33t-5 -33t-4.5 -26l-11 -52l52 11q24 5 52 10.5t48 5.5q26 0 37 -12t11 -32t-11 -32t-37 -12q-20 0 -48 5.5t-52 10.5l-52 11q6 -24 10.5 -43t7.5 -36.5
t4.5 -34.5t1.5 -37q0 -21 -1.5 -38t-4.5 -34.5t-7.5 -36.5t-10.5 -44z" />
    <glyph glyph-name="bullet" unicode="&#x2022;" horiz-adv-x="305" 
d="M153 217q-22 0 -42 8t-35.5 23t-24.5 36t-9 46t9 45.5t24.5 35.5t35.5 23t42 8t42 -8t35.5 -23t24.5 -35.5t9 -45.5t-9 -46t-24.5 -36t-35.5 -23t-42 -8z" />
    <glyph glyph-name="ellipsis" unicode="&#x2026;" horiz-adv-x="900" 
d="M150 -15q-30 0 -50.5 21t-20.5 50q0 30 20.5 51t50.5 21t50.5 -21t20.5 -51q0 -29 -20.5 -50t-50.5 -21zM450 -15q-30 0 -50.5 21t-20.5 50q0 30 20.5 51t50.5 21t50.5 -21t20.5 -51q0 -29 -20.5 -50t-50.5 -21zM750 -15q-30 0 -50.5 21t-20.5 50q0 30 20.5 51t50.5 21
t50.5 -21t20.5 -51q0 -29 -20.5 -50t-50.5 -21z" />
    <glyph glyph-name="perthousand" unicode="&#x2030;" horiz-adv-x="1196" 
d="M189 0l465 669l31 -25l-465 -669zM142 452q0 -54 5.5 -87t15 -52t22 -25.5t25.5 -6.5t25 6.5t21 25.5t14.5 52t5.5 87t-5.5 87t-14.5 52t-21 25.5t-25 6.5t-25.5 -6.5t-22 -25t-15 -52t-5.5 -87.5zM210 657q27 0 52 -11.5t44.5 -36.5t31 -63.5t11.5 -93.5
q0 -54 -11.5 -93t-31 -63.5t-44.5 -36t-52 -11.5t-52.5 11.5t-45 36t-31.5 63.5t-12 93q0 55 12 93.5t31.5 63.5t45 36.5t52.5 11.5zM585 199q0 -54 5.5 -87t15 -52t22 -25.5t25.5 -6.5t25 6.5t21 25.5t14.5 52t5.5 87t-5.5 87t-14.5 52t-21 25.5t-25 6.5t-25.5 -6.5
t-22 -25t-15 -52t-5.5 -87.5zM653 404q27 0 52 -11.5t44.5 -36.5t31 -63.5t11.5 -93.5q0 -54 -11.5 -93t-31 -63.5t-44.5 -36t-52 -11.5t-52.5 11.5t-45 36t-31.5 63.5t-12 93q0 55 12 93.5t31.5 63.5t45 36.5t52.5 11.5zM931 199q0 -54 5.5 -87t15 -52t22 -25.5t25.5 -6.5
t25 6.5t21 25.5t14.5 52t5.5 87t-5.5 87t-14.5 52t-21 25.5t-25 6.5t-25.5 -6.5t-22 -25t-15 -52t-5.5 -87.5zM999 404q27 0 52 -11.5t44.5 -36.5t31 -63.5t11.5 -93.5q0 -54 -11.5 -93t-31 -63.5t-44.5 -36t-52 -11.5t-52.5 11.5t-45 36t-31.5 63.5t-12 93q0 55 12 93.5
t31.5 63.5t45 36.5t52.5 11.5z" />
    <glyph glyph-name="uni2032" unicode="&#x2032;" horiz-adv-x="249" 
d="M135 737q23 0 34 -15t11 -37q0 -28 -15 -77t-36 -107l-26 -72l-38 1l16 288q28 19 54 19z" />
    <glyph glyph-name="uni2033" unicode="&#x2033;" horiz-adv-x="431" 
d="M135 737q23 0 34 -15t11 -37q0 -28 -15 -77t-36 -107l-26 -72l-38 1l16 288q28 19 54 19zM317 737q23 0 34 -15t11 -37q0 -28 -15 -77t-36 -107l-26 -72l-38 1l16 288q28 19 54 19z" />
    <glyph glyph-name="guilsinglleft" unicode="&#x2039;" horiz-adv-x="285" 
d="M109 253l150 -176l-24 -27l-205 176v53l205 176l24 -27z" />
    <glyph glyph-name="guilsinglright" unicode="&#x203a;" horiz-adv-x="285" 
d="M255 279v-53l-205 -176l-24 27l150 176l-150 175l24 27z" />
    <glyph glyph-name="fraction" unicode="&#x2044;" horiz-adv-x="140" 
d="M-178 0l465 669l31 -25l-465 -669z" />
    <glyph glyph-name="zero.sups" unicode="&#x2070;" 
d="M118 623q0 -54 5.5 -87t15 -52t22 -25.5t25.5 -6.5t25 6.5t21 25.5t14.5 52t5.5 87t-5.5 87t-14.5 52t-21 25.5t-25 6.5t-25.5 -6.5t-22 -25t-15 -52t-5.5 -87.5zM186 828q27 0 52 -11.5t44.5 -36.5t31 -63.5t11.5 -93.5q0 -54 -11.5 -93t-31 -63.5t-44.5 -36t-52 -11.5
t-52.5 11.5t-45 36t-31.5 63.5t-12 93q0 55 12 93.5t31.5 63.5t45 36.5t52.5 11.5z" />
    <glyph glyph-name="i.sups" unicode="&#x2071;" horiz-adv-x="205" 
d="M107 809q-20 0 -34 13t-14 33t14 32.5t34 12.5t34.5 -12.5t14.5 -32.5t-14.5 -33t-34.5 -13zM186 455v-30h-162v30l48 9v210l-51 6v28l109 41l10 -6v-279z" />
    <glyph glyph-name="four.sups" unicode="&#x2074;" 
d="M202 583v173l-121 -173h121zM331 526h-64v-101h-65v101h-170v46l188 256h47v-245h64v-57z" />
    <glyph glyph-name="five.sups" unicode="&#x2075;" 
d="M120 669q30 6 59 6q31 0 57.5 -8t46 -23.5t30.5 -39.5t11 -56t-11.5 -56.5t-31.5 -41t-47 -25.5t-58 -9q-58 0 -90.5 26t-38.5 64q7 33 38 33q14 0 22.5 -10.5t14.5 -38.5l7 -35q21 -6 40 -6q36 0 59 25t23 70q0 42 -22.5 64.5t-68.5 22.5q-15 0 -30.5 -2t-29.5 -5
l-18 12l14 185h214v-70h-184z" />
    <glyph glyph-name="six.sups" unicode="&#x2076;" 
d="M197 449q29 0 47 22.5t18 70.5t-19 67t-50 19q-36 0 -70 -25q0 -81 19.5 -117.5t54.5 -36.5zM300 805q-81 -16 -123.5 -60.5t-50.5 -104.5q35 31 85 31q57 0 88.5 -32t31.5 -89q0 -33 -10.5 -58t-29 -42t-43 -25.5t-52.5 -8.5q-34 0 -61.5 12.5t-46.5 35t-29 53.5t-10 69
q0 43 16 86t47 77.5t77.5 57.5t106.5 27z" />
    <glyph glyph-name="seven.sups" unicode="&#x2077;" 
d="M323 821v-41l-151 -355h-64l-6 6l166 320h-212v70h267z" />
    <glyph glyph-name="eight.sups" unicode="&#x2078;" 
d="M185 448q35 0 53 20.5t18 46.5q0 24 -20 43t-76 45q-25 -17 -36.5 -39.5t-11.5 -46.5q0 -32 21 -50.5t52 -18.5zM125 742q0 -10 3.5 -20t12.5 -20.5t24.5 -21.5t40.5 -23q23 19 31 37.5t8 39.5q0 64 -58 64q-26 0 -44 -14t-18 -42zM236 643q42 -22 64 -48.5t22 -64.5
q0 -53 -38.5 -83.5t-100.5 -30.5q-59 0 -96.5 25t-37.5 73q0 35 21 60t61 43q-35 20 -51 47.5t-16 58.5q0 26 10 46t27 34t39.5 21t48.5 7q52 0 83.5 -27t31.5 -68q0 -23 -14.5 -46.5t-53.5 -46.5z" />
    <glyph glyph-name="nine.sups" unicode="&#x2079;" 
d="M189 623q32 0 58 17q1 6 1 12.5v12.5q0 71 -18.5 101.5t-51.5 30.5q-26 0 -46.5 -20t-20.5 -68t22.5 -67t55.5 -19zM80 445q77 23 114 61t48 95q-30 -21 -73 -21q-55 0 -91.5 31.5t-36.5 88.5q0 28 10.5 52.5t29.5 41.5t44.5 27t55.5 10q66 0 103.5 -46t37.5 -127
q0 -48 -16.5 -89t-47 -72.5t-74 -52t-97.5 -28.5z" />
    <glyph glyph-name="parenleft.sups" unicode="&#x207d;" horiz-adv-x="252" 
d="M118 597q0 -32 4.5 -63t16 -62.5t30 -65.5t46.5 -71l-21 -19q-69 58 -105 128t-36 153t36 153t105 130l21 -20q-28 -38 -46.5 -71.5t-30 -65t-16 -62.5t-4.5 -64z" />
    <glyph glyph-name="parenright.sups" unicode="&#x207e;" horiz-adv-x="252" 
d="M134 597q0 33 -5 64t-16 62.5t-30 65t-46 71.5l21 20q141 -120 141 -283q0 -164 -141 -281l-21 19q27 37 46 71t30 65.5t16 62.5t5 63z" />
    <glyph glyph-name="n.sups" unicode="&#x207f;" horiz-adv-x="416" 
d="M396 455v-30h-161v30l48 9v156q0 42 -11.5 58.5t-37.5 16.5q-23 0 -44 -10t-47 -32v-189l45 -9v-30h-160v30l47 8v211l-52 6v28l100 41l11 -6l7 -57q27 35 55.5 49t61.5 14q46 0 69.5 -27.5t23.5 -87.5v-170z" />
    <glyph glyph-name="zero.subs" unicode="&#x2080;" 
d="M118 -13q0 -54 5.5 -87t15 -52t22 -25.5t25.5 -6.5t25 6.5t21 25.5t14.5 52t5.5 87t-5.5 87t-14.5 52t-21 25.5t-25 6.5t-25.5 -6.5t-22 -25t-15 -52t-5.5 -87.5zM186 192q27 0 52 -11.5t44.5 -36.5t31 -63.5t11.5 -93.5q0 -54 -11.5 -93t-31 -63.5t-44.5 -36t-52 -11.5
t-52.5 11.5t-45 36t-31.5 63.5t-12 93q0 55 12 93.5t31.5 63.5t45 36.5t52.5 11.5z" />
    <glyph glyph-name="one.subs" unicode="&#x2081;" 
d="M315 -182v-29h-249v29l90 16v295l-77 -6v37l139 32l9 -6v-352z" />
    <glyph glyph-name="two.subs" unicode="&#x2082;" 
d="M323 -141v-70h-269v50l93 89q45 43 66.5 80t21.5 75t-20 58t-55 20q-6 0 -12.5 -0.5t-13.5 -1.5l-10 -39q-7 -29 -16 -39.5t-23 -10.5q-24 0 -37 24q2 25 14 44t31 32t43 19t51 6q33 0 56 -9t37.5 -23.5t21 -33t6.5 -38.5q0 -22 -7.5 -42t-23.5 -41.5t-40 -46t-58 -55.5
l-51 -47h195z" />
    <glyph glyph-name="three.subs" unicode="&#x2083;" 
d="M132 123q-4 -23 -14.5 -32.5t-24.5 -9.5q-11 0 -20 5t-14 16q6 48 41 70.5t83 22.5q56 0 90 -26.5t34 -71.5q0 -35 -20.5 -61.5t-54.5 -36.5q45 -8 69 -35t24 -69q0 -31 -12.5 -52.5t-33 -35.5t-46.5 -20.5t-54 -6.5q-59 0 -92.5 24.5t-41.5 70.5q5 15 14.5 20.5
t20.5 5.5q14 0 24 -9.5t15 -38.5l8 -36q15 -4 33 -4q45 0 68.5 22.5t23.5 62.5q0 37 -22 58t-71 21h-30v40h25q82 0 82 72q0 35 -19.5 53.5t-53.5 18.5q-5 0 -11 -0.5t-13 -1.5z" />
    <glyph glyph-name="four.subs" unicode="&#x2084;" 
d="M202 -53v173l-121 -173h121zM331 -110h-64v-101h-65v101h-170v46l188 256h47v-245h64v-57z" />
    <glyph glyph-name="five.subs" unicode="&#x2085;" 
d="M120 33q30 6 59 6q31 0 57.5 -8t46 -23.5t30.5 -39.5t11 -56t-11.5 -56.5t-31.5 -41t-47 -25.5t-58 -9q-58 0 -90.5 26t-38.5 64q7 33 38 33q14 0 22.5 -10.5t14.5 -38.5l7 -35q21 -6 40 -6q36 0 59 25t23 70q0 42 -22.5 64.5t-68.5 22.5q-15 0 -30.5 -2t-29.5 -5l-18 12
l14 185h214v-70h-184z" />
    <glyph glyph-name="six.subs" unicode="&#x2086;" 
d="M197 -187q29 0 47 22.5t18 70.5t-19 67t-50 19q-36 0 -70 -25q0 -81 19.5 -117.5t54.5 -36.5zM300 169q-81 -16 -123.5 -60.5t-50.5 -104.5q35 31 85 31q57 0 88.5 -32t31.5 -89q0 -33 -10.5 -58t-29 -42t-43 -25.5t-52.5 -8.5q-34 0 -61.5 12.5t-46.5 35t-29 53.5
t-10 69q0 43 16 86t47 77.5t77.5 57.5t106.5 27z" />
    <glyph glyph-name="seven.subs" unicode="&#x2087;" 
d="M323 185v-41l-151 -355h-64l-6 6l166 320h-212v70h267z" />
    <glyph glyph-name="eight.subs" unicode="&#x2088;" 
d="M185 -188q35 0 53 20.5t18 46.5q0 24 -20 43t-76 45q-25 -17 -36.5 -39.5t-11.5 -46.5q0 -32 21 -50.5t52 -18.5zM125 106q0 -10 3.5 -20t12.5 -20.5t24.5 -21.5t40.5 -23q23 19 31 37.5t8 39.5q0 64 -58 64q-26 0 -44 -14t-18 -42zM236 7q42 -22 64 -48.5t22 -64.5
q0 -53 -38.5 -83.5t-100.5 -30.5q-59 0 -96.5 25t-37.5 73q0 35 21 60t61 43q-35 20 -51 47.5t-16 58.5q0 26 10 46t27 34t39.5 21t48.5 7q52 0 83.5 -27t31.5 -68q0 -23 -14.5 -46.5t-53.5 -46.5z" />
    <glyph glyph-name="nine.subs" unicode="&#x2089;" 
d="M189 -13q32 0 58 17q1 6 1 12.5v12.5q0 71 -18.5 101.5t-51.5 30.5q-26 0 -46.5 -20t-20.5 -68t22.5 -67t55.5 -19zM80 -191q77 23 114 61t48 95q-30 -21 -73 -21q-55 0 -91.5 31.5t-36.5 88.5q0 28 10.5 52.5t29.5 41.5t44.5 27t55.5 10q66 0 103.5 -46t37.5 -127
q0 -48 -16.5 -89t-47 -72.5t-74 -52t-97.5 -28.5z" />
    <glyph glyph-name="parenleft.subs" unicode="&#x208d;" horiz-adv-x="252" 
d="M118 -39q0 -32 4.5 -63t16 -62.5t30 -65.5t46.5 -71l-21 -19q-69 58 -105 128t-36 153t36 153t105 130l21 -20q-28 -38 -46.5 -71.5t-30 -65t-16 -62.5t-4.5 -64z" />
    <glyph glyph-name="parenright.subs" unicode="&#x208e;" horiz-adv-x="252" 
d="M134 -39q0 33 -5 64t-16 62.5t-30 65t-46 71.5l21 20q141 -120 141 -283q0 -164 -141 -281l-21 19q27 37 46 71t30 65.5t16 62.5t5 63z" />
    <glyph glyph-name="Euro" unicode="&#x20ac;" horiz-adv-x="500" 
d="M379 82q10 41 26.5 54t35.5 13q17 0 29 -8.5t15 -25.5q-4 -29 -18.5 -52.5t-37 -41t-52 -27t-64.5 -9.5q-48 0 -89 17.5t-72.5 49.5t-52.5 78.5t-30 104.5h-58v50h53q-1 9 -1 18v19v15t1 15h-53v50h58q9 60 30.5 107.5t54 80.5t75 51t92.5 18q71 0 115 -36t53 -93
q-5 -19 -19 -28t-30 -9q-19 0 -33 14t-25 53l-15 52q-10 2 -18 2h-13q-69 0 -114.5 -54t-59.5 -158h223v-50h-227q-1 -8 -1 -15v-15v-19t1 -18h227v-50h-222q14 -100 58.5 -152.5t113.5 -52.5q12 0 30 3z" />
    <glyph glyph-name="uni20B9" unicode="&#x20b9;" horiz-adv-x="500" 
d="M438 594h-132q16 -14 27.5 -30.5t17.5 -36.5h87v-51h-80q0 -29 -8 -56t-25.5 -49.5t-45.5 -39.5t-69 -24q38 -11 60 -39t40 -82l47 -138l84 -9v-39q-14 -5 -31 -7.5t-41 -2.5q-46 0 -71 13t-36 48l-47 151q-9 28 -19.5 45t-25.5 26.5t-35.5 12.5t-48.5 3h-38v51h79
q70 0 103 37t34 99h-216v51h208q-23 67 -119 67h-89v50h390v-50z" />
    <glyph glyph-name="uni20BA" unicode="&#x20ba;" horiz-adv-x="500" 
d="M386 138q-2 14 -2.5 23t-0.5 17q0 37 16.5 49.5t35.5 12.5q31 0 42 -29q0 -54 -21 -96t-56.5 -71t-83 -44t-100.5 -15q-26 0 -52 3t-51 12q1 50 2 105t1 131l-90 -51v57l90 51v69l-90 -51v57l90 51q0 51 -0.5 93t-1.5 82l-88 10v40h266v-40l-89 -10q-1 -33 -1.5 -66
t-0.5 -66l140 79v-57l-140 -79v-69l140 79v-57l-140 -79v-247q7 -1 14 -1h14q49 0 89 17t72 48z" />
    <glyph glyph-name="uni2113" unicode="&#x2113;" horiz-adv-x="467" 
d="M164 376q0 -54 4 -97t11 -78q84 93 123.5 187.5t39.5 190.5q0 67 -19 96t-51 29q-20 0 -39 -14t-34.5 -50.5t-25 -100.5t-9.5 -163zM466 64q-29 -31 -68.5 -55t-95.5 -24q-51 0 -94 25.5t-73 79.5q-18 -16 -37.5 -31t-39.5 -29l-27 37q23 17 43 34t40 35
q-17 44 -25.5 100.5t-8.5 128.5q0 111 16.5 184.5t44 118t63 63t73.5 18.5q66 0 104 -45t38 -130q0 -107 -58.5 -216.5t-164.5 -212.5q21 -54 52.5 -76.5t69.5 -22.5q40 0 70 17.5t53 37.5z" />
    <glyph glyph-name="uni2117" unicode="&#x2117;" horiz-adv-x="755" 
d="M389 318q54 0 76.5 24.5t22.5 63.5q0 44 -21.5 66t-69.5 22h-33v-176h25zM408 532q72 0 109.5 -34t37.5 -92q0 -25 -9.5 -47.5t-30 -39.5t-54 -27t-81.5 -10h-16v-99l64 -7v-33h-186v33l60 6v309l-60 6v35h166zM378 25q63 0 117.5 21.5t94 62t62.5 98.5t23 130t-23 128.5
t-62.5 96.5t-94 61t-117.5 21t-117.5 -21t-94 -60.5t-62.5 -96.5t-23 -129t23 -130t62.5 -98.5t94 -62t117.5 -21.5zM378 684q72 0 135.5 -23.5t110.5 -68.5t74 -109.5t27 -145.5q0 -82 -27 -147t-74 -110.5t-110.5 -70t-135.5 -24.5q-73 0 -136.5 24.5t-110.5 70t-74 110.5
t-27 147q0 81 27 145.5t74 109.5t110.5 68.5t136.5 23.5z" />
    <glyph glyph-name="uni2120" unicode="&#x2120;" horiz-adv-x="685" 
d="M158 549q47 -20 65 -40.5t18 -49.5q0 -41 -31 -66.5t-86 -25.5q-25 0 -50 6t-44 18l3 67h38l9 -57q22 -8 43 -8q27 0 42.5 12t15.5 30q0 29 -45 49l-21 10q-40 20 -61.5 39.5t-21.5 52.5q0 39 28 64t78 25q24 0 46 -6t38 -17l-3 -63h-37l-10 56q-18 5 -32 5
q-22 0 -37 -11t-15 -28t13 -30t34 -22zM618 638v-231l36 -4v-28h-138v28l37 4v186l-98 -218h-18l-96 213v-179l39 -6v-28h-108v28l40 6v229l-34 3v28h90l97 -202l93 202h96v-28z" />
    <glyph glyph-name="trademark" unicode="&#x2122;" horiz-adv-x="722" 
d="M278 585h-34l-8 55h-59v-232l41 -5v-28h-147v28l41 5v232h-59l-8 -55h-33l2 84h262zM655 638v-231l37 -4v-28h-139v28l37 4v186l-98 -218h-18l-96 213v-179l39 -6v-28h-107v28l39 6v229l-34 3v28h90l97 -202l93 202h97v-28z" />
    <glyph glyph-name="uni2126" unicode="&#x2126;" horiz-adv-x="776" 
d="M773 200l-20 -200h-317v67q35 27 63.5 65.5t48.5 84t31 95.5t11 100q0 103 -54 162.5t-148 59.5q-95 0 -148.5 -59t-53.5 -162q0 -50 11 -100.5t31 -96t48 -84t63 -65.5v-67h-317l-19 200h61l30 -118h157v2q-33 27 -64 61t-54 75t-37 87.5t-14 97.5q0 70 25 122t67.5 87
t98 52.5t115.5 17.5t115.5 -17.5t98 -52t67.5 -86.5t25 -122q0 -51 -14 -98t-37 -88t-53.5 -75t-64.5 -61v-2h158l29 118h61z" />
    <glyph glyph-name="estimated" unicode="&#x212e;" horiz-adv-x="800" 
d="M176 128q0 -6 2.5 -10.5t5.5 -9.5q41 -47 97 -73.5t121 -26.5q68 0 127 30.5t101 81.5h52q-50 -60 -123 -96t-159 -36q-74 0 -138.5 26.5t-112.5 72t-75.5 106.5t-27.5 131t27.5 131t75.5 106.5t112.5 72t138.5 26.5q73 0 137.5 -26.5t112.5 -72t76 -106.5t28 -131v-8
h-574q-4 0 -4 -4v-184zM620 334q6 0 6 6v184q0 12 -10 22q-42 44 -97 69t-117 25q-65 0 -120.5 -26.5t-97.5 -71.5q-3 -5 -5.5 -10.5t-2.5 -11.5v-180q0 -6 4 -6h440z" />
    <glyph glyph-name="onethird" unicode="&#x2153;" horiz-adv-x="861" 
d="M182 0l465 669l31 -25l-465 -669zM315 283v-29h-249v29l90 16v295l-77 -6v37l139 32l9 -6v-352zM589 335q-4 -23 -14.5 -32.5t-24.5 -9.5q-11 0 -20 5t-14 16q6 48 41 70.5t83 22.5q56 0 90 -26.5t34 -71.5q0 -35 -20.5 -61.5t-54.5 -36.5q45 -8 69 -35t24 -69
q0 -31 -12.5 -52.5t-33 -35.5t-46.5 -20.5t-54 -6.5q-59 0 -92.5 24.5t-41.5 70.5q5 15 14.5 20.5t20.5 5.5q14 0 24 -9.5t15 -38.5l8 -36q15 -4 33 -4q45 0 68.5 22.5t23.5 62.5q0 37 -22 58t-71 21h-30v40h25q82 0 82 72q0 35 -19.5 53.5t-53.5 18.5q-5 0 -11 -0.5
t-13 -1.5z" />
    <glyph glyph-name="twothirds" unicode="&#x2154;" horiz-adv-x="861" 
d="M200 0l465 669l31 -25l-465 -669zM336 324v-70h-269v50l93 89q45 43 66.5 80t21.5 75t-20 58t-55 20q-6 0 -12.5 -0.5t-13.5 -1.5l-10 -39q-7 -29 -16 -39.5t-23 -10.5q-24 0 -37 24q2 25 14 44t31 32t43 19t51 6q33 0 56 -9t37.5 -23.5t21 -33t6.5 -38.5q0 -22 -7.5 -42
t-23.5 -41.5t-40 -46t-58 -55.5l-51 -47h195zM607 335q-4 -23 -14.5 -32.5t-24.5 -9.5q-11 0 -20 5t-14 16q6 48 41 70.5t83 22.5q56 0 90 -26.5t34 -71.5q0 -35 -20.5 -61.5t-54.5 -36.5q45 -8 69 -35t24 -69q0 -31 -12.5 -52.5t-33 -35.5t-46.5 -20.5t-54 -6.5
q-59 0 -92.5 24.5t-41.5 70.5q5 15 14.5 20.5t20.5 5.5q14 0 24 -9.5t15 -38.5l8 -36q15 -4 33 -4q45 0 68.5 22.5t23.5 62.5q0 37 -22 58t-71 21h-30v40h25q82 0 82 72q0 35 -19.5 53.5t-53.5 18.5q-5 0 -11 -0.5t-13 -1.5z" />
    <glyph glyph-name="oneeighth" unicode="&#x215b;" horiz-adv-x="861" 
d="M181 0l465 669l31 -25l-465 -669zM314 283v-29h-249v29l90 16v295l-77 -6v37l139 32l9 -6v-352zM645 24q35 0 53 20.5t18 46.5q0 24 -20 43t-76 45q-25 -17 -36.5 -39.5t-11.5 -46.5q0 -32 21 -50.5t52 -18.5zM585 318q0 -10 3.5 -20t12.5 -20.5t24.5 -21.5t40.5 -23
q23 19 31 37.5t8 39.5q0 64 -58 64q-26 0 -44 -14t-18 -42zM696 219q42 -22 64 -48.5t22 -64.5q0 -53 -38.5 -83.5t-100.5 -30.5q-59 0 -96.5 25t-37.5 73q0 35 21 60t61 43q-35 20 -51 47.5t-16 58.5q0 26 10 46t27 34t39.5 21t48.5 7q52 0 83.5 -27t31.5 -68
q0 -23 -14.5 -46.5t-53.5 -46.5z" />
    <glyph glyph-name="threeeighths" unicode="&#x215c;" horiz-adv-x="861" 
d="M200 0l465 669l31 -25l-465 -669zM147 588q-4 -23 -14.5 -32.5t-24.5 -9.5q-11 0 -20 5t-14 16q6 48 41 70.5t83 22.5q56 0 90 -26.5t34 -71.5q0 -35 -20.5 -61.5t-54.5 -36.5q45 -8 69 -35t24 -69q0 -31 -12.5 -52.5t-33 -35.5t-46.5 -20.5t-54 -6.5q-59 0 -92.5 24.5
t-41.5 70.5q5 15 14.5 20.5t20.5 5.5q14 0 24 -9.5t15 -38.5l8 -36q15 -4 33 -4q45 0 68.5 22.5t23.5 62.5q0 37 -22 58t-71 21h-30v40h25q82 0 82 72q0 35 -19.5 53.5t-53.5 18.5q-5 0 -11 -0.5t-13 -1.5zM665 24q35 0 53 20.5t18 46.5q0 24 -20 43t-76 45
q-25 -17 -36.5 -39.5t-11.5 -46.5q0 -32 21 -50.5t52 -18.5zM605 318q0 -10 3.5 -20t12.5 -20.5t24.5 -21.5t40.5 -23q23 19 31 37.5t8 39.5q0 64 -58 64q-26 0 -44 -14t-18 -42zM716 219q42 -22 64 -48.5t22 -64.5q0 -53 -38.5 -83.5t-100.5 -30.5q-59 0 -96.5 25t-37.5 73
q0 35 21 60t61 43q-35 20 -51 47.5t-16 58.5q0 26 10 46t27 34t39.5 21t48.5 7q52 0 83.5 -27t31.5 -68q0 -23 -14.5 -46.5t-53.5 -46.5z" />
    <glyph glyph-name="fiveeighths" unicode="&#x215d;" horiz-adv-x="861" 
d="M194 0l465 669l31 -25l-465 -669zM136 498q30 6 59 6q31 0 57.5 -8t46 -23.5t30.5 -39.5t11 -56t-11.5 -56.5t-31.5 -41t-47 -25.5t-58 -9q-58 0 -90.5 26t-38.5 64q7 33 38 33q14 0 22.5 -10.5t14.5 -38.5l7 -35q21 -6 40 -6q36 0 59 25t23 70q0 42 -22.5 64.5
t-68.5 22.5q-15 0 -30.5 -2t-29.5 -5l-18 12l14 185h214v-70h-184zM662 24q35 0 53 20.5t18 46.5q0 24 -20 43t-76 45q-25 -17 -36.5 -39.5t-11.5 -46.5q0 -32 21 -50.5t52 -18.5zM602 318q0 -10 3.5 -20t12.5 -20.5t24.5 -21.5t40.5 -23q23 19 31 37.5t8 39.5q0 64 -58 64
q-26 0 -44 -14t-18 -42zM713 219q42 -22 64 -48.5t22 -64.5q0 -53 -38.5 -83.5t-100.5 -30.5q-59 0 -96.5 25t-37.5 73q0 35 21 60t61 43q-35 20 -51 47.5t-16 58.5q0 26 10 46t27 34t39.5 21t48.5 7q52 0 83.5 -27t31.5 -68q0 -23 -14.5 -46.5t-53.5 -46.5z" />
    <glyph glyph-name="seveneighths" unicode="&#x215e;" horiz-adv-x="861" 
d="M156 0l465 669l31 -25l-465 -669zM352 650v-41l-151 -355h-64l-6 6l166 320h-212v70h267zM641 24q35 0 53 20.5t18 46.5q0 24 -20 43t-76 45q-25 -17 -36.5 -39.5t-11.5 -46.5q0 -32 21 -50.5t52 -18.5zM581 318q0 -10 3.5 -20t12.5 -20.5t24.5 -21.5t40.5 -23
q23 19 31 37.5t8 39.5q0 64 -58 64q-26 0 -44 -14t-18 -42zM692 219q42 -22 64 -48.5t22 -64.5q0 -53 -38.5 -83.5t-100.5 -30.5q-59 0 -96.5 25t-37.5 73q0 35 21 60t61 43q-35 20 -51 47.5t-16 58.5q0 26 10 46t27 34t39.5 21t48.5 7q52 0 83.5 -27t31.5 -68
q0 -23 -14.5 -46.5t-53.5 -46.5z" />
    <glyph glyph-name="uni2190" unicode="&#x2190;" horiz-adv-x="660" 
d="M355 557l-240 -249l492 18h30v-72h-30l-492 17l240 -249l-26 -26l-307 283v22l307 282z" />
    <glyph glyph-name="arrowup" unicode="&#x2191;" horiz-adv-x="660" 
d="M597 265l-249 239l18 -491v-31h-72v31l17 491l-249 -239l-26 25l283 307h22l282 -307z" />
    <glyph glyph-name="uni2192" unicode="&#x2192;" horiz-adv-x="660" 
d="M305 22l239 249l-491 -17h-31v72h31l491 -18l-239 249l25 26l307 -282v-22l-307 -283z" />
    <glyph glyph-name="arrowdown" unicode="&#x2193;" horiz-adv-x="660" 
d="M62 315l249 -240l-17 492v30h72v-30l-18 -492l249 240l26 -26l-282 -307h-22l-283 307z" />
    <glyph glyph-name="uni2196" unicode="&#x2196;" horiz-adv-x="660" 
d="M537 462l-346 -8l360 -335l22 -21l-52 -51l-20 22l-336 359l-7 -345h-36l-17 416l15 16l417 -18v-35z" />
    <glyph glyph-name="uni2197" unicode="&#x2197;" horiz-adv-x="660" 
d="M502 83l-8 345l-335 -359l-21 -22l-51 51l22 21l359 335l-345 8v35l416 18l16 -16l-18 -416h-35z" />
    <glyph glyph-name="uni2198" unicode="&#x2198;" horiz-adv-x="660" 
d="M123 118l345 7l-359 336l-22 20l51 52l21 -22l335 -360l8 346h35l18 -417l-16 -15l-416 17v36z" />
    <glyph glyph-name="uni2199" unicode="&#x2199;" horiz-adv-x="660" 
d="M158 497l7 -346l336 360l20 22l52 -52l-22 -20l-360 -336l346 -7v-36l-417 -17l-15 15l17 417h36z" />
    <glyph glyph-name="partialdiff" unicode="&#x2202;" horiz-adv-x="530" 
d="M242 30q58 0 103.5 67.5t56.5 202.5q-34 35 -64 47.5t-59 12.5q-30 0 -57 -12t-46.5 -35t-31 -57t-11.5 -79q0 -69 31.5 -108t77.5 -39zM133 592q33 35 72 51t85 16q103 0 156 -73t53 -206q0 -89 -19.5 -162t-55 -124.5t-85 -80t-109.5 -28.5q-41 0 -75.5 13t-60 37
t-40 59.5t-14.5 80.5q0 55 19 98t51 72.5t72.5 45t84.5 15.5q77 0 138 -55v21q0 123 -32 182t-98 59q-34 0 -65 -13.5t-55 -36.5z" />
    <glyph glyph-name="uni2206" unicode="&#x2206;" horiz-adv-x="554" 
d="M433 47l-186 514l-175 -514h361zM534 35v-35h-514v35l220 634h62z" />
    <glyph glyph-name="product" unicode="&#x220f;" horiz-adv-x="774" 
d="M643 617q-2 -63 -2 -127.5v-130.5v-179v-129t2 -129l92 -11v-41h-282v41l91 11q2 63 2 127.5v130.5v179v129.5t-2 129.5h-314q-2 -64 -2 -128.5v-130.5v-179v-129t2 -129l92 -11v-41h-282v41l91 11q2 63 2 127.5v130.5v179v129t-2 129l-91 11v41h695v-41z" />
    <glyph glyph-name="summation" unicode="&#x2211;" horiz-adv-x="561" 
d="M541 81l-8 -211h-513v62l242 325l-236 367v45h485l8 -178h-61l-27 128h-286l209 -331l-252 -336h351l27 129h61z" />
    <glyph glyph-name="minus" unicode="&#x2212;" horiz-adv-x="531" 
d="M29 301v57h473v-57h-473z" />
    <glyph glyph-name="uni2215" unicode="&#x2215;" horiz-adv-x="140" 
d="M-178 0l465 669l31 -25l-465 -669z" />
    <glyph glyph-name="uni2219" unicode="&#x2219;" horiz-adv-x="300" 
d="M150 259q-30 0 -50.5 21t-20.5 50q0 30 20.5 51t50.5 21t50.5 -21t20.5 -51q0 -29 -20.5 -50t-50.5 -21z" />
    <glyph glyph-name="radical" unicode="&#x221a;" horiz-adv-x="558" 
d="M550 782l-213 -882h-51l-155 404h-88v52h155l122 -333l151 759h79z" />
    <glyph glyph-name="infinity" unicode="&#x221e;" horiz-adv-x="785" 
d="M593 232q48 0 75 27.5t27 69.5q0 25 -9 45.5t-24.5 35t-36 22.5t-44.5 8t-44 -5t-37 -15.5t-33.5 -27t-34.5 -38.5q19 -24 38.5 -46.5t39 -39t40.5 -26.5t43 -10zM204 217q24 0 43.5 5t37 15.5t34 27t34.5 38.5q-19 25 -38 47t-39 38.5t-41 26.5t-43 10q-48 0 -75 -27.5
t-27 -69.5q0 -25 9 -45.5t24.5 -35t36 -22.5t44.5 -8zM591 504q33 0 61.5 -12.5t49 -35t32.5 -54t12 -68.5q0 -39 -12.5 -72t-34.5 -57t-53.5 -38t-68.5 -14q-33 0 -61 10t-52.5 26.5t-46 38t-40.5 45.5q-43 -65 -88.5 -92.5t-93.5 -27.5q-33 0 -61.5 12.5t-49.5 35
t-32.5 53.5t-11.5 69q0 39 12 72t34.5 57t53.5 38t69 14q33 0 61 -10t52 -26.5t45.5 -38t40.5 -45.5q42 66 88 93t95 27z" />
    <glyph glyph-name="integral" unicode="&#x222b;" horiz-adv-x="359" 
d="M68 -148q25 16 41 42q15 24 25.5 64.5t12.5 94.5v24.5t-0.5 40.5t-3 65.5t-6.5 99.5q-4 54 -5.5 90t-2.5 59.5t-0.5 36.5t0.5 21q0 81 22.5 136.5t53.5 88.5q30 32 63.5 43.5t69.5 11.5q38 0 65.5 -16t35.5 -39q-4 -20 -18 -32.5t-39 -12.5q-17 0 -34 7.5t-35 25.5
l-22 23q-25 -16 -41 -42q-15 -24 -25.5 -64.5t-12.5 -94.5v-25t0.5 -41t2.5 -65.5t7 -99.5q4 -54 5.5 -90t2.5 -59t0.5 -36t-0.5 -20q0 -81 -22.5 -137t-52.5 -88q-31 -32 -66 -43.5t-69 -11.5q-38 0 -65 15.5t-35 38.5q4 20 18 32.5t40 12.5q17 0 33.5 -7t34.5 -26z" />
    <glyph glyph-name="approxequal" unicode="&#x2248;" horiz-adv-x="531" 
d="M285 233q24 -23 43.5 -32t39.5 -9q21 0 39 19t25 72l50 -8q-4 -69 -34 -105t-86 -36q-31 0 -58.5 14.5t-56.5 40.5q-25 23 -44.5 32t-39.5 9q-21 0 -38.5 -19t-24.5 -72l-51 8q5 69 34.5 105t85.5 36q32 0 59 -14.5t57 -40.5zM285 472q24 -23 43.5 -32t39.5 -9
q21 0 39 19t25 72l50 -8q-4 -69 -34 -105t-86 -36q-31 0 -58.5 14.5t-56.5 40.5q-25 23 -44.5 32t-39.5 9q-21 0 -38.5 -19t-24.5 -72l-51 8q5 69 34.5 105t85.5 36q32 0 59 -14.5t57 -40.5z" />
    <glyph glyph-name="notequal" unicode="&#x2260;" horiz-adv-x="531" 
d="M323 401l-81 -143h260v-57h-292l-81 -143l-33 16l72 127h-139v57h171l80 143h-251v57h283l81 143l33 -17l-71 -126h147v-57h-179z" />
    <glyph glyph-name="lessequal" unicode="&#x2264;" horiz-adv-x="531" 
d="M443 102l-398 205v47l398 206l30 -54l-353 -175l353 -175zM502 58v-58h-473v58h473z" />
    <glyph glyph-name="greaterequal" unicode="&#x2265;" horiz-adv-x="531" 
d="M58 156l353 175l-353 175l30 54l398 -206v-47l-398 -205zM502 58v-58h-473v58h473z" />
    <glyph glyph-name="uni25A0" unicode="&#x25a0;" horiz-adv-x="720" 
d="M55 600h610v-600h-610v600z" />
    <glyph glyph-name="triagup" unicode="&#x25b2;" horiz-adv-x="582" 
d="M284 501h14l258 -446l-7 -12h-516l-7 12z" />
    <glyph glyph-name="uni25B3" unicode="&#x25b3;" horiz-adv-x="582" 
d="M284 501h14l258 -446l-7 -12h-516l-7 12zM101 91h379l-189 327z" />
    <glyph glyph-name="uni25B6" unicode="&#x25b6;" horiz-adv-x="582" 
d="M540 270v-14l-446 -257l-12 6v516l12 7z" />
    <glyph glyph-name="uni25B7" unicode="&#x25b7;" horiz-adv-x="582" 
d="M540 270v-14l-446 -257l-12 6v516l12 7zM130 453v-379l327 189z" />
    <glyph glyph-name="triagdn" unicode="&#x25bc;" horiz-adv-x="582" 
d="M298 43h-14l-258 447l7 11h516l7 -11z" />
    <glyph glyph-name="uni25BD" unicode="&#x25bd;" horiz-adv-x="582" 
d="M298 43h-14l-258 447l7 11h516l7 -11zM480 454h-379l190 -327z" />
    <glyph glyph-name="uni25C0" unicode="&#x25c0;" horiz-adv-x="582" 
d="M42 256v14l447 258l11 -7v-516l-11 -6z" />
    <glyph glyph-name="uni25C1" unicode="&#x25c1;" horiz-adv-x="582" 
d="M42 256v14l447 258l11 -7v-516l-11 -6zM453 74v379l-327 -190z" />
    <glyph glyph-name="uni25C6" unicode="&#x25c6;" horiz-adv-x="748" 
d="M374 -54l-354 354l354 354l354 -354z" />
    <glyph glyph-name="uni25C9" unicode="&#x25c9;" horiz-adv-x="446" 
d="M223 135q-41 0 -77.5 15.5t-63.5 41.5t-42.5 61.5t-15.5 76.5q0 40 15.5 75.5t42.5 62t63.5 42t77.5 15.5t77.5 -15.5t63.5 -42t42.5 -62t15.5 -75.5q0 -41 -15.5 -76.5t-42.5 -61.5t-63.5 -41.5t-77.5 -15.5zM223 176q32 0 60 12t49 33t33 49t12 60t-12 60t-33 48.5
t-49 32.5t-60 12t-60 -12t-48.5 -32.5t-32.5 -48.5t-12 -60t12 -60t32.5 -49t48.5 -33t60 -12zM223 252q-32 0 -54.5 22.5t-22.5 55.5q0 32 22.5 54.5t54.5 22.5t54.5 -22.5t22.5 -54.5q0 -33 -22.5 -55.5t-54.5 -22.5z" />
    <glyph glyph-name="lozenge" unicode="&#x25ca;" horiz-adv-x="582" 
d="M291 619l-152 -294l152 -298l152 298zM298 -56h-14l-202 381l202 376h14l202 -376z" />
    <glyph glyph-name="uni2610" unicode="&#x2610;" horiz-adv-x="800" 
d="M698 7v586h-596v-586h596zM55 637h690v-674h-690v674z" />
    <glyph glyph-name="uni2611" unicode="&#x2611;" horiz-adv-x="800" 
d="M698 593h-83q-55 -129 -103 -259t-91 -263h-45q-37 90 -78.5 176.5t-89.5 171.5l66 41q35 -66 66 -130.5t57 -133.5q37 102 78 200.5t86 196.5h-459v-586h596v586zM745 637v-674h-690v674h527q27 60 56 118t58 117l37 -18q-26 -54 -51 -108t-48 -109h111z" />
    <glyph glyph-name="musicalnote" unicode="&#x266a;" horiz-adv-x="505" 
d="M266 749q4 -22 11.5 -39.5t21 -35.5t35.5 -38.5t56 -47.5q42 -34 61.5 -74.5t19.5 -86.5q0 -27 -6 -53.5t-15 -49.5t-20 -42.5t-21 -32.5l-21 9q11 24 17 52t6 59q0 36 -12.5 69.5t-49.5 66.5q-16 15 -34 29t-39 31v-402q0 -84 -38 -131t-110 -47q-41 0 -67.5 17.5
t-26.5 55.5q0 45 38 74.5t100 29.5q18 0 33.5 -2.5t29.5 -7.5v597h31z" />
    <glyph glyph-name="uni2713" unicode="&#x2713;" horiz-adv-x="604" 
d="M584 783q-93 -191 -169.5 -386.5t-142.5 -396.5h-45q-37 90 -78.5 176.5t-89.5 171.5l66 41q35 -66 66 -130.5t57 -133.5q64 175 139 342t160 334z" />
    <glyph glyph-name="uni2752" unicode="&#x2752;" horiz-adv-x="885" 
d="M707 0v600h-610v-600h610zM55 621l160 101h615v-604l-101 -160h-674v663z" />
    <glyph glyph-name="i.trk" horiz-adv-x="298" 
d="M153 598q-29 0 -48 18t-19 46q0 29 19 46.5t48 17.5q28 0 47.5 -17.5t19.5 -46.5q0 -28 -19.5 -46t-47.5 -18zM267 36v-36h-232v36l74 14q1 38 1.5 82t0.5 78v50q0 41 -1 68.5t-2 57.5l-79 9v35l155 61l15 -10l-3 -136v-135q0 -33 0.5 -77.5t1.5 -82.5z" />
    <glyph glyph-name="zero.slash" horiz-adv-x="500" 
d="M179 71q15 -23 33.5 -32t38.5 -9q22 0 43 13t37.5 46t26 89.5t9.5 143.5q0 69 -6 118.5t-17 83.5zM324 570q-16 25 -34.5 34.5t-38.5 9.5q-23 0 -44.5 -12.5t-38 -45.5t-26 -89.5t-9.5 -144.5q0 -72 6.5 -122.5t18.5 -84.5zM251 659q39 0 77 -18t67 -57.5t47 -104
t18 -157.5t-18 -157.5t-47 -104t-67 -57.5t-77 -18q-40 0 -78 18t-67 57.5t-47 104t-18 157.5t18 157.5t47 104t67 57.5t78 18z" />
    <glyph glyph-name="zero.lf" horiz-adv-x="502" 
d="M135 322q0 -88 9.5 -144.5t26 -89.5t37 -45.5t43.5 -12.5q22 0 43 13t37 46t25.5 89.5t9.5 143.5t-9.5 143.5t-25.5 89.5t-37 46t-43 13q-23 0 -43.5 -12.5t-37 -45.5t-26 -89.5t-9.5 -144.5zM252 659q40 0 78 -18t67 -57.5t47 -104t18 -157.5t-18 -157.5t-47 -104.5
t-67 -57.5t-78 -17.5q-41 0 -79 17.5t-68 57.5t-48 104.5t-18 157.5t18 157.5t48 104t68 57.5t79 18z" />
    <glyph glyph-name="one.lf" horiz-adv-x="426" 
d="M392 36v-36h-329v36l120 22q1 38 1.5 76.5t0.5 76.5v360l-122 -10v41l197 52l14 -10l-4 -143v-290q0 -38 0.5 -76.5t1.5 -76.5z" />
    <glyph glyph-name="two.lf" horiz-adv-x="508" 
d="M467 82v-82h-411v65l155 159q70 72 103.5 134.5t33.5 121.5q0 62 -32.5 98t-87.5 36q-10 0 -22.5 -1t-26.5 -4l-19 -69q-10 -37 -23.5 -52.5t-34.5 -15.5q-33 0 -51 32q4 40 22 69t45.5 48t62 28.5t72.5 9.5q48 0 83 -12.5t57.5 -35t33.5 -54t11 -68.5q0 -33 -9 -64
t-30 -64.5t-56 -73t-88 -88.5l-124 -117h336z" />
    <glyph glyph-name="three.lf" horiz-adv-x="503" 
d="M163 558q-8 -32 -20.5 -48t-38.5 -16q-17 0 -30 8t-20 29q7 32 24 56t41.5 40t55 24t65.5 8q44 0 79.5 -11.5t60.5 -32t38.5 -49.5t13.5 -64q0 -54 -34 -96.5t-96 -64.5q77 -15 113.5 -57.5t36.5 -105.5q0 -41 -16 -76t-45.5 -61t-70.5 -41t-92 -15q-74 0 -126 33.5
t-66 108.5q17 33 51 33q26 0 37.5 -17t21.5 -55l13 -52q17 -4 31 -5t25 -1q74 0 111 39t37 107q0 66 -38 102.5t-115 36.5h-48v50h40q68 0 105.5 35t37.5 99q0 55 -31.5 85t-90.5 30q-10 0 -21 -1t-25 -3z" />
    <glyph glyph-name="four.lf" horiz-adv-x="497" 
d="M301 256v293l-211 -293h211zM489 193h-105v-193h-83v193h-272v53l297 408h58v-398h105v-63z" />
    <glyph glyph-name="five.lf" horiz-adv-x="507" 
d="M148 394q45 12 94 12t89 -13.5t69 -39.5t45 -64t16 -88q0 -48 -16.5 -88t-47.5 -68.5t-74 -44t-95 -15.5q-77 0 -124 35t-63 106q7 17 20.5 25.5t30.5 8.5q23 0 35.5 -14t22.5 -54l14 -54q15 -5 29 -6.5t28 -1.5q74 0 112 44.5t38 116.5q0 75 -42 114.5t-114 39.5
q-43 0 -92 -11l-28 8l21 302h327v-82h-283z" />
    <glyph glyph-name="six.lf" horiz-adv-x="509" 
d="M270 30q52 0 82.5 39.5t30.5 117.5q0 79 -32 114t-84 35q-31 0 -64 -10t-62 -36v-5q0 -130 34.5 -192.5t94.5 -62.5zM440 627q-145 -35 -216 -107.5t-81 -188.5q32 32 69.5 49t76.5 17q41 0 74.5 -13.5t57.5 -39t37.5 -61.5t13.5 -81q0 -54 -15.5 -94.5t-43 -67.5
t-65 -41t-80.5 -14q-102 0 -159.5 75t-57.5 211q0 73 25 139t73.5 118t120 86t164.5 45z" />
    <glyph glyph-name="seven.lf" horiz-adv-x="479" 
d="M441 644v-51l-238 -593h-83l-10 10l263 552h-345v82h413z" />
    <glyph glyph-name="eight.lf" horiz-adv-x="509" 
d="M258 29q27 0 48.5 9.5t37 25.5t24 38t8.5 47q0 22 -7.5 40.5t-24.5 36t-46 35t-71 37.5q-47 -30 -71 -62.5t-24 -82.5q0 -54 35 -89t91 -35zM150 514q0 -20 5.5 -38.5t19.5 -37t38 -36.5t61 -37q45 35 63 65.5t18 72.5q0 45 -25.5 78t-73.5 33q-43 0 -74.5 -27t-31.5 -73
zM312 347q74 -38 111 -81.5t37 -109.5q0 -38 -15.5 -69.5t-43 -54t-65 -35t-80.5 -12.5q-45 0 -83 10.5t-65.5 30.5t-43 50.5t-15.5 70.5q0 54 36 94.5t105 75.5q-63 35 -91 79t-28 96q0 39 14.5 70t40 52.5t59.5 33t73 11.5t71 -11.5t54.5 -32t34.5 -48.5t12 -62
q0 -18 -5.5 -37.5t-19 -39.5t-36.5 -40.5t-57 -40.5z" />
    <glyph glyph-name="nine.lf" horiz-adv-x="520" 
d="M267 316q33 0 59.5 10t50.5 30v26q0 122 -33.5 177t-89.5 55q-24 0 -45.5 -9.5t-38 -29t-26 -48t-9.5 -66.5t10 -65.5t28 -45t42 -26t52 -8.5zM93 18q68 22 117.5 50.5t83 63.5t52.5 78.5t26 95.5q-26 -26 -59.5 -38t-72.5 -12q-40 0 -75.5 13.5t-61.5 39t-41.5 61.5
t-15.5 82q0 47 15.5 85t43.5 65t67.5 42t86.5 15q49 0 87.5 -18.5t65.5 -52t41 -81.5t14 -108q0 -72 -20.5 -138t-64 -121t-113 -96.5t-166.5 -63.5z" />
    <glyph glyph-name="zero.lfslash" horiz-adv-x="502" 
d="M179 73q15 -24 33.5 -33.5t38.5 -9.5q22 0 43 13t37 46t25.5 89.5t9.5 143.5q0 69 -6 118t-16 83zM324 568q-15 26 -34 36t-39 10q-23 0 -43.5 -12.5t-37 -45.5t-26 -89.5t-9.5 -144.5q0 -72 6.5 -122t17.5 -84zM252 659q40 0 78 -18t67 -57.5t47 -104t18 -157.5
t-18 -157.5t-47 -104.5t-67 -57.5t-78 -17.5q-41 0 -79 17.5t-68 57.5t-48 104.5t-18 157.5t18 157.5t48 104t68 57.5t79 18z" />
    <glyph glyph-name="zero.tosf" horiz-adv-x="500" 
d="M251 540q42 0 81 -16.5t69 -51t48 -86.5t18 -124t-18 -124.5t-48 -86t-69 -50t-81 -16.5t-81.5 16.5t-70 50t-48.5 86t-18 124.5t18 124t48.5 86.5t70 51t81.5 16.5zM126 262q0 -68 10 -112.5t27.5 -71t40 -37.5t47.5 -11q24 0 46 11t39.5 38t28 71.5t10.5 111.5
t-10.5 111.5t-28 71.5t-39.5 38t-46 11q-25 0 -47.5 -11t-40 -37.5t-27.5 -71.5t-10 -112z" />
    <glyph glyph-name="one.tosf" horiz-adv-x="500" 
d="M444 36v-36h-371v36l141 24q1 38 1.5 75.5t0.5 75.5v240l-142 -12v42l216 54l14 -10l-3 -143v-171q0 -38 0.5 -75.5t1.5 -75.5z" />
    <glyph glyph-name="two.tosf" horiz-adv-x="500" 
d="M457 82v-82h-410v65l158 134q34 29 58 53t40 46t23.5 43.5t7.5 45.5q0 54 -29.5 80.5t-75.5 26.5q-27 0 -58 -6l-18 -67q-10 -36 -23 -52.5t-35 -16.5q-17 0 -30 9t-21 24q4 40 23 69t47 48t63 28.5t72 9.5q45 0 78 -11.5t54.5 -31.5t32 -47.5t10.5 -59.5q0 -29 -9 -52
t-29.5 -47.5t-54 -53t-82.5 -67.5l-112 -88h320z" />
    <glyph glyph-name="three.tosf" horiz-adv-x="500" 
d="M170 439q-8 -32 -20.5 -48t-38.5 -16q-17 0 -30 8t-20 29q7 32 24 56t41.5 40t55 24t65.5 8q44 0 79.5 -11.5t60.5 -32t38.5 -49.5t13.5 -64q0 -54 -34 -96.5t-96 -64.5q77 -15 113.5 -57.5t36.5 -105.5q0 -41 -16 -76t-45.5 -61t-70.5 -41t-92 -15q-74 0 -126 33.5
t-66 108.5q17 33 51 33q26 0 37.5 -17t21.5 -55l13 -52q17 -4 31 -5t25 -1q74 0 111 39t37 107q0 66 -38 102.5t-115 36.5h-48v50h40q68 0 105.5 35t37.5 99q0 55 -31.5 85t-90.5 30q-10 0 -21 -1t-25 -3z" />
    <glyph glyph-name="four.tosf" horiz-adv-x="500" 
d="M297 128v293l-211 -293h211zM485 65h-105v-193h-83v193h-272v53l297 408h58v-398h105v-63z" />
    <glyph glyph-name="five.tosf" horiz-adv-x="500" 
d="M146 275q45 12 94 12t89 -13.5t69 -39.5t45 -64t16 -88q0 -48 -16.5 -88t-47.5 -68.5t-74 -44t-95 -15.5q-77 0 -124 35t-63 106q7 17 20.5 25.5t30.5 8.5q23 0 35.5 -14t22.5 -54l14 -54q15 -5 29 -6.5t28 -1.5q74 0 112 44.5t38 116.5q0 75 -42 114.5t-114 39.5
q-43 0 -92 -11l-28 8l21 302h327v-82h-283z" />
    <glyph glyph-name="six.tosf" horiz-adv-x="500" 
d="M260 30q52 0 82.5 39.5t30.5 117.5q0 79 -32 114t-84 35q-31 0 -64 -10t-62 -36v-5q0 -130 34.5 -192.5t94.5 -62.5zM430 627q-145 -35 -216 -107.5t-81 -188.5q32 32 69.5 49t76.5 17q41 0 74.5 -13.5t57.5 -39t37.5 -61.5t13.5 -81q0 -54 -15.5 -94.5t-43 -67.5
t-65 -41t-80.5 -14q-102 0 -159.5 75t-57.5 211q0 73 25 139t73.5 118t120 86t164.5 45z" />
    <glyph glyph-name="seven.tosf" horiz-adv-x="500" 
d="M459 525v-51l-238 -593h-83l-10 10l263 552h-345v82h413z" />
    <glyph glyph-name="eight.tosf" horiz-adv-x="500" 
d="M255 29q27 0 48.5 9.5t37 25.5t24 38t8.5 47q0 22 -7.5 40.5t-24.5 36t-46 35t-71 37.5q-47 -30 -71 -62.5t-24 -82.5q0 -54 35 -89t91 -35zM147 514q0 -20 5.5 -38.5t19.5 -37t38 -36.5t61 -37q45 35 63 65.5t18 72.5q0 45 -25.5 78t-73.5 33q-43 0 -74.5 -27t-31.5 -73
zM309 347q74 -38 111 -81.5t37 -109.5q0 -38 -15.5 -69.5t-43 -54t-65 -35t-80.5 -12.5q-45 0 -83 10.5t-65.5 30.5t-43 50.5t-15.5 70.5q0 54 36 94.5t105 75.5q-63 35 -91 79t-28 96q0 39 14.5 70t40 52.5t59.5 33t73 11.5t71 -11.5t54.5 -32t34.5 -48.5t12 -62
q0 -18 -5.5 -37.5t-19 -39.5t-36.5 -40.5t-57 -40.5z" />
    <glyph glyph-name="nine.tosf" horiz-adv-x="500" 
d="M257 197q33 0 59.5 10t50.5 30v26q0 122 -33.5 177t-89.5 55q-24 0 -45.5 -9.5t-38 -29t-26 -48t-9.5 -66.5t10 -65.5t28 -45t42 -26t52 -8.5zM83 -101q68 22 117.5 50.5t83 63.5t52.5 78.5t26 95.5q-26 -26 -59.5 -38t-72.5 -12q-40 0 -75.5 13.5t-61.5 39t-41.5 61.5
t-15.5 82q0 47 15.5 85t43.5 65t67.5 42t86.5 15q49 0 87.5 -18.5t65.5 -52t41 -81.5t14 -108q0 -72 -20.5 -138t-64 -121t-113 -96.5t-166.5 -63.5z" />
    <glyph glyph-name="zero.osf" horiz-adv-x="550" 
d="M276 540q46 0 89.5 -16.5t76.5 -50.5t53 -86.5t20 -124.5t-20 -124.5t-53 -86t-76.5 -50t-89.5 -16.5q-47 0 -90.5 16.5t-77 50t-53.5 86t-20 124.5t20 124.5t53.5 86.5t77 50.5t90.5 16.5zM130 262q0 -68 12 -112.5t32.5 -71t46.5 -37.5t55 -11q27 0 53 11t46 38
t32 71.5t12 111.5t-12 111.5t-32 71.5t-46 38t-53 11q-29 0 -55 -11t-46.5 -37.5t-32.5 -71.5t-12 -112z" />
    <glyph glyph-name="one.osf" horiz-adv-x="436" 
d="M402 36v-36h-329v36l120 22q1 38 1.5 76.5t0.5 76.5v240l-132 -9v41l206 52l14 -10l-3 -143v-171q0 -38 0.5 -76.5t1.5 -76.5z" />
    <glyph glyph-name="two.osf" horiz-adv-x="508" 
d="M465 82v-82h-410v65l158 134q34 29 58 53t40 46t23.5 43.5t7.5 45.5q0 54 -29.5 80.5t-75.5 26.5q-27 0 -58 -6l-18 -67q-10 -36 -23 -52.5t-35 -16.5q-17 0 -30 9t-21 24q4 40 23 69t47 48t63 28.5t72 9.5q45 0 78 -11.5t54.5 -31.5t32 -47.5t10.5 -59.5q0 -29 -9 -52
t-29.5 -47.5t-54 -53t-82.5 -67.5l-112 -88h320z" />
    <glyph glyph-name="three.osf" horiz-adv-x="503" 
d="M163 439q-8 -32 -20.5 -48t-38.5 -16q-17 0 -30 8t-20 29q7 32 24 56t41.5 40t55 24t65.5 8q44 0 79.5 -11.5t60.5 -32t38.5 -49.5t13.5 -64q0 -54 -34 -96.5t-96 -64.5q77 -15 113.5 -57.5t36.5 -105.5q0 -41 -16 -76t-45.5 -61t-70.5 -41t-92 -15q-74 0 -126 33.5
t-66 108.5q17 33 51 33q26 0 37.5 -17t21.5 -55l13 -52q17 -4 31 -5t25 -1q74 0 111 39t37 107q0 66 -38 102.5t-115 36.5h-48v50h40q68 0 105.5 35t37.5 99q0 55 -31.5 85t-90.5 30q-10 0 -21 -1t-25 -3z" />
    <glyph glyph-name="four.osf" horiz-adv-x="497" 
d="M301 128v293l-211 -293h211zM489 65h-105v-193h-83v193h-272v53l297 408h58v-398h105v-63z" />
    <glyph glyph-name="five.osf" horiz-adv-x="507" 
d="M148 275q45 12 94 12t89 -13.5t69 -39.5t45 -64t16 -88q0 -48 -16.5 -88t-47.5 -68.5t-74 -44t-95 -15.5q-77 0 -124 35t-63 106q7 17 20.5 25.5t30.5 8.5q23 0 35.5 -14t22.5 -54l14 -54q15 -5 29 -6.5t28 -1.5q74 0 112 44.5t38 116.5q0 75 -42 114.5t-114 39.5
q-43 0 -92 -11l-28 8l21 302h327v-82h-283z" />
    <glyph glyph-name="six.osf" horiz-adv-x="509" 
d="M270 30q52 0 82.5 39.5t30.5 117.5q0 79 -32 114t-84 35q-31 0 -64 -10t-62 -36v-5q0 -130 34.5 -192.5t94.5 -62.5zM440 627q-145 -35 -216 -107.5t-81 -188.5q32 32 69.5 49t76.5 17q41 0 74.5 -13.5t57.5 -39t37.5 -61.5t13.5 -81q0 -54 -15.5 -94.5t-43 -67.5
t-65 -41t-80.5 -14q-102 0 -159.5 75t-57.5 211q0 73 25 139t73.5 118t120 86t164.5 45z" />
    <glyph glyph-name="seven.osf" horiz-adv-x="479" 
d="M441 525v-51l-238 -593h-83l-10 10l263 552h-345v82h413z" />
    <glyph glyph-name="eight.osf" horiz-adv-x="509" 
d="M258 29q27 0 48.5 9.5t37 25.5t24 38t8.5 47q0 22 -7.5 40.5t-24.5 36t-46 35t-71 37.5q-47 -30 -71 -62.5t-24 -82.5q0 -54 35 -89t91 -35zM150 514q0 -20 5.5 -38.5t19.5 -37t38 -36.5t61 -37q45 35 63 65.5t18 72.5q0 45 -25.5 78t-73.5 33q-43 0 -74.5 -27t-31.5 -73
zM312 347q74 -38 111 -81.5t37 -109.5q0 -38 -15.5 -69.5t-43 -54t-65 -35t-80.5 -12.5q-45 0 -83 10.5t-65.5 30.5t-43 50.5t-15.5 70.5q0 54 36 94.5t105 75.5q-63 35 -91 79t-28 96q0 39 14.5 70t40 52.5t59.5 33t73 11.5t71 -11.5t54.5 -32t34.5 -48.5t12 -62
q0 -18 -5.5 -37.5t-19 -39.5t-36.5 -40.5t-57 -40.5z" />
    <glyph glyph-name="nine.osf" horiz-adv-x="520" 
d="M267 197q33 0 59.5 10t50.5 30v26q0 122 -33.5 177t-89.5 55q-24 0 -45.5 -9.5t-38 -29t-26 -48t-9.5 -66.5t10 -65.5t28 -45t42 -26t52 -8.5zM93 -101q68 22 117.5 50.5t83 63.5t52.5 78.5t26 95.5q-26 -26 -59.5 -38t-72.5 -12q-40 0 -75.5 13.5t-61.5 39t-41.5 61.5
t-15.5 82q0 47 15.5 85t43.5 65t67.5 42t86.5 15q49 0 87.5 -18.5t65.5 -52t41 -81.5t14 -108q0 -72 -20.5 -138t-64 -121t-113 -96.5t-166.5 -63.5z" />
    <glyph glyph-name="exclamdown.cap" horiz-adv-x="289" 
d="M144 684q27 0 46 -19.5t19 -45.5t-19 -45.5t-46 -19.5t-45.5 19.5t-18.5 45.5t18.5 45.5t45.5 19.5zM144 -15q-26 0 -41.5 15t-15.5 48q0 28 7 96t18 173l14 137h37l13 -137q11 -105 18.5 -173t7.5 -96q0 -33 -15.5 -48t-42.5 -15z" />
    <glyph glyph-name="questiondown.cap" horiz-adv-x="416" 
d="M267 554q-27 0 -46 19.5t-19 45.5t19 45.5t46 19.5t45.5 -19.5t18.5 -45.5t-18.5 -45.5t-45.5 -19.5zM278 94q44 -8 58 -21.5t14 -32.5q0 -23 -14 -35.5t-42 -19.5q-31 3 -70.5 20t-74.5 46t-59 69t-24 89q0 94 100 126l34 11q16 5 25 9.5t14 10.5t6.5 14.5t1.5 20.5v55
h39l12 -42q10 -30 13 -45.5t3 -25.5q0 -22 -17.5 -36.5t-62.5 -28.5l-57 -18q-56 -18 -56 -69q0 -19 7 -37.5t18 -36.5z" />
    <glyph glyph-name="guilsinglleft.cap" horiz-adv-x="285" 
d="M109 298l150 -176l-24 -27l-205 176v53l205 176l24 -27z" />
    <glyph glyph-name="guilsinglright.cap" horiz-adv-x="285" 
d="M255 324v-53l-205 -176l-24 27l150 176l-150 175l24 27z" />
    <glyph glyph-name="guillemotleft.cap" horiz-adv-x="487" 
d="M109 298l150 -176l-24 -27l-205 176v53l205 176l24 -27zM311 298l150 -176l-24 -27l-205 176v53l205 176l24 -27z" />
    <glyph glyph-name="guillemotright.cap" horiz-adv-x="487" 
d="M255 324v-53l-205 -176l-24 27l150 176l-150 175l24 27zM457 324v-53l-205 -176l-24 27l150 176l-150 175l24 27z" />
    <glyph glyph-name="hyphen.cap" horiz-adv-x="312" 
d="M40 339h232v-66h-232v66z" />
    <glyph glyph-name="sfthyphen.cap" horiz-adv-x="312" 
d="M40 339h232v-66h-232v66z" />
    <glyph glyph-name="endash.cap" horiz-adv-x="512" 
d="M40 339h432v-66h-432v66z" />
    <glyph glyph-name="emdash.cap" horiz-adv-x="812" 
d="M40 339h732v-66h-732v66z" />
    <glyph glyph-name="horizontalbar.cap" horiz-adv-x="812" 
d="M40 339h732v-66h-732v66z" />
    <glyph glyph-name="parenleft.cap" horiz-adv-x="339" 
d="M160 313q0 -60 7.5 -113.5t25.5 -106.5t47.5 -108t73.5 -119l-26 -23q-106 100 -157 216t-51 254t51 254t157 216l26 -23q-44 -64 -73.5 -119t-47.5 -108t-25.5 -106.5t-7.5 -113.5z" />
    <glyph glyph-name="parenright.cap" horiz-adv-x="339" 
d="M179 313q0 60 -7.5 113.5t-25.5 106.5t-47.5 108t-73.5 119l26 23q106 -100 157 -216t51 -254t-51 -254t-157 -216l-26 23q44 64 73.5 119t47.5 108t25.5 106.5t7.5 113.5z" />
    <glyph glyph-name="bracketleft.cap" horiz-adv-x="320" 
d="M178 696q-2 -65 -2 -131v-132v-240v-131.5t2 -131.5l113 -13v-41h-191q2 78 2.5 157t0.5 160v240q0 79 -0.5 158.5t-2.5 158.5h191v-41z" />
    <glyph glyph-name="bracketright.cap" horiz-adv-x="320" 
d="M217 193q0 -79 0.5 -158.5t2.5 -158.5h-191v41l113 13q2 65 2 131v132v240v131.5t-2 131.5l-113 13v41h191q-2 -78 -2.5 -157t-0.5 -160v-240z" />
    <glyph glyph-name="braceleft.cap" horiz-adv-x="344" 
d="M287 707q-26 -3 -43 -8t-26.5 -14t-13.5 -23.5t-4 -36.5q0 -57 6 -108t6 -81q0 -48 -22 -80t-71 -43q49 -11 71 -43t22 -80q0 -30 -6 -81t-6 -108q0 -22 4 -36.5t13.5 -23.5t26.5 -14t43 -8l27 -3v-40h-45q-72 0 -112 30.5t-40 90.5q0 31 6.5 59t14.5 53.5t14.5 48.5
t6.5 43q0 38 -28 61t-91 31v40q63 8 91 31t28 61q0 20 -6.5 43t-14.5 48.5t-14.5 53.5t-6.5 59q0 60 40 90.5t112 30.5h45v-40z" />
    <glyph glyph-name="braceright.cap" horiz-adv-x="344" 
d="M304 293q-63 -8 -91 -31t-28 -61q0 -20 6.5 -43t14.5 -48.5t14.5 -53.5t6.5 -59q0 -60 -40 -90.5t-112 -30.5h-45v40l27 3q26 3 43 8t26.5 14t13.5 23.5t4 36.5q0 57 -6 108t-6 81q0 48 22 80t71 43q-49 11 -71 43t-22 80q0 30 6 81t6 108q0 22 -4 36.5t-13.5 23.5
t-26.5 14t-43 8l-27 3v40h45q72 0 112 -30.5t40 -90.5q0 -31 -6.5 -59t-14.5 -53.5t-14.5 -48.5t-6.5 -43q0 -38 28 -61t91 -31v-40z" />
    <glyph glyph-name="at.cap" horiz-adv-x="835" 
d="M518 465q-15 18 -30 25.5t-31 7.5q-23 0 -50.5 -14t-50.5 -46q-23 -31 -39 -71.5t-16 -94.5q0 -96 69 -96q22 0 45 11t58 41zM587 -38q-44 -23 -94 -33t-95 -10q-75 0 -141.5 22.5t-115.5 67.5t-77.5 112.5t-28.5 157.5q0 92 33.5 172.5t92.5 140.5t139.5 94.5
t174.5 34.5q76 0 136.5 -24t102.5 -67t64 -102.5t22 -130.5q0 -73 -21.5 -126t-55 -87t-73.5 -50.5t-77 -16.5q-47 0 -72 21.5t-30 53.5q-30 -33 -62.5 -54t-69.5 -21q-21 0 -40.5 7.5t-34.5 24t-24 42.5t-9 63q0 59 24 112.5t59 94.5q33 40 71.5 62t79.5 22q37 0 68 -25
l47 24l19 -16l-57 -285q-8 -38 6.5 -58.5t47.5 -20.5q26 0 51.5 13.5t46 42.5t33.5 75t13 111t-20.5 115.5t-57 85.5t-86 53.5t-107.5 18.5q-83 0 -151.5 -32.5t-117.5 -87t-76 -125.5t-27 -148q0 -82 26 -143t70.5 -101.5t102.5 -60.5t123 -20q90 0 155 31z" />
    <glyph glyph-name="period.sups" horiz-adv-x="232" 
d="M116 416q-20 0 -34.5 15t-14.5 36q0 20 14.5 35.5t34.5 15.5t34.5 -15.5t14.5 -35.5q0 -21 -14.5 -36t-34.5 -15z" />
    <glyph glyph-name="comma.sups" horiz-adv-x="220" 
d="M98 418q-28 20 -28 51q0 20 12 34.5t33 14.5q9 0 19.5 -3.5t21.5 -14.5q4 -14 6 -26.5t2 -25.5q0 -29 -11 -53t-28 -42.5t-38.5 -31.5t-43.5 -19l-8 28q26 8 50 26t36 46z" />
    <glyph glyph-name="colon.sups" horiz-adv-x="232" 
d="M116 646q-20 0 -34.5 15.5t-14.5 36.5t14.5 36t34.5 15t34.5 -15t14.5 -36t-14.5 -36.5t-34.5 -15.5zM116 416q-20 0 -34.5 15t-14.5 36q0 20 14.5 35.5t34.5 15.5t34.5 -15.5t14.5 -35.5q0 -21 -14.5 -36t-34.5 -15z" />
    <glyph glyph-name="hyphen.sups" horiz-adv-x="245" 
d="M46 606h153v-50h-153v50z" />
    <glyph glyph-name="endash.sups" horiz-adv-x="373" 
d="M46 606h281v-50h-281v50z" />
    <glyph glyph-name="emdash.sups" horiz-adv-x="565" 
d="M46 606h473v-50h-473v50z" />
    <glyph glyph-name="period.subs" horiz-adv-x="232" 
d="M116 -220q-20 0 -34.5 15t-14.5 36q0 20 14.5 35.5t34.5 15.5t34.5 -15.5t14.5 -35.5q0 -21 -14.5 -36t-34.5 -15z" />
    <glyph glyph-name="comma.subs" horiz-adv-x="220" 
d="M98 -218q-28 20 -28 51q0 20 12 34.5t33 14.5q9 0 19.5 -3.5t21.5 -14.5q4 -14 6 -26.5t2 -25.5q0 -29 -11 -53t-28 -42.5t-38.5 -31.5t-43.5 -19l-8 28q26 8 50 26t36 46z" />
    <glyph glyph-name="zero.dnom" 
d="M118 199q0 -54 5.5 -87t15 -52t22 -25.5t25.5 -6.5t25 6.5t21 25.5t14.5 52t5.5 87t-5.5 87t-14.5 52t-21 25.5t-25 6.5t-25.5 -6.5t-22 -25t-15 -52t-5.5 -87.5zM186 404q27 0 52 -11.5t44.5 -36.5t31 -63.5t11.5 -93.5q0 -54 -11.5 -93t-31 -63.5t-44.5 -36t-52 -11.5
t-52.5 11.5t-45 36t-31.5 63.5t-12 93q0 55 12 93.5t31.5 63.5t45 36.5t52.5 11.5z" />
    <glyph glyph-name="one.dnom" 
d="M315 30v-29h-249v29l90 16v295l-77 -6v37l139 32l9 -6v-352z" />
    <glyph glyph-name="two.dnom" 
d="M323 71v-70h-269v50l93 89q45 43 66.5 80t21.5 75t-20 58t-55 20q-6 0 -12.5 -0.5t-13.5 -1.5l-10 -39q-7 -29 -16 -39.5t-23 -10.5q-24 0 -37 24q2 25 14 44t31 32t43 19t51 6q33 0 56 -9t37.5 -23.5t21 -33t6.5 -38.5q0 -22 -7.5 -42t-23.5 -41.5t-40 -46t-58 -55.5
l-51 -47h195z" />
    <glyph glyph-name="three.dnom" 
d="M132 335q-4 -23 -14.5 -32.5t-24.5 -9.5q-11 0 -20 5t-14 16q6 48 41 70.5t83 22.5q56 0 90 -26.5t34 -71.5q0 -35 -20.5 -61.5t-54.5 -36.5q45 -8 69 -35t24 -69q0 -31 -12.5 -52.5t-33 -35.5t-46.5 -20.5t-54 -6.5q-59 0 -92.5 24.5t-41.5 70.5q5 15 14.5 20.5
t20.5 5.5q14 0 24 -9.5t15 -38.5l8 -36q15 -4 33 -4q45 0 68.5 22.5t23.5 62.5q0 37 -22 58t-71 21h-30v40h25q82 0 82 72q0 35 -19.5 53.5t-53.5 18.5q-5 0 -11 -0.5t-13 -1.5z" />
    <glyph glyph-name="four.dnom" 
d="M202 159v173l-121 -173h121zM331 102h-64v-101h-65v101h-170v46l188 256h47v-245h64v-57z" />
    <glyph glyph-name="five.dnom" 
d="M120 245q30 6 59 6q31 0 57.5 -8t46 -23.5t30.5 -39.5t11 -56t-11.5 -56.5t-31.5 -41t-47 -25.5t-58 -9q-58 0 -90.5 26t-38.5 64q7 33 38 33q14 0 22.5 -10.5t14.5 -38.5l7 -35q21 -6 40 -6q36 0 59 25t23 70q0 42 -22.5 64.5t-68.5 22.5q-15 0 -30.5 -2t-29.5 -5
l-18 12l14 185h214v-70h-184z" />
    <glyph glyph-name="six.dnom" 
d="M197 25q29 0 47 22.5t18 70.5t-19 67t-50 19q-36 0 -70 -25q0 -81 19.5 -117.5t54.5 -36.5zM300 381q-81 -16 -123.5 -60.5t-50.5 -104.5q35 31 85 31q57 0 88.5 -32t31.5 -89q0 -33 -10.5 -58t-29 -42t-43 -25.5t-52.5 -8.5q-34 0 -61.5 12.5t-46.5 35t-29 53.5t-10 69
q0 43 16 86t47 77.5t77.5 57.5t106.5 27z" />
    <glyph glyph-name="seven.dnom" 
d="M323 397v-41l-151 -355h-64l-6 6l166 320h-212v70h267z" />
    <glyph glyph-name="eight.dnom" 
d="M185 24q35 0 53 20.5t18 46.5q0 24 -20 43t-76 45q-25 -17 -36.5 -39.5t-11.5 -46.5q0 -32 21 -50.5t52 -18.5zM125 318q0 -10 3.5 -20t12.5 -20.5t24.5 -21.5t40.5 -23q23 19 31 37.5t8 39.5q0 64 -58 64q-26 0 -44 -14t-18 -42zM236 219q42 -22 64 -48.5t22 -64.5
q0 -53 -38.5 -83.5t-100.5 -30.5q-59 0 -96.5 25t-37.5 73q0 35 21 60t61 43q-35 20 -51 47.5t-16 58.5q0 26 10 46t27 34t39.5 21t48.5 7q52 0 83.5 -27t31.5 -68q0 -23 -14.5 -46.5t-53.5 -46.5z" />
    <glyph glyph-name="nine.dnom" 
d="M189 199q32 0 58 17q1 6 1 12.5v12.5q0 71 -18.5 101.5t-51.5 30.5q-26 0 -46.5 -20t-20.5 -68t22.5 -67t55.5 -19zM80 21q77 23 114 61t48 95q-30 -21 -73 -21q-55 0 -91.5 31.5t-36.5 88.5q0 28 10.5 52.5t29.5 41.5t44.5 27t55.5 10q66 0 103.5 -46t37.5 -127
q0 -48 -16.5 -89t-47 -72.5t-74 -52t-97.5 -28.5z" />
    <glyph glyph-name="parenleft.dnom" horiz-adv-x="252" 
d="M118 173q0 -32 4.5 -63t16 -62.5t30 -65.5t46.5 -71l-21 -19q-69 58 -105 128t-36 153t36 153t105 130l21 -20q-28 -38 -46.5 -71.5t-30 -65t-16 -62.5t-4.5 -64z" />
    <glyph glyph-name="parenright.dnom" horiz-adv-x="252" 
d="M134 173q0 33 -5 64t-16 62.5t-30 65t-46 71.5l21 20q141 -120 141 -283q0 -164 -141 -281l-21 19q27 37 46 71t30 65.5t16 62.5t5 63z" />
    <glyph glyph-name="period.dnom" horiz-adv-x="232" 
d="M116 -8q-20 0 -34.5 15t-14.5 36q0 20 14.5 35.5t34.5 15.5t34.5 -15.5t14.5 -35.5q0 -21 -14.5 -36t-34.5 -15z" />
    <glyph glyph-name="comma.dnom" horiz-adv-x="220" 
d="M98 -6q-28 20 -28 51q0 20 12 34.5t33 14.5q9 0 19.5 -3.5t21.5 -14.5q4 -14 6 -26.5t2 -25.5q0 -29 -11 -53t-28 -42.5t-38.5 -31.5t-43.5 -19l-8 28q26 8 50 26t36 46z" />
    <glyph glyph-name="zero.numr" 
d="M118 452q0 -54 5.5 -87t15 -52t22 -25.5t25.5 -6.5t25 6.5t21 25.5t14.5 52t5.5 87t-5.5 87t-14.5 52t-21 25.5t-25 6.5t-25.5 -6.5t-22 -25t-15 -52t-5.5 -87.5zM186 657q27 0 52 -11.5t44.5 -36.5t31 -63.5t11.5 -93.5q0 -54 -11.5 -93t-31 -63.5t-44.5 -36t-52 -11.5
t-52.5 11.5t-45 36t-31.5 63.5t-12 93q0 55 12 93.5t31.5 63.5t45 36.5t52.5 11.5z" />
    <glyph glyph-name="one.numr" 
d="M315 283v-29h-249v29l90 16v295l-77 -6v37l139 32l9 -6v-352z" />
    <glyph glyph-name="two.numr" 
d="M323 324v-70h-269v50l93 89q45 43 66.5 80t21.5 75t-20 58t-55 20q-6 0 -12.5 -0.5t-13.5 -1.5l-10 -39q-7 -29 -16 -39.5t-23 -10.5q-24 0 -37 24q2 25 14 44t31 32t43 19t51 6q33 0 56 -9t37.5 -23.5t21 -33t6.5 -38.5q0 -22 -7.5 -42t-23.5 -41.5t-40 -46t-58 -55.5
l-51 -47h195z" />
    <glyph glyph-name="three.numr" 
d="M132 588q-4 -23 -14.5 -32.5t-24.5 -9.5q-11 0 -20 5t-14 16q6 48 41 70.5t83 22.5q56 0 90 -26.5t34 -71.5q0 -35 -20.5 -61.5t-54.5 -36.5q45 -8 69 -35t24 -69q0 -31 -12.5 -52.5t-33 -35.5t-46.5 -20.5t-54 -6.5q-59 0 -92.5 24.5t-41.5 70.5q5 15 14.5 20.5
t20.5 5.5q14 0 24 -9.5t15 -38.5l8 -36q15 -4 33 -4q45 0 68.5 22.5t23.5 62.5q0 37 -22 58t-71 21h-30v40h25q82 0 82 72q0 35 -19.5 53.5t-53.5 18.5q-5 0 -11 -0.5t-13 -1.5z" />
    <glyph glyph-name="four.numr" 
d="M202 412v173l-121 -173h121zM331 355h-64v-101h-65v101h-170v46l188 256h47v-245h64v-57z" />
    <glyph glyph-name="five.numr" 
d="M120 498q30 6 59 6q31 0 57.5 -8t46 -23.5t30.5 -39.5t11 -56t-11.5 -56.5t-31.5 -41t-47 -25.5t-58 -9q-58 0 -90.5 26t-38.5 64q7 33 38 33q14 0 22.5 -10.5t14.5 -38.5l7 -35q21 -6 40 -6q36 0 59 25t23 70q0 42 -22.5 64.5t-68.5 22.5q-15 0 -30.5 -2t-29.5 -5
l-18 12l14 185h214v-70h-184z" />
    <glyph glyph-name="six.numr" 
d="M197 278q29 0 47 22.5t18 70.5t-19 67t-50 19q-36 0 -70 -25q0 -81 19.5 -117.5t54.5 -36.5zM300 634q-81 -16 -123.5 -60.5t-50.5 -104.5q35 31 85 31q57 0 88.5 -32t31.5 -89q0 -33 -10.5 -58t-29 -42t-43 -25.5t-52.5 -8.5q-34 0 -61.5 12.5t-46.5 35t-29 53.5t-10 69
q0 43 16 86t47 77.5t77.5 57.5t106.5 27z" />
    <glyph glyph-name="seven.numr" 
d="M323 650v-41l-151 -355h-64l-6 6l166 320h-212v70h267z" />
    <glyph glyph-name="eight.numr" 
d="M185 277q35 0 53 20.5t18 46.5q0 24 -20 43t-76 45q-25 -17 -36.5 -39.5t-11.5 -46.5q0 -32 21 -50.5t52 -18.5zM125 571q0 -10 3.5 -20t12.5 -20.5t24.5 -21.5t40.5 -23q23 19 31 37.5t8 39.5q0 64 -58 64q-26 0 -44 -14t-18 -42zM236 472q42 -22 64 -48.5t22 -64.5
q0 -53 -38.5 -83.5t-100.5 -30.5q-59 0 -96.5 25t-37.5 73q0 35 21 60t61 43q-35 20 -51 47.5t-16 58.5q0 26 10 46t27 34t39.5 21t48.5 7q52 0 83.5 -27t31.5 -68q0 -23 -14.5 -46.5t-53.5 -46.5z" />
    <glyph glyph-name="nine.numr" 
d="M189 452q32 0 58 17q1 6 1 12.5v12.5q0 71 -18.5 101.5t-51.5 30.5q-26 0 -46.5 -20t-20.5 -68t22.5 -67t55.5 -19zM80 274q77 23 114 61t48 95q-30 -21 -73 -21q-55 0 -91.5 31.5t-36.5 88.5q0 28 10.5 52.5t29.5 41.5t44.5 27t55.5 10q66 0 103.5 -46t37.5 -127
q0 -48 -16.5 -89t-47 -72.5t-74 -52t-97.5 -28.5z" />
    <glyph glyph-name="parenleft.numr" horiz-adv-x="252" 
d="M118 426q0 -32 4.5 -63t16 -62.5t30 -65.5t46.5 -71l-21 -19q-69 58 -105 128t-36 153t36 153t105 130l21 -20q-28 -38 -46.5 -71.5t-30 -65t-16 -62.5t-4.5 -64z" />
    <glyph glyph-name="parenright.numr" horiz-adv-x="252" 
d="M134 426q0 33 -5 64t-16 62.5t-30 65t-46 71.5l21 20q141 -120 141 -283q0 -164 -141 -281l-21 19q27 37 46 71t30 65.5t16 62.5t5 63z" />
    <glyph glyph-name="period.numr" horiz-adv-x="232" 
d="M116 245q-20 0 -34.5 15t-14.5 36q0 20 14.5 35.5t34.5 15.5t34.5 -15.5t14.5 -35.5q0 -21 -14.5 -36t-34.5 -15z" />
    <glyph glyph-name="comma.numr" horiz-adv-x="220" 
d="M98 247q-28 20 -28 51q0 20 12 34.5t33 14.5q9 0 19.5 -3.5t21.5 -14.5q4 -14 6 -26.5t2 -25.5q0 -29 -11 -53t-28 -42.5t-38.5 -31.5t-43.5 -19l-8 28q26 8 50 26t36 46z" />
    <glyph glyph-name="q.sups" horiz-adv-x="384" 
d="M263 665q-21 19 -41.5 29t-42.5 10q-16 0 -30.5 -6.5t-25 -21t-17 -37.5t-6.5 -57q0 -35 6.5 -58t17 -37t24.5 -20t30 -6q23 0 43 10t42 30v164zM382 302v-30h-177v30l58 10v161q-23 -27 -48.5 -42.5t-58.5 -15.5q-25 0 -48 10t-40 30t-27.5 51t-10.5 73q0 43 11.5 75
t30.5 53t44 31.5t52 10.5q31 0 54 -12.5t43 -37.5l54 50l12 -6v-431z" />
    <glyph glyph-name="egrave.sups" horiz-adv-x="351" 
d="M133 836q-23 20 -29.5 32t-6.5 20q0 12 8.5 19t18.5 7q9 0 21.5 -8.5t29.5 -36.5l49 -80l-19 -15zM217 611q25 0 33 9.5t8 26.5q0 33 -21 50t-50 17q-14 0 -28 -5t-26 -17t-21 -31.5t-12 -49.5h117zM99 579q2 -57 31 -84.5t75 -27.5q34 0 56 12.5t40 35.5l17 -13
q-18 -41 -51 -64t-79 -23q-72 0 -115 43.5t-43 122.5q0 37 12.5 68t34.5 53.5t51 34.5t61 12q57 0 94 -37t37 -97q0 -10 -1 -19t-3 -17h-217z" />
    <glyph glyph-name="eacute.sups" horiz-adv-x="351" 
d="M165 774l-19 15l49 80q17 28 30 36.5t21 8.5q11 0 19 -7t8 -19q0 -8 -6.5 -20t-28.5 -32zM217 611q25 0 33 9.5t8 26.5q0 33 -21 50t-50 17q-14 0 -28 -5t-26 -17t-21 -31.5t-12 -49.5h117zM99 579q2 -57 31 -84.5t75 -27.5q34 0 56 12.5t40 35.5l17 -13q-18 -41 -51 -64
t-79 -23q-72 0 -115 43.5t-43 122.5q0 37 12.5 68t34.5 53.5t51 34.5t61 12q57 0 94 -37t37 -97q0 -10 -1 -19t-3 -17h-217z" />
    <glyph glyph-name="slash.frac" horiz-adv-x="140" 
d="M-178 0l465 669l31 -25l-465 -669z" />
    <glyph glyph-name="space.frac" horiz-adv-x="133" 
 />
    <glyph glyph-name="uni00A0.frac" horiz-adv-x="133" 
 />
    <glyph glyph-name="caron.alt" horiz-adv-x="25" 
d="M32 740q20 0 28 -10t8 -27q0 -11 -3 -26t-8 -32.5t-11 -36t-12 -36.5l-19 -54h-32l3 209q23 13 46 13z" />
    <glyph glyph-name="commabelowcmb.alt" horiz-adv-x="0" 
d="M82 742q-31 -12 -52.5 -26.5t-38.5 -39.5q20 -8 33.5 -24t13.5 -36t-14 -32t-33 -12q-24 0 -44 19q-5 16 -7 26t-2 20q0 26 11 47t29.5 37.5t42.5 28.5t50 21z" />
    <glyph glyph-name="gravecmb.cap" horiz-adv-x="0" 
d="M59 720l-125 67q-29 16 -40 29t-11 27q0 15 11 24.5t27 9.5q13 0 27 -8.5t36 -29.5l94 -94z" />
    <glyph glyph-name="acutecmb.cap" horiz-adv-x="0" 
d="M16 839q22 21 36 29.5t27 8.5q16 0 27 -9.5t11 -24.5q0 -14 -11 -27t-40 -29l-125 -67l-19 25z" />
    <glyph glyph-name="circumflexcmb.cap" horiz-adv-x="0" 
d="M119 728l-119 72l-119 -72l-20 25l122 115h34l122 -115z" />
    <glyph glyph-name="tildecmb.cap" horiz-adv-x="0" 
d="M70 723q-26 0 -46 9.5t-42 29.5q-21 18 -35 26.5t-30 8.5q-20 0 -34 -15t-14 -50h-34q-1 5 -1.5 11t-0.5 14q0 47 23.5 71t67.5 24q27 0 47.5 -9t43.5 -29q20 -18 34 -26.5t30 -8.5q20 0 34 15t14 49h34q1 -5 1.5 -9.5t0.5 -10.5q0 -48 -24.5 -74t-68.5 -26z" />
    <glyph glyph-name="macroncmb.cap" horiz-adv-x="0" 
d="M-151 811h302v-62h-302v62z" />
    <glyph glyph-name="brevecmb.cap" horiz-adv-x="0" 
d="M0 731q-35 0 -60.5 11.5t-43 30t-27.5 41t-13 44.5l31 12q13 -35 40.5 -57t72.5 -22t74 22t40 56l30 -11q-3 -22 -13 -44.5t-27.5 -41t-43.5 -30t-60 -11.5z" />
    <glyph glyph-name="dotaccentcmb.cap" horiz-adv-x="0" 
d="M0 736q-28 0 -47.5 18t-19.5 46q0 29 19.5 46.5t47.5 17.5t47.5 -17.5t19.5 -46.5q0 -28 -19.5 -46t-47.5 -18z" />
    <glyph glyph-name="dieresiscmb.cap" horiz-adv-x="0" 
d="M-112 737q-23 0 -40.5 16t-17.5 39q0 24 17.5 39.5t40.5 15.5q24 0 40.5 -15.5t16.5 -39.5q0 -23 -16.5 -39t-40.5 -16zM111 737q-24 0 -40.5 16t-16.5 39q0 24 16.5 39.5t40.5 15.5q23 0 40.5 -15.5t17.5 -39.5q0 -23 -17.5 -39t-40.5 -16z" />
    <glyph glyph-name="ringcmb.cap" horiz-adv-x="0" 
d="M0 722q-18 0 -35.5 6t-31 18t-21.5 29t-8 39t8 39t21.5 29t31 18.5t35.5 6.5t35.5 -6t31 -18t21.5 -29.5t8 -39.5q0 -21 -8 -38t-21.5 -29t-31 -18.5t-35.5 -6.5zM0 757q25 0 38.5 18t13.5 39q0 22 -13 39t-39 17q-25 0 -38.5 -17t-13.5 -39q0 -21 13 -39t39 -18z" />
    <glyph glyph-name="hungarumlautcmb.cap" horiz-adv-x="0" 
d="M-60 846q11 23 25.5 32.5t27.5 9.5q14 0 24.5 -9.5t10.5 -24.5q0 -9 -5 -20t-17 -24l-96 -99l-26 18zM93 846q11 23 25 32.5t27 9.5q14 0 25 -9.5t11 -24.5q0 -9 -5 -20t-17 -24l-96 -99l-26 18z" />
    <glyph glyph-name="caroncmb.cap" horiz-adv-x="0" 
d="M139 847l-102 -118h-74l-102 118l24 21l115 -85l115 85z" />
    </font>
</defs>
</svg>
